<?xml version="1.0" encoding="UTF-8" standalone="no"?>
<svg
   version="1.1"
   width="70"
   height="70"
   id="svg10"
   sodipodi:docname="detektyw.svg"
   inkscape:version="1.1.2 (0a00cf5339, 2022-02-04)"
   xmlns:inkscape="http://www.inkscape.org/namespaces/inkscape"
   xmlns:sodipodi="http://sodipodi.sourceforge.net/DTD/sodipodi-0.dtd"
   xmlns="http://www.w3.org/2000/svg"
   xmlns:svg="http://www.w3.org/2000/svg">
  <defs
     id="defs14" />
  <sodipodi:namedview
     id="namedview12"
     pagecolor="#ffffff"
     bordercolor="#666666"
     borderopacity="1.0"
     inkscape:pageshadow="2"
     inkscape:pageopacity="0.0"
     inkscape:pagecheckerboard="0"
     showgrid="false"
     width="99px"
     inkscape:zoom="8.27"
     inkscape:cx="37.122128"
     inkscape:cy="47.823458"
     inkscape:window-width="1920"
     inkscape:window-height="1000"
     inkscape:window-x="0"
     inkscape:window-y="0"
     inkscape:window-maximized="1"
     inkscape:current-layer="svg10" />
  <path
     d="m 35.89583,2.7909566 c 5.619568,3.380005 9.624415,8.2823074 11.613226,14.4909954 0.888244,8.499926 0.383712,15.666635 -4.039383,23.085221 2.871832,2.270516 2.871832,2.270516 6.25631,2.187763 5.432449,1.164146 8.015343,4.084768 11.794683,7.974753 0.682119,0.654682 1.364238,1.309364 2.067028,1.983885 3.238697,3.257788 4.951718,5.273014 6.177415,9.770444 -0.03945,3.175786 -0.03945,3.175786 -1.554215,5.68505 -2.524615,1.505557 -2.524615,1.505557 -5.71983,1.544764 -5.346809,-1.439514 -8.045131,-4.302506 -11.82624,-8.194312 -0.68212,-0.654683 -1.364239,-1.309364 -2.067028,-1.983886 -4.222004,-4.246889 -5.671985,-6.83563 -6.137969,-12.94623 -1.42986,-1.929955 -1.42986,-1.929955 -3.029537,-3.011115 -1.041404,0.662445 -2.082807,1.324891 -3.155768,2.00741 C 29.669945,48.656227 21.77688,48.605912 14.720626,46.730508 8.9313566,44.174374 4.720163,39.643383 1.923987,34.046966 -0.16562934,27.514141 -0.22884568,19.079051 2.6340348,12.765278 9.4874612,1.5089758 23.692082,-2.6755486 35.89583,2.7909566 Z M 7.7463789,11.824305 C 3.1399735,17.320827 3.4572943,23.459824 4.085688,30.33012 c 1.7381163,5.682173 6.307697,9.749139 11.108304,13.048169 5.551195,1.839147 12.084291,2.18533 17.597351,0.05881 C 38.139579,40.243669 42.05045,36.08573 44.479518,30.330123 45.421265,23.43313 45.153262,17.653338 40.945058,11.949771 37.142008,7.697351 33.572897,4.5201949 27.643496,3.9946187 18.601464,3.7779259 13.915269,4.9988059 7.7463789,11.824305 Z M 47.509056,45.385699 c -0.666498,0.662446 -1.332997,1.324891 -2.019692,2.007411 0.333249,0.993668 0.666498,1.987336 1.009846,3.011116 1.332996,-1.656114 2.665993,-3.312228 4.039383,-5.018527 -0.999747,0 -1.999495,0 -3.029537,0 z m 4.039383,3.011116 c -0.999748,1.490502 -0.999748,1.490502 -2.019692,3.011116 0.498572,0.483895 0.997144,0.967791 1.510824,1.46635 0.646972,0.633981 1.293944,1.267963 1.960521,1.921155 0.644369,0.628805 1.288737,1.257612 1.952632,1.905471 1.644944,1.732961 1.644944,1.732961 2.654789,3.740371 0.666499,0 1.332997,0 2.019692,0 -0.333249,0.993668 -0.666498,1.987336 -1.009846,3.011116 1.240183,1.651654 1.240183,1.651654 3.029537,3.011116 2.184289,-0.228421 2.184289,-0.228421 4.039383,-1.003706 0.756006,-1.836605 0.756006,-1.836605 1.009846,-4.014821 -1.028476,-1.746396 -1.028476,-1.746396 -2.702126,-3.246359 -0.586441,-0.575758 -1.172881,-1.151517 -1.777092,-1.744722 -0.625493,-0.588697 -1.250986,-1.177393 -1.895433,-1.783929 -0.613777,-0.604223 -1.227555,-1.208445 -1.859931,-1.830978 -2.958669,-3.301187 -2.958669,-3.301187 -6.913104,-4.44218 z"
     fill="#000000"
     id="path2"
     style="stroke-width:1.00677" />
  <path
     d="m 32.929172,6.9384043 c 4.8404,2.6096073 8.066506,6.0901447 9.796875,11.2812507 0.664757,7.453994 0.644336,12.974915 -4,19 -5.399953,5.004834 -9.849218,5.350189 -16.984375,5.28125 C 16.1989,41.983963 13.139786,39.745004 9.3510468,35.657155 5.7916748,30.318098 6.1476588,24.421257 6.7260468,18.219655 8.3252518,13.317744 11.473419,10.05474 15.726047,7.2196543 21.080103,5.434969 27.522449,5.1745088 32.929172,6.9384043 Z M 10.288547,15.344655 c -2.5003282,5.043952 -2.6144612,10.60085 -0.9023442,15.929687 1.8849672,3.802575 4.4825822,6.40019 8.2851562,8.285157 5.328838,1.712117 10.885736,1.597984 15.929688,-0.902344 4.365639,-3.405199 6.658759,-6.44779 7.503906,-11.867188 0.284269,-6.03383 -0.658197,-9.800172 -4.378906,-14.570312 C 31.955906,8.4989446 28.189564,7.5564794 22.155734,7.840748 16.736337,8.6858956 13.693746,10.979015 10.288547,15.344655 Z"
     fill="#000000"
     id="path4" />
  <path
     d="m 29.726047,16.219655 c 3.239396,1.735391 5.423211,3.423211 8,6 -0.0625,2.375 -0.0625,2.375 -1,5 -4.864249,4.490075 -7.9952,5.33963 -14.453125,5.292969 -4.606093,-0.529842 -7.381153,-3.127247 -10.546875,-6.292969 0.0625,-2.375 0.0625,-2.375 1,-5 5.463075,-5.042839 9.71478,-5.838024 17,-5 z m -9.875,3.125 c -1.653545,2.755908 -1.518656,4.725754 -1.125,7.875 1,2 1,2 3,3 3.149245,0.393656 5.119091,0.528545 7.875,-1.125 1.653545,-2.755909 1.518655,-4.725755 1.125,-7.875 -1,-2 -1,-2 -3,-3 -3.149246,-0.393656 -5.119092,-0.528546 -7.875,1.125 z m -4.125,1.875 c -0.66,1.32 -1.32,2.64 -2,4 1.485,0.99 1.485,0.99 3,2 0,-1.98 0,-3.96 0,-6 -0.33,0 -0.66,0 -1,0 z m 17,0 c 0,1.98 0,3.96 0,6 0.99,-0.66 1.98,-1.32 3,-2 -0.66,-1.32 -1.32,-2.64 -2,-4 -0.33,0 -0.66,0 -1,0 z"
     fill="#000000"
     id="path6" />
  <path
     d="m 24.726047,20.094655 c 3,0.125 3,0.125 4,1.125 0.125,3 0.125,3 0,6 -1,1 -1,1 -4,1.125 -3,-0.125 -3,-0.125 -4,-1.125 -0.125,-3 -0.125,-3 0,-6 1,-1 1,-1 4,-1.125 z"
     fill="#000000"
     id="path8" />
</svg>
