<?xml version="1.0" encoding="UTF-8" standalone="no"?>
<svg
   version="1.1"
   width="150"
   height="125"
   id="svg14"
   sodipodi:docname="dokument.svg"
   inkscape:version="1.1.2 (0a00cf5339, 2022-02-04)"
   xmlns:inkscape="http://www.inkscape.org/namespaces/inkscape"
   xmlns:sodipodi="http://sodipodi.sourceforge.net/DTD/sodipodi-0.dtd"
   xmlns="http://www.w3.org/2000/svg"
   xmlns:svg="http://www.w3.org/2000/svg">
  <defs
     id="defs18" />
  <sodipodi:namedview
     id="namedview16"
     pagecolor="#ffffff"
     bordercolor="#666666"
     borderopacity="1.0"
     inkscape:pageshadow="2"
     inkscape:pageopacity="0.0"
     inkscape:pagecheckerboard="0"
     showgrid="false"
     width="200px"
     inkscape:zoom="2.0675"
     inkscape:cx="24.667473"
     inkscape:cy="67.956469"
     inkscape:window-width="1920"
     inkscape:window-height="1000"
     inkscape:window-x="0"
     inkscape:window-y="0"
     inkscape:window-maximized="1"
     inkscape:current-layer="svg14" />
  <path
     d="m 40.992373,1.1315008 c 7.500219,3.467102 12.028835,6.4895988 14.880313,14.0030082 1.227623,0 2.455251,0 3.72008,0 0.38363,-1.01084 0.767263,-2.021684 1.162523,-3.063158 3.785602,-5.8294028 7.166528,-7.9114205 13.717788,-10.9398502 9.842561,-1.37626506 17.806208,-1.18074848 26.854313,2.8443613 8.6885,7.5779789 12.65035,13.0468829 13.13653,24.2864679 -0.35237,9.735663 -2.8965,14.978359 -10.23022,21.879698 1.53454,0.830336 3.06907,1.660671 4.6501,2.516166 5.2839,5.096681 5.28797,6.034697 5.23136,12.799624 -0.1489,2.482441 -0.32837,4.964119 -0.58126,7.439097 11.17118,-2.056803 18.44381,-6.737182 27.46464,-13.196195 4.15603,-2.557188 4.15603,-2.557188 9.73614,-2.557188 0,20.216844 0,40.43368 0,61.263158 -10.38257,-1.95409 -15.0459,-5.32618 -23.25048,-11.21334 -4.7968,-2.87767 -8.35474,-3.86303 -13.9503,-4.54004 0.0971,1.61441 0.0971,1.61441 0.19618,3.26144 0.0503,1.41473 0.10072,2.82945 0.15258,4.28705 0.0971,2.10179 0.0971,2.10179 0.19617,4.24603 -0.54493,3.95886 -0.54493,3.95886 -2.75872,6.78939 -4.54266,3.26646 -7.44565,3.08653 -13.131528,3.10007 -1.992499,0.0167 -3.984991,0.0331 -6.037865,0.0502 -3.226111,-0.0159 -3.226111,-0.0159 -6.517403,-0.0322 -2.208287,0.005 -4.416574,0.0101 -6.691783,0.0153 -4.671903,0.004 -9.343837,-0.006 -14.015683,-0.0281 -7.164728,-0.0281 -14.327506,-2.8e-4 -21.492171,0.0333 -4.533852,-0.004 -9.067699,-0.0101 -13.601538,-0.0206 -2.150741,0.0107 -4.301485,0.0212 -6.517403,0.0322 -1.992496,-0.0167 -3.98499,-0.0331 -6.037865,-0.0502 -1.755121,-0.005 -3.510242,-0.008 -5.318547,-0.0127 C 7.5116664,123.6577 7.5116664,123.6577 4.1600983,121.37147 0.40456292,116.37505 1.0613687,110.64346 1.0596555,104.7386 1.0384275,102.73495 1.0384275,102.73495 1.0167455,100.69083 0.9966411,97.867473 0.9913567,95.043995 0.9996367,92.220594 1.0014527,87.904818 0.9240437,83.594506 0.84160878,79.279518 0.83193478,76.5343 0.82690228,73.789079 0.82709878,71.043856 0.79660455,69.756531 0.76609985,68.469084 0.73468376,67.142625 0.83339595,60.247973 1.3305902,57.699923 6.6506167,52.774003 8.1624268,51.905452 9.6741813,51.0369 11.231745,50.142028 10.042483,48.770173 8.8532194,47.398315 7.6279187,45.984886 0.40636723,37.335702 0.78586919,29.371036 1.9315491,18.635262 9.9723988,2.6286079 23.287975,-1.3440696 40.992373,1.1315008 Z M 11.231744,13.384133 c -2.6261998,4.558633 -2.6261998,4.558633 -3.7200776,8.751879 4.4162776,0.43882 4.4162776,0.43882 9.3001956,0 0.848787,-0.86192 1.697576,-1.723845 2.572085,-2.611885 3.952426,-3.467848 6.173515,-3.293474 11.494464,-3.186235 1.4602,0.0068 2.920404,0.01355 4.424859,0.02056 3.829062,0.526479 3.829062,0.526479 7.54914,4.027231 0.494075,3.664851 0.494075,3.664851 0.465011,7.876692 0.0095,1.389907 0.01916,2.779814 0.02906,4.211843 -0.494075,3.664847 -0.494075,3.664847 -4.214151,7.1656 -3.829065,0.526481 -3.829065,0.526481 -8.253924,0.546992 -2.183111,0.04401 -2.183111,0.04401 -4.410327,0.08888 -4.992698,-0.778867 -6.293394,-2.472142 -9.65622,-5.887006 -4.883918,-0.438816 -4.883918,-0.438816 -9.3001959,0 2.5161009,5.607846 4.6468129,9.727306 9.5327019,13.784213 9.309787,3.428179 18.182457,3.487212 27.435579,-0.109404 5.790619,-4.647854 9.03781,-8.415604 10.063105,-15.685002 C 54.879717,24.086375 54.359735,18.173224 48.432541,11.633799 41.563887,6.1206479 35.253943,5.4659071 26.518955,5.7673056 19.96014,6.7452826 16.103632,9.2468154 11.231756,13.384175 Z m 52.429855,1.969174 c -3.82585,8.71649 -3.82585,17.101556 0,25.818045 4.939054,5.449216 8.942863,8.50496 16.667694,9.469807 8.811631,0.316811 15.095248,-0.172516 22.044367,-5.750259 5.9272,-6.539421 6.44718,-12.452573 6.11053,-20.744687 C 107.45888,16.876813 104.2117,13.109063 98.421081,8.4612011 85.312527,3.3660177 73.005918,5.0438014 63.661599,15.353307 Z m -37.549541,3.281955 c -0.613812,1.155249 -1.227624,2.310496 -1.860037,3.50075 5.524315,0.866438 5.524315,0.866438 11.160235,1.750377 0,2.888122 0,5.776241 0,8.751879 -3.68288,0.577625 -7.365756,1.155249 -11.160235,1.750376 0.613812,1.15525 1.227623,2.310496 1.860037,3.500753 5.424844,0.291981 5.424844,0.291981 11.160235,0 4.426789,-3.401543 4.426789,-3.401543 4.185089,-9.627067 0.2417,-6.225522 0.2417,-6.225522 -4.185089,-9.627068 -5.735391,-0.291981 -5.735391,-0.291981 -11.160235,0 z m -9.300196,5.251127 c 0,2.888122 0,5.776241 0,8.751879 8.650167,0.471422 8.650167,0.471422 16.740352,-1.750374 0,-1.732873 0,-3.465744 0,-5.251129 -5.499473,-2.58762 -10.680896,-1.855969 -16.740352,-1.750376 z m -9.3001956,1.750376 c 0,1.732873 0,3.465745 0,5.251129 1.8414379,0 3.6828786,0 5.5801186,0 0,-1.732873 0,-3.465744 0,-5.251129 -1.841441,0 -3.6828782,0 -5.5801186,0 z M 55.872686,41.390149 c -2.584301,3.433325 -5.070545,6.934405 -7.440156,10.502256 6.138127,0 12.276258,0 18.600391,0 -2.369615,-3.567851 -4.855854,-7.068931 -7.440155,-10.502256 -1.227628,0 -2.455253,0 -3.72008,0 z M 7.5116664,58.893909 C 4.23904,68.132953 5.3081914,77.99672 5.3028709,87.665713 c -0.022803,2.171731 -0.045558,4.343462 -0.069024,6.581002 -0.00356,2.085994 -0.00736,4.17198 -0.010928,6.321175 -0.0076,1.90986 -0.015194,3.81971 -0.02304,5.78744 0.4510046,5.04051 1.1027115,7.92605 4.1719182,12.05136 5.2516199,1.64733 8.5099039,1.98021 13.9498399,2.00464 2.53286,0.0167 2.53286,0.0167 5.116896,0.0338 2.729127,0.003 2.729127,0.003 5.513392,0.006 2.810387,0.009 2.810387,0.009 5.677551,0.0175 3.963539,0.009 7.927093,0.0129 11.890645,0.0127 6.066111,0.004 12.131592,0.0357 18.197594,0.0688 3.849651,0.005 7.699297,0.008 11.548954,0.0104 2.723481,0.0189 2.723481,0.0189 5.501986,0.0381 1.694433,-0.005 3.388873,-0.011 5.134659,-0.0163 2.229964,0.004 2.229964,0.004 4.504976,0.008 4.68108,-0.49348 7.61907,-1.4906 11.54566,-3.93356 3.27262,-9.23905 2.20347,-19.102811 2.2088,-28.771805 0.0341,-3.257596 0.0341,-3.257596 0.069,-6.581002 0.004,-2.085993 0.008,-4.17198 0.011,-6.321184 0.008,-1.909856 0.0152,-3.819706 0.0232,-5.787436 -0.45108,-5.040509 -1.10279,-7.926054 -4.172,-12.051358 -5.25162,-1.647331 -8.509907,-1.980201 -13.949838,-2.004641 -2.532866,-0.01671 -2.532866,-0.01671 -5.116896,-0.03382 -2.729127,-0.003 -2.729127,-0.003 -5.513391,-0.0061 -1.873589,-0.0058 -3.747186,-0.01177 -5.67755,-0.0175 -3.963543,-0.0089 -7.927096,-0.01287 -11.890648,-0.01272 -6.066111,-0.0039 -12.131593,-0.03562 -18.197592,-0.06881 -3.84965,-0.0052 -7.699304,-0.0085 -11.548956,-0.0104 -1.815652,-0.01273 -3.631305,-0.02515 -5.501982,-0.0381 -1.694438,0.0054 -3.388877,0.01094 -5.134664,0.01631 -1.486642,-0.0023 -2.973287,-0.0049 -4.504979,-0.0075 -4.681002,0.493479 -7.618991,1.490592 -11.5455765,3.933556 z M 130.70294,72.206339 c -5.2145,5.267997 -5.94044,8.434869 -6.47381,15.568771 0.53337,7.133902 1.25931,10.300781 6.47381,15.56878 7.50281,5.52604 7.50281,5.52604 16.31166,8.06129 0,-15.595847 0,-31.191689 0,-47.260143 -5.79172,0 -11.82599,5.070511 -16.31166,8.061302 z m -17.16904,4.191327 c 0,7.509115 0,15.01823 0,22.754887 3.68288,0 7.36575,0 11.16024,0 0,-7.509115 0,-15.018222 0,-22.754887 -3.68289,0 -7.36576,0 -11.16024,0 z"
     fill="#000000"
     id="path2"
     style="stroke-width:1.80437" />
  <path
     d="m 18.425321,60.445572 c 2.328021,0.0092 4.656048,0.01849 7.054616,0.02778 1.853901,0.0036 1.853901,0.0036 3.745253,0.0075 3.961231,0.01 7.922266,0.03179 11.883434,0.05403 2.67986,0.0088 5.359721,0.01671 8.039586,0.02395 6.581645,0.01928 13.16318,0.04957 19.74475,0.08546 0,0.577622 0,1.155246 0,1.750377 -17.800576,0.577621 -35.601151,1.155246 -53.941137,1.750374 0,15.595842 0,31.1917 0,47.260147 28.235394,0 56.47079,0 85.561807,0 0.61381,-5.77624 1.22762,-11.552482 1.86003,-17.503762 0.61382,0 1.22764,0 1.86004,0 0.05,3.172419 0.0862,6.345032 0.11624,9.517672 0.0216,1.76671 0.0431,3.53343 0.0654,5.35369 -0.18167,4.38277 -0.18167,4.38277 -2.04169,6.13315 -2.787642,0.17208 -5.583812,0.22402 -8.377438,0.22649 -2.672023,0.008 -2.672023,0.008 -5.398024,0.0167 -1.937491,-0.004 -3.874989,-0.007 -5.871204,-0.0107 -1.97466,0.002 -3.94932,0.004 -5.983817,0.005 -4.184333,0.002 -8.368669,-0.002 -12.552996,-0.009 -6.429689,-0.009 -12.859142,-10e-5 -19.288823,0.011 -4.054306,-0.002 -8.10861,-0.004 -12.162911,-0.007 -1.937499,0.004 -3.874996,0.007 -5.871206,0.0107 -1.781346,-0.005 -3.562691,-0.011 -5.398018,-0.0167 -1.576343,-0.002 -3.152685,-0.003 -4.776796,-0.005 -3.600642,-0.2223 -3.600642,-0.2223 -5.460681,-1.97268 -0.186055,-3.73448 -0.243312,-7.47476 -0.247037,-11.21334 -0.0023,-2.276656 -0.0048,-4.553303 -0.0073,-6.898945 0.0038,-1.191636 0.0078,-2.383265 0.01187,-3.611004 0.01,-3.641907 10e-5,-7.283435 -0.01187,-10.925319 0.0023,-2.276654 0.0048,-4.553308 0.0073,-6.898943 0.0021,-2.106298 0.0043,-4.212595 0.0064,-6.382719 0.329029,-6.604082 0.386517,-6.517156 7.434245,-6.779735 z"
     fill="#000000"
     id="path4"
     style="stroke-width:1.80437" />
  <path
     d="m 84.703294,14.478118 c 1.438622,-0.01355 2.877244,-0.02708 4.359469,-0.04102 5.025975,0.87396 6.653373,2.03685 9.590825,5.948546 0.741109,3.774248 0.741109,3.774248 0.697514,7.876692 0.01453,1.353805 0.02876,2.707612 0.04359,4.102443 -0.928711,4.72966 -2.164458,6.26111 -6.321225,9.025374 -4.010709,0.69742 -4.010709,0.69742 -8.370178,0.656393 -1.438623,0.01355 -2.877245,0.02708 -4.359462,0.04102 -5.025983,-0.873962 -6.653383,-2.036851 -9.590831,-5.948547 -0.741109,-3.774248 -0.741109,-3.774248 -0.697514,-7.876691 -0.01451,-1.353807 -0.02876,-2.707612 -0.04357,-4.102445 1.57952,-8.044029 6.575543,-9.758141 14.691401,-9.681768 z m -10.230217,7.657894 c -0.620012,6.126318 -0.620012,6.126318 0,12.252632 3.614657,4.165798 3.614657,4.165798 10.230217,3.938348 6.61556,0.22745 6.61556,0.22745 10.230212,-3.938348 0.620019,-6.126314 0.620019,-6.126314 0,-12.252632 -3.614652,-4.165794 -3.614652,-4.165794 -10.230212,-3.938343 -6.61556,-0.227451 -6.61556,-0.227451 -10.230217,3.938343 z"
     fill="#000000"
     id="path6"
     style="stroke-width:1.80437" />
  <path
     d="m 84.703294,21.917218 c 4.650095,0.218794 4.650095,0.218794 6.510137,1.969171 0.232514,4.375941 0.232514,4.375941 0,8.751879 -1.860042,1.750376 -1.860042,1.750376 -6.510137,1.969176 -4.650096,-0.2188 -4.650096,-0.2188 -6.510137,-1.969176 -0.232515,-4.375938 -0.232515,-4.375938 0,-8.751879 1.860041,-1.750377 1.860041,-1.750377 6.510137,-1.969171 z m -2.790062,3.719547 c 0,1.732873 0,3.465745 0,5.251129 1.841438,0 3.682883,0 5.580124,0 0,-1.732873 0,-3.465744 0,-5.251129 -1.841446,0 -3.682883,0 -5.580124,0 z"
     fill="#000000"
     id="path8"
     style="stroke-width:1.80437" />
  <path
     d="m 102.37366,81.648791 c 1.86004,7.001505 1.86004,7.001505 1.86004,7.001505 z"
     fill="#000000"
     id="path10"
     style="stroke-width:1.80437" />
  <path
     d=""
     fill="#000000"
     id="path12" />
</svg>
