<?xml version="1.0" encoding="UTF-8" standalone="no"?>
<svg
   version="1.1"
   width="150"
   height="150"
   id="svg10"
   sodipodi:docname="fanatasy.svg"
   inkscape:version="1.1.2 (0a00cf5339, 2022-02-04)"
   xmlns:inkscape="http://www.inkscape.org/namespaces/inkscape"
   xmlns:sodipodi="http://sodipodi.sourceforge.net/DTD/sodipodi-0.dtd"
   xmlns="http://www.w3.org/2000/svg"
   xmlns:svg="http://www.w3.org/2000/svg">
  <defs
     id="defs14" />
  <sodipodi:namedview
     id="namedview12"
     pagecolor="#ffffff"
     bordercolor="#666666"
     borderopacity="1.0"
     inkscape:pageshadow="2"
     inkscape:pageopacity="0.0"
     inkscape:pagecheckerboard="0"
     showgrid="false"
     inkscape:zoom="1.03375"
     inkscape:cx="-121.88634"
     inkscape:cy="-16.928658"
     inkscape:window-width="1920"
     inkscape:window-height="1000"
     inkscape:window-x="0"
     inkscape:window-y="0"
     inkscape:window-maximized="1"
     inkscape:current-layer="svg10"
     width="200px" />
  <path
     d="m 106.91766,38.671093 c 1.61633,0.320141 3.23266,0.640285 4.89796,0.97013 0.86479,4.926445 0.86479,4.926445 0,11.64157 -3.9879,5.411938 -8.87411,9.780138 -13.836738,14.309426 -2.707053,2.573845 -5.411172,5.150723 -8.112246,7.730727 -1.294324,1.221796 -2.588647,2.443593 -3.922191,3.702414 -11.55035,10.891186 -11.55035,10.891186 -19.434947,24.34042 -1.714288,4.24433 -1.714288,4.24433 -5.709187,6.44986 -8.443217,5.26189 -14.972063,12.13793 -21.964285,19.13734 -1.434489,1.40563 -2.868978,2.81126 -4.346937,4.25948 -1.363777,1.3556 -2.727552,2.71121 -4.132654,4.10789 -1.240656,1.23305 -2.481313,2.46611 -3.759567,3.73652 -3.375562,3.48575 -3.375562,3.48575 -4.903699,9.23899 -6.929192,0.62383 -10.572167,0.80156 -16.4081623,-3.15293 -3.183673,-4.60812 -3.183673,-4.60812 -4.28571402,-10.55017 0.36367432,-1.88085 0.72734622,-3.76168 1.10204102,-5.69952 1.9585337,-1.13676 1.9585337,-1.13676 3.9566333,-2.29648 8.529166,-5.14778 15.004798,-12.04144 22.002551,-19.04639 1.434489,-1.40563 2.868979,-2.81126 4.346939,-4.25948 1.363774,-1.35561 2.727548,-2.71122 4.132653,-4.107902 1.240655,-1.233052 2.481313,-2.466103 3.759564,-3.736519 3.375565,-3.485746 3.375565,-3.485746 4.9037,-9.238978 1.373878,-0.480211 2.747755,-0.960429 4.163266,-1.455198 6.874169,-2.959899 10.536151,-6.964118 15.658164,-12.278212 4.852448,-4.905283 10.082566,-9.285617 15.359695,-13.73341 4.303644,-3.846463 8.150584,-7.972594 12.084181,-12.187268 6.677405,-6.782808 6.677405,-6.782808 14.44898,-7.88231 z M 85.162872,61.715485 c -1.210659,1.219295 -2.421326,2.438593 -3.66868,3.694834 -1.31327,1.313088 -2.626532,2.626173 -3.979595,3.979051 -2.053242,2.082182 -2.053242,2.082182 -4.14796,4.206427 -1.383977,1.388121 -2.767957,2.776241 -4.193876,4.206424 -3.427262,3.440027 -6.845074,6.888762 -10.2551,10.345534 1.293061,1.280572 2.586119,2.561144 3.918364,3.88052 4.913728,-4.754096 9.805731,-9.529543 14.693877,-14.309424 1.401661,-1.355604 2.803315,-2.711211 4.247453,-4.107897 1.32589,-1.300582 2.651781,-2.601164 4.017857,-3.941154 1.231181,-1.198976 2.462371,-2.397948 3.730864,-3.633255 3.123089,-2.919315 3.123089,-2.919315 2.697704,-6.992708 -4.113117,-0.42127 -4.113117,-0.42127 -7.060908,2.671648 z M 42.060836,102.46097 c -1.210668,1.21929 -2.421333,2.43859 -3.668686,3.69484 -1.313264,1.31309 -2.626532,2.62617 -3.979591,3.97905 -2.053241,2.08218 -2.053241,2.08218 -4.14796,4.20642 -1.38398,1.38812 -2.76796,2.77624 -4.193877,4.20643 -3.427262,3.44002 -6.845076,6.88876 -10.255104,10.34553 0.646532,1.92086 1.293062,3.84172 1.959185,5.82078 5.744918,-2.56348 9.76976,-5.3287 14.173468,-9.77709 1.123854,-1.12551 2.247705,-2.25101 3.405613,-3.41062 1.723662,-1.75578 1.723662,-1.75578 3.482142,-3.54704 1.179414,-1.18552 2.358825,-2.37106 3.573983,-3.59251 2.899265,-2.91684 5.786305,-5.8456 8.670915,-8.77665 -0.64653,-1.92086 -1.293059,-3.84172 -1.959182,-5.820786 -4.113118,-0.421276 -4.113118,-0.421276 -7.060906,2.671646 z"
     fill="#000000"
     id="path2"
     style="stroke-width:1.9497" />
  <path
     d="m 102.0197,0.836 c 1.93959,0 3.87918,0 5.87755,0 0.99164,2.4610182 1.96837,4.9279361 2.93878,7.3972454 0.54551,1.3731143 1.09101,2.7462286 1.65306,4.1609516 1.28571,3.963892 1.28571,3.963892 1.28571,9.784675 1.51026,-0.700314 3.02051,-1.400626 4.57653,-2.12216 1.96485,-0.900404 3.92969,-1.800805 5.95408,-2.728492 1.95475,-0.900401 3.90949,-1.800805 5.92347,-2.728493 5.09694,-2.12216 5.09694,-2.12216 9.01531,-2.12216 -0.89037,2.751124 -1.7902,5.499244 -2.69388,8.246108 -0.75008,2.29603 -0.75008,2.29603 -1.5153,4.63844 -1.57382,4.318351 -3.42599,8.282375 -5.58674,12.338847 1.37387,0.24011 2.74775,0.480213 4.16326,0.727598 5.97858,1.287136 11.61485,3.09883 17.38776,5.093188 0,1.920856 0,3.841718 0,5.820783 -2.48502,0.982068 -4.97599,1.949363 -7.46939,2.910389 -1.3865,0.540243 -2.77301,1.080485 -4.20153,1.637099 -4.00255,1.273293 -4.00255,1.273293 -9.8801,1.273293 1.06071,2.243506 1.06071,2.243506 2.14286,4.532328 0.90918,1.945872 1.81836,3.891741 2.7551,5.896579 0.90918,1.935867 1.81836,3.871729 2.75511,5.866258 2.14285,5.047709 2.14285,5.047709 2.14285,8.928229 -2.77795,-0.881771 -5.55288,-1.772905 -8.32653,-2.667855 -1.54562,-0.495222 -3.09123,-0.990443 -4.68367,-1.500675 -4.36047,-1.558606 -8.36316,-3.392889 -12.45919,-5.532772 -0.24245,1.360608 -0.4849,2.721215 -0.73469,4.123055 -1.29969,5.920827 -3.12906,11.50266 -5.14286,17.219816 -1.93959,0 -3.87918,0 -5.87755,0 -0.99592,-2.418793 -1.97155,-4.845789 -2.938778,-7.275982 -0.545509,-1.350597 -1.091018,-2.701202 -1.65306,-4.09273 -1.285714,-4.153377 -1.285714,-4.153377 -1.285714,-11.91442 1.293065,0 2.586122,0 3.918372,0 1.29306,3.201432 2.58612,6.402863 3.91836,9.701307 4.35311,-4.311066 5.73256,-7.925633 7.83674,-13.581829 5.81877,1.920856 11.63755,3.841717 17.63265,5.820783 -1.93959,-5.762576 -3.87918,-11.525152 -5.87755,-17.462353 4.52571,-1.920857 9.05143,-3.841714 13.71428,-5.820783 -4.3531,-4.311061 -8.00292,-5.677182 -13.71428,-7.761045 2.93877,-8.731175 2.93877,-8.731175 5.87755,-17.462351 -5.81878,1.920861 -11.63755,3.841717 -17.63265,5.820783 -1.93959,-4.482001 -3.87919,-8.964004 -5.87756,-13.581825 -4.3531,4.31106 -5.73254,7.925629 -7.836724,13.581825 -5.877556,-1.94026 -11.755104,-3.88052 -17.632652,-5.820783 1.939585,5.762578 3.879178,11.525151 5.877548,17.462351 -4.525715,1.92086 -9.051429,3.841719 -13.714287,5.820784 3.772341,4.31438 3.772341,4.31438 9.795919,5.820786 0,1.280571 0,2.561142 0,3.880519 -8.21818,-1.162685 -15.693058,-3.055908 -23.510203,-5.820781 0,-1.920859 0,-3.841719 0,-5.820783 2.485016,-0.982069 4.975994,-1.949363 7.469387,-2.910394 1.386504,-0.54024 2.773011,-1.080482 4.201529,-1.637095 4.002553,-1.273297 4.002553,-1.273297 9.880107,-1.273297 -0.707145,-1.495667 -1.41429,-2.991338 -2.142862,-4.532328 -0.909184,-1.94587 -1.818368,-3.89174 -2.755104,-5.896577 -0.909181,-1.935863 -1.818365,-3.871729 -2.755099,-5.866257 -2.142858,-5.047711 -2.142858,-5.047711 -2.142858,-8.928233 2.777955,0.881769 5.552873,1.772913 8.326528,2.667859 1.545617,0.495222 3.091227,0.990444 4.683679,1.500671 4.360467,1.558608 8.363148,3.392893 12.45918,5.532775 0.24245,-1.360608 0.4849,-2.721216 0.734694,-4.123055 C 98.176533,12.134987 100.00589,6.5531561 102.0197,0.836 Z"
     fill="#000000"
     id="path4"
     style="stroke-width:1.9497" />
  <path
     d="m 127.48908,111.43089 c 1.9396,0 3.87919,0 5.87756,0 0.76775,1.84082 1.53551,3.68164 2.32653,5.57825 3.93882,6.72547 5.95493,7.96529 13.34693,9.94384 0,1.92086 0,3.84172 0,5.82079 -1.85877,0.76033 -3.71755,1.52067 -5.63265,2.30406 -6.79106,3.90077 -8.04298,5.89741 -10.04081,13.21803 -1.93959,0 -3.87919,0 -5.87756,0 -1.15163,-2.76124 -1.15163,-2.76124 -2.32652,-5.57825 -3.93882,-6.72548 -5.95493,-7.9653 -13.34694,-9.94384 0,-1.92087 0,-3.84172 0,-5.82079 2.78816,-1.14051 2.78816,-1.14051 5.63265,-2.30406 6.79107,-3.90078 8.04298,-5.89742 10.04081,-13.21803 z m 1.95919,5.82079 c -0.64653,3.20143 -1.29306,6.40286 -1.95919,9.7013 -3.23265,0.64029 -6.4653,1.28057 -9.79591,1.94026 5.24361,4.23928 5.24361,4.23928 9.79591,3.88053 0.64654,3.20143 1.29307,6.40286 1.95919,9.7013 4.28062,-5.19297 4.28062,-5.19297 3.91837,-9.7013 3.23265,-0.64029 6.46531,-1.28058 9.79592,-1.94027 -5.24361,-4.23928 -5.24361,-4.23928 -9.79592,-3.88052 -0.64654,-3.20143 -1.29306,-6.40286 -1.95919,-9.7013 -0.64653,0 -1.29305,0 -1.95918,0 z"
     fill="#000000"
     id="path6"
     style="stroke-width:1.9497" />
  <path
     d="m 96.142148,97.84906 c 1.939593,0 3.879182,0 5.877552,0 0.64653,2.56114 1.29306,5.12229 1.95918,7.76105 2.58613,0.64028 5.17225,1.28057 7.83674,1.94026 0,1.92085 0,3.84172 0,5.82078 -2.58612,0.64029 -5.17225,1.28057 -7.83674,1.94026 -0.64652,2.56115 -1.29306,5.12229 -1.95918,7.76104 -1.93959,0 -3.879182,0 -5.877552,0 -0.646528,-2.56114 -1.293064,-5.12228 -1.95918,-7.76104 -2.586129,-0.64028 -5.172251,-1.28057 -7.836736,-1.94026 0,-1.92086 0,-3.84172 0,-5.82078 2.586121,-0.64029 5.172243,-1.28058 7.836736,-1.94026 0.646528,-2.56115 1.293057,-5.12229 1.95918,-7.76105 z m 1.959188,5.82078 c 0,1.92086 0,3.84172 0,5.82079 -1.939601,0.64029 -3.879186,1.28057 -5.877556,1.94026 1.939593,0 3.879186,0 5.877556,0 0.646528,1.92086 1.293057,3.84172 1.959184,5.82079 0,-1.92087 0,-3.84173 0,-5.82079 1.93959,-0.64029 3.87917,-1.28057 5.87754,-1.94026 -1.93958,0 -3.87917,0 -5.87754,0 -0.64654,-1.92086 -1.293068,-3.84172 -1.959184,-5.82079 z"
     fill="#000000"
     id="path8"
     style="stroke-width:1.9497" />
</svg>
