<?xml version="1.0" encoding="UTF-8" standalone="no"?>
<svg
   version="1.1"
   width="150"
   height="150"
   id="svg14"
   sodipodi:docname="horror.svg"
   inkscape:version="1.1.2 (0a00cf5339, 2022-02-04)"
   xmlns:inkscape="http://www.inkscape.org/namespaces/inkscape"
   xmlns:sodipodi="http://sodipodi.sourceforge.net/DTD/sodipodi-0.dtd"
   xmlns="http://www.w3.org/2000/svg"
   xmlns:svg="http://www.w3.org/2000/svg">
  <defs
     id="defs18" />
  <sodipodi:namedview
     id="namedview16"
     pagecolor="#ffffff"
     bordercolor="#666666"
     borderopacity="1.0"
     inkscape:pageshadow="2"
     inkscape:pageopacity="0.0"
     inkscape:pagecheckerboard="0"
     showgrid="false"
     width="200px"
     inkscape:zoom="1.03375"
     inkscape:cx="-133.49456"
     inkscape:cy="11.124547"
     inkscape:window-width="1920"
     inkscape:window-height="1000"
     inkscape:window-x="0"
     inkscape:window-y="0"
     inkscape:window-maximized="1"
     inkscape:current-layer="svg14" />
  <path
     d="m 137.32913,0.07299244 c 7.1713,17.98643756 6.83202,37.83328456 -1.02439,55.60491556 -14.32877,25.564878 -35.7361,46.586662 -57.251719,66.803032 -7.15121,-3.01497 -12.73567,-7.10612 -18.731605,-11.84594 -0.499022,1.74335 -0.99804,3.48669 -1.512185,5.28286 -2.8987,7.17794 -6.253214,11.21201 -11.756037,16.80487 -1.604378,1.65681 -3.208762,3.31362 -4.861761,5.02064 C 31.252396,148.03165 31.252396,148.03165 22.207803,148.5173 11.452029,145.2316 6.5960261,138.7728 -0.03597752,130.37822 2.9735229,120.92835 8.9316393,115.10763 16.154485,108.3305 c 1.228879,-1.1761 2.457757,-2.35219 3.723874,-3.56393 4.053613,-3.87128 8.129556,-7.72057 12.207439,-11.568836 2.826451,-2.685171 5.651977,-5.371228 8.476613,-8.058124 C 46.478246,79.519087 52.405214,73.909405 58.340228,68.307113 65.957825,61.114827 73.546962,53.896195 81.128053,46.669304 86.953418,41.12197 92.793529,35.588774 98.63825,30.0598 c 2.80528,-2.657149 5.60591,-5.318723 8.40185,-7.98472 3.90111,-3.715601 7.82157,-7.411776 11.74797,-11.103312 1.15817,-1.1106346 2.31633,-2.2212699 3.50961,-3.36556 8.07411,-7.53321556 8.07411,-7.53321556 15.03145,-7.53321556 z M 125.75116,14.767133 c -1.40039,1.332797 -2.80077,2.665592 -4.2436,4.038778 -1.58326,1.502043 -3.16652,3.004085 -4.79776,4.55164 -1.71923,1.641064 -3.43847,3.282127 -5.20979,4.972919 -1.75253,1.665245 -3.50505,3.330481 -5.31067,5.046187 -5.62486,5.346866 -11.242461,10.700542 -16.859953,16.054377 -3.800318,3.614896 -7.60111,7.229354 -11.402374,10.843345 -9.342794,8.884451 -18.679632,17.77451 -28.012045,26.668766 1.997565,2.222409 3.996869,4.443414 5.996919,6.663824 1.113179,1.23697 2.226356,2.473932 3.373269,3.748393 3.243411,3.545618 6.600815,6.915648 10.141901,10.194768 1.802919,1.66953 3.605833,3.33907 5.463388,5.0592 11.318127,-4.62904 18.778134,-13.310994 27.056765,-21.717536 2.20535,-2.191269 2.20535,-2.191269 4.45526,-4.426806 7.43794,-8.059521 10.99195,-13.422155 11.02433,-24.324258 -0.2301,-2.926384 -0.50717,-5.851598 -0.91057,-8.761054 1.37365,0 2.74731,0 4.16258,0 0,3.909161 0,7.818314 0,11.845932 13.0735,-14.261831 15.87419,-28.984459 14.56903,-47.383721 -0.68683,2.606104 -1.37366,5.212208 -2.08129,7.897286 -1.37365,0 -2.74731,0 -4.16258,0 0.68682,-4.560682 1.37365,-9.121367 2.08128,-13.820251 -2.56417,-0.223185 -2.56417,-0.223185 -5.33409,2.848211 z M 43.671102,92.866115 C 31.995069,103.94206 20.319034,115.018 8.2891803,126.42958 c 3.7079367,7.03473 6.5927547,10.57536 12.4877377,15.79457 15.239502,-4.54339 25.002607,-17.18079 33.300629,-29.61482 1.948142,-5.52969 1.948142,-5.52969 2.081292,-9.87161 -4.120954,-3.25763 -8.241907,-6.515258 -12.487737,-9.871605 z"
     fill="#000000"
     id="path2"
     style="stroke-width:2.0271" />
  <path
     d="m 129.00397,71.14857 c 2.06048,0 4.12095,0 6.24387,0 4.34983,6.705208 4.71043,11.947866 4.16258,19.743224 -2.08129,1.974321 -2.08129,1.974321 -7.28451,2.221104 -5.20323,-0.246791 -5.20323,-0.246791 -7.28452,-2.221104 -0.54785,-7.795358 -0.18726,-13.038016 4.16258,-19.743224 z m 2.08128,5.92297 c -0.68681,3.909151 -1.37364,7.81831 -2.08128,11.845925 2.06048,0 4.12095,0 6.24387,0 -0.68683,-3.909158 -1.37366,-7.818309 -2.08129,-11.845925 -0.68683,0 -1.37365,0 -2.0813,0 z"
     fill="#000000"
     id="path4"
     style="stroke-width:2.0271" />
  <path
     d="m 141.49171,51.405358 c 2.06047,0 4.12094,0 6.24386,0 2.8189,5.348028 2.21661,9.890031 2.08129,15.79457 -3.43413,0 -6.86825,0 -10.40644,0 -0.26018,-11.352348 -0.26018,-11.352348 2.08129,-15.79457 z m 2.08129,5.922963 c 2.08128,5.922967 2.08128,5.922967 2.08128,5.922967 z"
     fill="#000000"
     id="path6"
     style="stroke-width:2.0271" />
  <path
     d="m 126.92268,27.713496 c 1.37364,0 2.74731,0 4.16257,0 -1.37364,7.166787 -2.74729,14.333573 -4.16257,21.717538 -2.06047,0.651526 -4.12095,1.303055 -6.24387,1.974324 0.23847,-2.839802 0.50386,-5.677578 0.78048,-8.514262 0.14486,-1.580461 0.28977,-3.160921 0.43903,-4.789274 0.86178,-4.465362 0.86178,-4.465362 5.02436,-10.388326 z"
     fill="#000000"
     id="path8"
     style="stroke-width:2.0271" />
  <path
     d="m 18.695627,124.45526 c 3.434128,0.65153 6.868256,1.30305 10.406448,1.97432 -0.686825,2.60611 -1.373648,5.21221 -2.081289,7.89729 -3.434129,-0.65153 -6.868256,-1.30305 -10.406449,-1.97432 0.686827,-2.6061 1.373653,-5.21221 2.08129,-7.89729 z"
     fill="#000000"
     id="path10"
     style="stroke-width:2.0271" />
  <path
     d="m 39.508521,100.76341 c 3.434128,0 6.868255,0 10.406447,0 0,3.25762 0,6.51524 0,9.87159 -3.434127,0 -6.868254,0 -10.406447,0 0,-3.25763 0,-6.51525 0,-9.87159 z"
     fill="#000000"
     id="path12"
     style="stroke-width:2.0271" />
</svg>
