<?xml version="1.0" encoding="UTF-8" standalone="no"?>
<svg
   version="1.1"
   width="153"
   height="136"
   id="svg12"
   sodipodi:docname="kryminał.svg"
   inkscape:version="1.1.2 (0a00cf5339, 2022-02-04)"
   xmlns:inkscape="http://www.inkscape.org/namespaces/inkscape"
   xmlns:sodipodi="http://sodipodi.sourceforge.net/DTD/sodipodi-0.dtd"
   xmlns="http://www.w3.org/2000/svg"
   xmlns:svg="http://www.w3.org/2000/svg">
  <defs
     id="defs16" />
  <sodipodi:namedview
     id="namedview14"
     pagecolor="#ffffff"
     bordercolor="#666666"
     borderopacity="1.0"
     inkscape:pageshadow="2"
     inkscape:pageopacity="0.0"
     inkscape:pagecheckerboard="0"
     showgrid="false"
     inkscape:zoom="1.4619433"
     inkscape:cx="-59.509832"
     inkscape:cy="8.5502632"
     inkscape:window-width="1920"
     inkscape:window-height="1000"
     inkscape:window-x="0"
     inkscape:window-y="0"
     inkscape:window-maximized="1"
     inkscape:current-layer="svg12"
     width="200px" />
  <path
     d="M 30.059514,0.52645221 C 42.004297,2.2917367 42.004297,2.2917367 45.985892,4.561389 c 2.510759,0.2369838 5.030462,0.3567985 7.549304,0.4142308 2.337892,0.060358 2.337892,0.060358 4.723016,0.1219279 1.684876,0.033736 3.369755,0.067425 5.105686,0.1021713 1.723227,0.041936 3.446455,0.083866 5.221902,0.1270411 5.517352,0.1321765 11.034855,0.2509521 16.55245,0.369443 3.735064,0.087134 7.470113,0.1750977 11.205146,0.2640038 9.168104,0.2162702 18.336364,0.4215967 27.504804,0.6186371 0,-1.9972921 0,-3.9945864 0,-6.0524035 3.5038,0 7.0076,0 10.61759,0 0.87595,2.9959399 0.87595,2.9959399 1.7696,6.0524035 4.08777,0 8.17554,0 12.38718,0 0,2.6630593 0,5.326116 0,8.06987 1.16793,0 2.33587,0 3.5392,0 0,9.320702 0,18.641401 0,28.244546 -2.33587,0 -4.67174,0 -7.0784,0 0,2.663058 0,5.326115 0,8.069874 -16.35108,0 -32.70217,0 -49.548738,0 -0.583963,5.991877 -1.167934,11.983756 -1.769599,18.157205 -3.53919,8.069875 -3.53919,8.069875 -8.847986,12.104807 -4.895685,0.287395 -9.602781,0.378663 -14.488582,0.252174 -1.326474,-0.01815 -2.652947,-0.03637 -4.019615,-0.05513 -3.2687,-0.04747 -6.537106,-0.119858 -9.805369,-0.197045 -0.674071,3.432845 -0.674071,3.432845 -1.361763,6.935045 -0.614696,3.068363 -1.229937,6.136587 -1.845633,9.20469 -0.293128,1.500572 -0.586249,3.00114 -0.888255,4.54719 -0.922163,4.56239 -1.924338,9.08631 -2.982741,13.61002 -0.347585,1.51618 -0.695172,3.03236 -1.053291,4.59447 -1.956459,7.22911 -3.260597,10.89158 -9.101158,14.72909 -6.790327,1.00129 -11.833224,0.11905 -18.490918,-1.67072 -2.141975,-0.55128 -4.283948,-1.10261 -6.490829,-1.67065 C 8.8243349,129.64442 8.8243349,129.64442 3.5155424,125.60949 1.1493602,116.30736 2.0944033,109.97303 4.7321411,100.89551 5.3891045,98.614741 6.0460676,96.333979 6.7229388,93.984101 8.5913776,88.021038 10.582166,82.162198 12.695332,76.307585 15.964301,67.204034 18.627419,59.571346 16.566328,49.702226 13.601385,43.86362 10.07559,40.721376 5.2851403,36.84087 c 0.5839674,-2.663057 1.1679346,-5.326114 1.769598,-8.069872 1.7519011,0 3.5038047,0 5.3087927,0 0.08668,-1.263911 0.173357,-2.527823 0.262688,-3.830032 0.132306,-1.64881 0.264609,-3.297617 0.400924,-4.996386 0.123186,-1.638405 0.246369,-3.27681 0.373275,-4.964862 0.732724,-4.365926 0.732724,-4.365926 4.271919,-8.4008602 1.7884,-0.3328852 3.576799,-0.6657673 5.419392,-1.0087357 2.573107,-0.4993247 2.573107,-0.4993247 5.198195,-1.0087331 0.583971,-1.3315296 1.167937,-2.6630592 1.769601,-4.03493679 z M 125.6178,2.5439206 c 0,1.3315296 0,2.663057 0,4.0349372 1.7519,0 3.5038,0 5.30879,0 0,-1.3315301 0,-2.6630596 0,-4.0349372 -1.7519,0 -3.5038,0 -5.30879,0 z M 45.985892,10.613792 c 1.751903,2.99594 1.751903,2.99594 3.539197,6.052401 6.193592,1.008735 6.193592,1.008735 12.387184,0 1.167937,-1.997292 2.335871,-3.994587 3.539196,-6.052401 -6.42364,0 -12.84728,0 -19.465577,0 z M 33.598706,6.5788578 c 0,1.3315269 0,2.663057 0,4.0349342 -1.970887,0.20805 -3.941778,0.416101 -5.972388,0.630457 -2.116885,0.457713 -4.233767,0.915427 -6.414798,1.38701 -4.029991,5.679373 -4.029991,5.679373 -3.539193,12.104807 42.045647,0 84.091293,0 127.411043,0 0,-3.994585 0,-7.989175 0,-12.104807 -1.71986,-2.402623 -1.71986,-2.402623 -4.87117,-2.260078 -2.02177,0.0067 -2.02177,0.0067 -4.08439,0.01381 -1.5233,1.51e-4 -3.0466,3.04e-4 -4.61606,4.62e-4 -2.48296,0.01565 -2.48296,0.01565 -5.01607,0.03157 -2.52968,0.0044 -2.52968,0.0044 -5.11046,0.0085 -5.40952,0.01128 -10.81891,0.03666 -16.22839,0.06227 -3.65786,0.01013 -7.315726,0.01911 -10.973587,0.02745 -8.987445,0.02233 -17.974787,0.05716 -26.962177,0.09851 0,2.663055 0,5.326114 0,8.06987 -7.591571,0 -15.183149,0 -23.004771,0 0,-2.663058 0,-5.326116 0,-8.06987 C 40.712491,9.2821639 37.208689,7.9506338 33.598706,6.5787559 Z M 17.672327,26.753529 c -1.167935,3.328825 -2.33587,6.657647 -3.539196,10.087341 1.131437,1.081868 2.262871,2.163734 3.428595,3.278384 4.574197,6.005049 5.156859,8.964612 5.419394,16.896291 -1.669653,13.32465 -5.779988,25.200051 -10.403734,37.515736 -2.823548,7.640579 -5.3487196,14.668499 -5.5226477,23.008299 3.5407247,5.89355 6.2397867,7.74771 12.1659847,10.02429 1.824899,0.35368 3.649796,0.70738 5.529994,1.07178 1.824895,0.39529 3.649797,0.79059 5.529996,1.19787 5.156888,0.36218 5.156888,0.36218 8.687704,-3.2577 4.45138,-6.4005 5.94204,-12.86602 7.591214,-20.65245 0.33929,-1.50152 0.67858,-3.00304 1.028152,-4.55007 1.074488,-4.776373 2.115135,-9.561304 3.153906,-14.347919 1.064809,-4.798652 2.136423,-9.595259 3.21077,-14.391144 0.664936,-2.979697 1.322982,-5.961406 1.973464,-8.945249 2.257022,-10.274844 2.257022,-10.274844 4.216754,-14.743312 -1.751904,0 -3.503805,0 -5.308796,0 -6.549708,25.405471 -12.644286,50.814717 -17.695978,76.663774 -3.802944,-0.85024 -7.599056,-1.74031 -11.391786,-2.64793 -2.1146,-0.49152 -4.2292,-0.98304 -6.40788,-1.48946 -1.717687,-0.63195 -3.435372,-1.26392 -5.205106,-1.91502 -2.334991,-7.98616 -0.14876,-13.08061 2.211995,-20.679038 0.385512,-1.297723 0.771021,-2.595445 1.168213,-3.932493 1.919798,-6.361319 3.949735,-12.290379 6.54613,-18.354219 2.263855,-6.872886 3.002811,-11.812546 3.49945,-19.033942 0.142057,-1.992297 0.28407,-3.98459 0.430411,-6.037261 0.09918,-1.515317 0.198378,-3.030639 0.300583,-4.59188 1.392758,0.0046 2.785521,0.0088 4.220484,0.01337 13.098403,0.04035 26.19678,0.07109 39.295217,0.09093 6.734716,0.01038 13.469393,0.02502 20.204085,0.04766 6.494187,0.02188 12.988341,0.03396 19.482561,0.03922 2.48291,0.0039 4.96582,0.01101 7.44871,0.02188 3.46624,0.01479 6.93251,0.01573 10.39877,0.01589 1.97658,0.0046 3.95317,0.0088 5.98965,0.01337 4.33734,0.332696 4.33734,0.332696 6.21478,-2.259967 0,-1.914072 0,-3.828147 0,-5.800222 0,-6.304586 0,-6.304586 1.76961,-12.356987 -35.03804,0 -70.076079,0 -106.175877,0 -0.583964,2.663057 -1.167936,5.326114 -1.769596,8.06987 0,-2.663057 0,-5.326115 0,-8.06987 -5.839676,0 -11.679348,0 -17.69598,0 z m 12.387187,24.209616 c -0.576245,3.759253 -0.986907,7.551797 -1.327202,11.348255 -1.495215,12.659153 -4.699238,23.258637 -9.233361,34.822003 -2.961474,7.702037 -3.596224,11.634117 -3.596224,20.406177 6.423641,0.66576 12.847284,1.33152 19.46558,2.01746 C 40.624013,96.255291 45.87972,72.953541 51.294689,48.945676 35.577178,47.441945 35.577178,47.441945 30.059514,50.963145 Z m 40.70075,0 c 0.583967,3.328819 1.167933,6.657641 1.769597,10.087338 4.382164,2.773343 4.382164,2.773343 8.847989,4.034935 0,1.997292 0,3.994583 0,6.052402 -7.896375,-3.163016 -12.237689,-6.056994 -16.25818,-14.500547 -0.474473,-1.206701 -0.948947,-2.413396 -1.437796,-3.656659 -0.899552,2.515038 -1.780768,5.038611 -2.6544,7.565503 -0.492722,1.404343 -0.985446,2.808691 -1.493097,4.255592 -1.507081,4.851714 -1.507081,4.851714 -1.161299,12.388512 13.931469,1.194633 13.931469,1.194633 26.543969,-4.034934 3.788983,-8.043593 5.308796,-13.017398 5.308796,-22.192142 -6.423645,0 -12.847283,0 -19.465579,0 z"
     fill="#000000"
     id="path2"
     style="stroke-width:1.88947" />
  <path
     d="m 22.98112,107.45224 c 2.33587,0 4.671738,0 7.078394,0 0,2.66305 0,5.32611 0,8.06987 -2.33587,0 -4.67174,0 -7.078394,0 0,-2.66306 0,-5.32612 0,-8.06987 z"
     fill="#000000"
     id="path4"
     style="stroke-width:1.88947" />
  <path
     d="m 35.368307,52.980614 c 2.33587,0 4.671736,0 7.078391,0 0,2.663054 0,5.326111 0,8.069869 -2.335869,0 -4.67174,0 -7.078391,0 0,-2.66306 0,-5.326117 0,-8.069869 z"
     fill="#000000"
     id="path6"
     style="stroke-width:1.88947" />
  <path
     d="m 102.61303,32.805936 c 2.91983,0 5.83966,0 8.84798,0 0,0.665762 0,1.331527 0,2.017468 -2.91983,0 -5.83967,0 -8.84798,0 0,-0.665768 0,-1.331529 0,-2.017468 z"
     fill="#000000"
     id="path8"
     style="stroke-width:1.88947" />
  <path
     d="m 115.00021,32.805936 c 3.5392,2.017468 3.5392,2.017468 3.5392,2.017468 z"
     fill="#000000"
     id="path10"
     style="stroke-width:1.88947" />
</svg>
