<?xml version="1.0" encoding="UTF-8" standalone="no"?>
<svg
   version="1.1"
   width="58"
   height="70"
   id="svg16"
   sodipodi:docname="thriller.svg"
   inkscape:version="1.1.2 (0a00cf5339, 2022-02-04)"
   xmlns:inkscape="http://www.inkscape.org/namespaces/inkscape"
   xmlns:sodipodi="http://sodipodi.sourceforge.net/DTD/sodipodi-0.dtd"
   xmlns="http://www.w3.org/2000/svg"
   xmlns:svg="http://www.w3.org/2000/svg">
  <defs
     id="defs20" />
  <sodipodi:namedview
     id="namedview18"
     pagecolor="#ffffff"
     bordercolor="#666666"
     borderopacity="1.0"
     inkscape:pageshadow="2"
     inkscape:pageopacity="0.0"
     inkscape:pagecheckerboard="0"
     showgrid="false"
     inkscape:zoom="4.135"
     inkscape:cx="58.041112"
     inkscape:cy="49.214027"
     inkscape:window-width="1920"
     inkscape:window-height="1000"
     inkscape:window-x="0"
     inkscape:window-y="0"
     inkscape:window-maximized="1"
     inkscape:current-layer="svg16" />
  <path
     d="m 44.809471,5.0203695 c 6.043065,3.9934042 9.647457,9.4211755 11.830443,16.4025375 1.238405,8.069702 0.124885,14.026146 -3.838952,21.062962 -1.089182,1.986784 -1.725997,3.610653 -2.234713,5.806985 -0.686588,2.481963 -0.686588,2.481963 -3.221683,4.208546 -0.836581,0 -1.673163,0 -2.535095,0 0.04902,0.697748 0.09804,1.395496 0.14854,2.114389 0.31291,7.571649 0.31291,7.571649 -1.997047,10.942894 -4.475968,3.048457 -8.296293,3.680301 -13.626136,3.66899 -0.639486,-7.66e-4 -1.278974,-0.0016 -1.937838,-0.0024 -4.865601,-0.105698 -8.129799,-0.831003 -12.163629,-3.77457 -1.986833,-3.044648 -1.871267,-4.341316 -1.795691,-7.931491 0.01525,-0.938121 0.0305,-1.876241 0.04621,-2.842791 0.01961,-0.71778 0.03921,-1.435559 0.05942,-2.17509 -0.662293,-0.08903 -1.324586,-0.178054 -2.00695,-0.269779 C 9.318144,51.63808 9.318144,51.63808 7.6280805,49.048206 7.208623,47.854508 6.8238611,46.647725 6.4661578,45.433201 5.6426985,42.736878 4.6955966,40.543147 3.2444742,38.149179 0.2450726,32.163828 0.6822419,24.758314 2.617303,18.49581 5.8718393,11.264688 10.303664,6.4196664 17.293126,2.9160969 25.852301,-0.20583971 37.005283,0.13756196 44.809471,5.0203695 Z M 10.374429,11.225277 c -5.2815038,5.84012 -6.7495411,11.680221 -6.5159854,19.572435 0.4955699,3.44956 1.6610746,5.752224 3.518764,8.636287 1.5060984,2.535054 2.1796234,5.161779 2.8948934,8.01917 0.631841,1.727354 0.631841,1.727354 2.330439,2.670807 2.337425,0.851888 4.395021,0.76512 6.85598,0.650841 -0.06971,0.658799 -0.13943,1.317598 -0.211258,1.996362 -0.01869,2.360138 -0.01869,2.360138 1.515115,3.746549 2.896085,1.622797 5.184873,1.444793 8.466821,1.379244 0.852104,-0.0066 0.852104,-0.0066 1.721422,-0.0135 2.580614,-0.04188 4.635107,-0.226714 7.098597,-1.065621 0.278861,-1.994203 0.557721,-3.988406 0.845032,-6.04304 0.519595,-0.01225 1.039191,-0.02448 1.574531,-0.0371 2.081587,-0.12549 4.002869,-0.324858 6.030754,-0.826196 1.875191,-2.162898 2.439652,-4.023943 3.327312,-6.744464 0.747744,-2.291703 1.504664,-3.798683 2.693538,-5.827218 2.703723,-5.45132 2.55426,-11.66688 0.897847,-17.451295 C 50.544427,13.272566 45.451351,7.8392291 38.841434,5.074325 28.560997,1.8841922 18.389864,3.7146814 10.374429,11.225277 Z M 15.233361,52.5014 c -0.244997,5.440164 -0.244997,5.440164 1.690064,10.359497 4.679499,4.113554 9.509701,4.012318 15.530758,3.847717 3.959151,-0.510496 7.121596,-1.611525 9.820193,-4.711008 1.092478,-3.127559 0.907047,-6.201732 0.845032,-9.496206 -0.836582,0.284886 -1.673163,0.569772 -2.535096,0.863291 -0.261431,0.836853 -0.522863,1.673707 -0.792217,2.535919 -0.897846,2.64383 -0.897846,2.64383 -2.251218,3.6555 -2.814391,0.992741 -5.339514,0.975663 -8.311679,0.984691 -1.096923,0.01446 -2.193847,0.02894 -3.32401,0.04384 -3.206779,-0.327959 -4.789554,-0.867989 -7.2917,-2.903491 -1.109104,-2.751742 -1.109104,-2.751742 -1.690063,-5.179748 -0.557721,0 -1.115442,0 -1.690064,0 z"
     fill="#000000"
     id="path2"
     style="stroke-width:0.854113" />
  <path
     d="m 41.534973,28.005505 c 1.101281,-0.01 1.101281,-0.01 2.22481,-0.02023 0.625257,0.113509 1.250514,0.227019 1.89472,0.343968 2.257205,3.45897 2.379601,6.294303 1.690063,10.359497 -2.30687,2.928044 -3.645148,3.381652 -7.288399,3.830856 -2.851981,-0.377689 -2.851981,-0.377689 -4.436416,-1.564715 -1.865188,-2.752378 -1.978971,-5.005916 -2.155491,-8.332787 0.359799,-1.702977 0.359799,-1.702977 1.795693,-3.196876 2.268527,-1.278782 3.697778,-1.443288 6.27502,-1.41971 z m -6.020851,3.7769 c -0.32179,3.024438 -0.340083,4.629647 1.267548,7.230065 0.41829,0.462941 0.836581,0.92588 1.267547,1.40285 4.23813,-0.284543 4.23813,-0.284543 7.605286,-2.589875 0.281677,-3.02152 0.281677,-3.02152 0,-6.04304 -1.484242,-1.862168 -1.484242,-1.862168 -3.274499,-1.955896 -0.592578,0.0045 -1.185157,0.0089 -1.795692,0.01349 -0.592578,-0.0045 -1.185157,-0.0089 -1.795692,-0.01349 -1.790256,0.09373 -1.790256,0.09373 -3.274498,1.955896 z"
     fill="#000000"
     id="path4"
     style="stroke-width:0.854113" />
  <path
     d="m 13.543298,28.329239 c 1.89472,-0.343968 1.89472,-0.343968 4.11953,-0.323734 0.72983,-0.0066 1.45966,-0.01336 2.211606,-0.02023 2.53587,0.411601 3.698956,1.073496 5.499308,2.933842 0.359387,3.855116 0.611277,7.094125 -1.690064,10.359498 -2.620011,1.338313 -4.714383,1.113576 -7.605285,0.863292 -2.48228,-1.240982 -2.48228,-1.240982 -4.225159,-3.453167 -0.689537,-4.065194 -0.567141,-6.900527 1.690064,-10.359498 z m 0,3.453166 c -0.422582,2.98514 -0.422582,2.98514 0,6.04304 1.773912,2.080723 2.899181,2.505987 5.545521,2.967564 2.137524,-0.20171 2.137524,-0.20171 3.591384,-1.780539 1.269018,-2.592877 1.308235,-4.3657 1.003475,-7.230065 -1.484241,-1.862168 -1.484241,-1.862168 -3.274497,-1.955896 -0.592579,0.0045 -1.185157,0.0089 -1.795693,0.01349 -0.592578,-0.0045 -1.185157,-0.0089 -1.795692,-0.01349 -1.790256,0.09373 -1.790256,0.09373 -3.274498,1.955896 z"
     fill="#000000"
     id="path6"
     style="stroke-width:0.854113" />
  <path
     d="m 27.063805,39.552027 c 1.394302,0 2.788605,0 4.225159,0 1.874742,3.990111 2.858582,6.706257 2.535095,11.22279 -3.067465,0 -6.13493,0 -9.295349,0 0.679043,-7.862119 0.679043,-7.862119 2.535095,-11.22279 z m 1.690064,1.726584 c -2.032877,3.402022 -2.032877,3.402022 -2.271023,7.230066 0.191717,0.46294 0.383433,0.92588 0.580959,1.402848 1.394302,0 2.788605,0 4.225159,0 0.679996,-1.468571 0.679996,-1.468571 0.845031,-3.453165 -1.147671,-2.777321 -1.147671,-2.777321 -2.535095,-5.179749 -0.27886,0 -0.557721,0 -0.845031,0 z"
     fill="#000000"
     id="path8"
     style="stroke-width:0.854113" />
  <path
     d="m 28.648239,6.6390406 c 0.973834,0.015579 1.947666,0.031158 2.951009,0.047209 0.734188,0.020029 1.468375,0.040068 2.224811,0.060698 0,0.5697717 0,1.1395446 0,1.7265831 -0.643776,0.032273 -1.287552,0.064547 -1.950835,0.097796 -5.64328,0.3670736 -10.541422,1.2004683 -15.794831,3.3553703 0.528145,-1.61867 0.528145,-1.61867 1.690063,-3.453165 3.662713,-1.7245084 6.885501,-1.9177723 10.879783,-1.8344952 z"
     fill="#000000"
     id="path10"
     style="stroke-width:0.854113" />
  <path
     d="m 35.514122,7.6102437 c 1.115442,0.2848869 2.230884,0.5697728 3.380127,0.8632921 0,0.5697717 0,1.1395446 0,1.7265822 -1.115442,-0.284886 -2.230884,-0.5697719 -3.380127,-0.8632912 0,-0.5697717 0,-1.1395446 0,-1.7265831 z"
     fill="#000000"
     id="path12"
     style="stroke-width:0.854113" />
  <path
     d="m 40.584312,9.3368268 c 0.836582,0.4273294 0.836582,0.4273294 1.690064,0.8632912 0,0.569772 0,1.139545 0,1.726583 -0.557721,0 -1.115442,0 -1.690064,0 0,-0.854659 0,-1.709316 0,-2.5898742 z"
     fill="#000000"
     id="path14"
     style="stroke-width:0.854113" />
</svg>
