<?xml version="1.0" encoding="UTF-8" standalone="no"?>
<svg
   version="1.1"
   width="150"
   height="138"
   id="svg3854"
   sodipodi:docname="wedding-ring.svg"
   inkscape:version="1.1.2 (0a00cf5339, 2022-02-04)"
   xmlns:inkscape="http://www.inkscape.org/namespaces/inkscape"
   xmlns:sodipodi="http://sodipodi.sourceforge.net/DTD/sodipodi-0.dtd"
   xmlns="http://www.w3.org/2000/svg"
   xmlns:svg="http://www.w3.org/2000/svg">
  <defs
     id="defs3858" />
  <sodipodi:namedview
     id="namedview3856"
     pagecolor="#ffffff"
     bordercolor="#666666"
     borderopacity="1.0"
     inkscape:pageshadow="2"
     inkscape:pageopacity="0.0"
     inkscape:pagecheckerboard="0"
     showgrid="false"
     inkscape:zoom="3.2304687"
     inkscape:cx="29.71705"
     inkscape:cy="89.925032"
     inkscape:window-width="1920"
     inkscape:window-height="1000"
     inkscape:window-x="0"
     inkscape:window-y="0"
     inkscape:window-maximized="1"
     inkscape:current-layer="svg3854"
     width="200px" />
  <path
     d="m 84.732392,10.446675 c 0.357516,0.273369 0.357516,0.273369 0.72226,0.552259 4.478142,3.582654 8.388712,9.177968 9.763966,14.679638 0.626487,2.30617 0.626487,2.30617 2.311266,3.941999 1.640288,0.698207 3.363256,1.131676 5.086446,1.593343 1.23571,0.367339 2.35988,0.885166 3.50418,1.46243 0.2097,0.10575 0.41943,0.211539 0.6355,0.320517 0.42904,0.219665 0.85704,0.441281 1.284,0.664745 0.70385,0.367477 1.41254,0.725191 2.12156,1.083219 4.7487,2.436275 8.8933,5.420326 12.79668,8.990377 0.72872,0.666285 1.46972,1.305902 2.23092,1.936637 2.35873,1.988011 4.48888,4.177877 6.50674,6.4878 0.24217,0.270081 0.48433,0.540169 0.73382,0.818436 11.51941,13.053942 19.37101,30.447016 18.24617,47.881715 -0.89855,9.98423 -6.08998,20.82022 -14.05373,27.40212 -9.32702,7.34752 -22.07651,10.21199 -33.91027,9.08491 -6.345419,-0.71494 -12.262814,-2.53293 -17.979508,-5.26388 -0.326241,-0.15383 -0.326241,-0.15383 -0.659082,-0.31095 -3.182005,-1.51712 -6.046918,-3.33937 -8.86499,-5.42059 -0.289996,-0.21304 -0.579989,-0.42607 -0.878773,-0.64555 -4.475192,-3.38398 -8.928071,-7.31029 -12.257878,-11.77283 -0.361966,0.14609 -0.72393,0.29226 -1.096862,0.44282 -11.270377,4.45442 -23.58129,5.0808 -34.913875,0.46363 -3.770033,-1.58964 -7.17193,-3.37377 -10.295961,-6.00115 -0.331903,-0.243 -0.663811,-0.48599 -1.005775,-0.73635 C 8.1515259,102.24068 4.7534732,93.810227 2.6283198,85.593695 2.5682531,85.362034 2.508203,85.130381 2.4463115,84.891705 -1.3350305,69.67813 1.6451363,52.525175 8.2113979,38.467596 8.3361763,38.19895 8.4609616,37.930302 8.5895238,37.653512 11.208663,32.101634 14.608285,26.859777 18.720718,22.2282 c 0.314123,-0.362582 0.627981,-0.725381 0.941631,-1.088349 2.836538,-3.26594 5.768365,-6.136592 9.239275,-8.782659 0.308197,-0.236837 0.616398,-0.473675 0.933931,-0.717689 16.098226,-12.06279306 38.68654,-13.917129 54.896837,-1.192828 z M 49.591845,6.9440611 C 49.345087,7.0106045 49.098332,7.0771325 48.84409,7.1457292 38.771378,9.8980539 30.36051,16.926927 23.975377,24.775568 c -0.256548,0.307027 -0.513097,0.614053 -0.77742,0.930383 -3.620848,4.419133 -6.657938,9.221064 -9.075068,14.353759 -0.108208,0.226169 -0.216441,0.452329 -0.327936,0.685348 C 9.7787647,49.221969 7.6791354,58.487032 6.8977309,67.76221 6.8613297,68.176365 6.824915,68.590526 6.7874142,69.017231 5.8707359,80.72744 7.893681,92.880914 15.908666,102.09182 c 0.598807,0.66605 1.209763,1.32006 1.826814,1.97021 0.267135,0.28528 0.534268,0.57056 0.809496,0.86446 4.987931,5.08694 11.921575,8.68029 19.223901,9.00655 -0.229034,-0.17198 -0.45807,-0.34395 -0.694038,-0.52116 -9.347375,-7.41951 -13.531691,-18.647643 -14.741529,-30.047114 -0.124332,-1.981744 -0.128078,-3.965713 -0.123158,-5.950467 1.79e-4,-0.271467 3.28e-4,-0.542935 6.56e-4,-0.822633 0.05833,-19.393199 8.323849,-38.729326 21.79039,-53.011414 0.524666,-0.564669 1.020481,-1.134507 1.506101,-1.730166 5.593859,-6.258112 14.039472,-10.847495 22.475874,-12.0402359 0.686378,-0.024622 1.373457,-0.034383 2.060298,-0.031087 0.378897,0.00106 0.757795,0.00219 1.148173,0.00309 0.390752,0.00249 0.781505,0.00543 1.184098,0.00806 0.597555,0.00219 0.597555,0.00219 1.207186,0.00453 0.979703,0.00355 1.959376,0.00899 2.939065,0.015494 C 75.28659,8.7595686 74.105366,8.1481873 72.581002,7.561074 72.188131,7.4063536 71.795265,7.2515851 71.390491,7.092152 67.913713,5.897144 64.557171,5.5021465 60.88117,5.5311488 c -0.43171,0.00232 -0.863421,0.00465 -1.308214,0.00744 -3.476282,0.056672 -6.652471,0.4551872 -9.981096,1.4056799 z m 22.660727,6.0499699 c 0.532992,1.142327 1.25159,2.093061 2.011549,3.104593 8.9574,12.30089 9.740316,28.036852 7.184105,42.429405 -1.593698,8.395668 -4.080743,16.743653 -8.469385,24.197086 -0.493367,0.881812 -0.769583,1.399417 -0.547948,2.399646 0.157921,0.259828 0.315819,0.519649 0.478512,0.787352 0.294649,0.487627 0.294649,0.487627 0.595255,0.985113 0.237442,0.362789 0.477021,0.724273 0.718409,1.084603 0.191099,0.287302 0.191099,0.287302 0.386066,0.580412 1.397773,2.068569 2.953061,4.013244 4.540181,5.9472 C 90.150801,84.348973 95.513606,64.942487 95.97167,50.536444 96.190952,39.500549 94.254356,27.894061 86.59513,19.286549 82.702611,15.385609 77.762091,13.431886 72.252572,12.994031 Z M 47.621351,24.775556 C 33.592167,38.510128 25.504997,58.884069 25.558847,78.094428 c 0.07914,8.503246 1.745468,20.597873 8.269018,26.922872 6.234695,0.51675 11.103923,-1.09656 16.003884,-4.8211 0.594256,-0.501724 1.171751,-1.008933 1.730598,-1.547305 -0.415648,-1.344016 -0.965218,-2.546593 -1.615542,-3.792431 -5.917041,-11.427314 -9.126568,-26.00394 -5.281201,-38.557373 0.06867,-0.23037 0.137269,-0.46074 0.20798,-0.698095 2.974535,-9.691078 9.485679,-18.653771 18.656628,-23.600208 3.445999,-1.793797 6.923184,-3.051076 10.692851,-4.041039 -1.803838,-5.209962 -4.68459,-10.033316 -8.210406,-14.328879 -6.52711,0 -14.068546,7.011731 -18.391313,11.144686 z m 22.55681,11.05264 c -1.619583,1.309084 -3.013107,2.835537 -4.165498,4.549918 0,0.210152 0,0.420314 0,0.63684 0.318661,-0.03137 0.318661,-0.03137 0.643765,-0.06335 2.377326,-0.223091 4.749203,-0.347748 7.135596,-0.434173 0.359633,-0.01395 0.71927,-0.0275 1.089804,-0.04165 0.875104,-0.03335 1.750232,-0.06588 2.625406,-0.09762 -0.170815,-1.739274 -0.416643,-3.41293 -0.841568,-5.114615 -0.08849,-0.358332 -0.176962,-0.716666 -0.268126,-1.085859 -0.06729,-0.265568 -0.134606,-0.531139 -0.203968,-0.804756 -2.089661,-0.849014 -4.397868,1.29694 -6.015402,2.455312 z M 97.86904,33.691305 c 0.03809,0.220763 0.07614,0.441551 0.115393,0.669022 0.112745,0.660997 0.223785,1.322275 0.33355,1.983747 0.125803,0.75778 0.254857,1.515071 0.386944,2.271852 0.281817,1.698565 0.538847,3.302789 0.395686,5.0235 -0.187976,2.086289 -0.187976,2.086289 0.410525,4.062339 1.696302,1.706236 3.910942,2.807141 6.021822,3.959408 1.21433,0.691834 2.30757,1.490006 3.39962,2.349277 0.18285,0.142152 0.36572,0.284297 0.55411,0.43075 1.38446,1.088859 2.72036,2.226457 4.03088,3.397751 0.5152,0.459692 1.03702,0.91252 1.56511,1.358258 13.72875,11.62058 22.32189,28.688893 23.56388,46.264121 0.16032,2.99967 -0.16551,5.79713 -0.82362,8.72793 -0.24857,1.0003 -0.24857,1.0003 -0.21552,1.9727 3.24558,-0.95357 5.34437,-3.91796 6.89673,-6.68682 4.18755,-8.88156 2.41585,-19.624735 -0.3284,-28.657737 -0.0672,-0.221907 -0.13417,-0.443821 -0.20333,-0.672449 -2.99513,-9.59457 -8.58245,-18.351153 -15.55295,-25.690456 -0.58062,-0.614022 -1.13695,-1.240408 -1.69083,-1.876934 -2.97025,-3.295067 -6.22968,-6.353346 -9.81143,-9.015254 -0.45786,-0.350946 -0.45786,-0.350946 -0.92496,-0.708981 -3.59471,-2.700989 -7.40368,-4.821805 -11.49328,-6.734075 -0.28213,-0.132762 -0.56427,-0.265517 -0.85496,-0.4023 -1.88189,-0.859804 -3.766952,-1.500283 -5.77494,-2.025649 z m -39.799945,6.567402 c -6.692587,6.616226 -10.269732,16.50936 -10.529849,25.672577 0.4607,18.872056 10.292351,35.846036 23.891004,48.845066 1.412674,1.28633 2.90817,2.45913 4.434901,3.61456 0.309494,0.23597 0.309494,0.23597 0.625242,0.47669 9.20347,6.99977 19.789655,13.75361 31.887967,14.17061 0.36535,0.0131 0.7307,0.0253 1.10713,0.0385 9.89467,0.16973 18.71199,-2.64832 26.03981,-9.18068 1.09253,-1.03629 2.0966,-2.13246 3.06735,-3.27623 -0.70092,-0.43004 -0.70092,-0.43004 -1.69723,-0.0238 -0.44028,0.14641 -0.8803,0.2937 -1.32008,0.44156 -11.75195,3.73008 -24.69176,0.43521 -35.3911,-4.80133 -6.51363,-3.28053 -12.179578,-7.54063 -17.422344,-12.49284 -0.308205,-0.28608 -0.616402,-0.57217 -0.933938,-0.86693 -1.764785,-1.66618 -3.365824,-3.417092 -4.883907,-5.297617 -0.299454,-0.370536 -0.600688,-0.739692 -0.903144,-1.107935 -2.849024,-3.472678 -5.377844,-7.071739 -7.729332,-10.877417 -0.216466,-0.345017 -0.216466,-0.345017 -0.437297,-0.697004 -3.785617,-6.077476 -6.398281,-12.787586 -8.101527,-19.68185 -0.05794,-0.227808 -0.115891,-0.455615 -0.175589,-0.690327 -1.906858,-7.813023 -1.86457,-17.695458 2.51989,-24.747632 0.813406,-1.213817 1.69494,-2.37404 2.581948,-3.538223 0.108368,-0.210152 0.216749,-0.420313 0.328415,-0.636838 -2.275914,0 -5.365094,3.142476 -6.958317,4.656886 z m 5.316239,5.850959 c -3.425547,7.661254 -0.96424,18.3493 2.021172,25.780325 0.815034,1.933434 1.67895,3.844601 2.576656,5.743213 0.21675,0 0.433506,0 0.656833,0 0.998901,-1.691025 1.983051,-3.389387 2.955743,-5.094714 0.207022,-0.361617 0.414036,-0.723236 0.627326,-1.095813 3.334323,-6.119544 5.092867,-12.938772 5.715212,-19.80047 0.02912,-0.320907 0.05824,-0.64181 0.0883,-0.972441 0.138838,-1.792738 0.111229,-3.422383 -0.190918,-5.196939 -4.866622,-0.07127 -9.627721,-0.03978 -14.450321,0.636839 z m 36.125789,7.960489 c -0.03945,0.220427 -0.07885,0.440835 -0.119474,0.667939 -2.651365,14.683974 -6.903346,28.692496 -16.213466,40.786844 -0.506553,0.701613 -0.953822,1.430752 -1.401543,2.168702 4.025322,4.04438 8.012805,7.94757 12.808234,11.14468 0.19601,0.13204 0.392028,0.26423 0.593975,0.40035 6.769021,4.51846 14.048071,7.47237 22.066751,9.15224 0.54357,0.11829 0.54357,0.11829 1.09814,0.23881 1.06083,0.19487 2.09476,0.31068 3.17127,0.39802 0.43182,0.0369 0.43182,0.0369 0.87235,0.0745 3.99477,0.41849 3.99477,0.41849 7.70497,-0.674 0.71347,-0.83271 1.16142,-1.59252 1.60358,-2.58467 0.13666,-0.2631 0.27349,-0.52622 0.41437,-0.79731 3.67612,-7.79125 0.68085,-17.743705 -2.22435,-25.337582 -0.46625,-1.170033 -0.96393,-2.325568 -1.47418,-3.478124 -0.14318,-0.328783 -0.14318,-0.328783 -0.28929,-0.664204 -2.47908,-5.624354 -5.876,-10.864745 -9.89161,-15.5752 -0.14295,-0.168739 -0.28587,-0.3375 -0.43314,-0.511366 -2.90078,-3.41567 -5.85953,-6.889658 -9.41935,-9.67806 -0.16379,-0.130887 -0.32757,-0.261771 -0.49631,-0.396626 -3.85663,-3.443512 -3.85663,-3.443512 -8.370927,-5.334925 z M 52.46549,105.51481 c -3.580974,2.54557 -7.60676,4.67931 -12.069299,5.23403 0.803865,0.9154 1.588959,1.24005 2.75049,1.63188 0.307348,0.10602 0.614701,0.21181 0.931368,0.32093 4.664023,1.40601 10.030885,0.68726 14.381038,-1.39559 0.4877,-0.27582 0.4877,-0.27582 0.98525,-0.55722 -0.905702,-1.55779 -1.84401,-3.08757 -2.832591,-4.59719 -0.194306,-0.30384 -0.194306,-0.30384 -0.392561,-0.61381 -0.33016,-0.50343 -0.685246,-0.99133 -1.044261,-1.47582 -1.100205,0 -1.858195,0.83105 -2.709434,1.45279 z"
     fill="#000000"
     id="path3852"
     style="stroke-width:0.32338" />
</svg>
