<?xml version="1.0" encoding="UTF-8" standalone="no"?>
<svg
   version="1.0"
   width="100pt"
   height="100pt"
   viewBox="0 0 100 100"
   preserveAspectRatio="xMidYMid"
   id="svg1"
   sodipodi:docname="joinus.svg"
   inkscape:version="1.3 (1:1.3+202307231459+0e150ed6c4)"
   xmlns:inkscape="http://www.inkscape.org/namespaces/inkscape"
   xmlns:sodipodi="http://sodipodi.sourceforge.net/DTD/sodipodi-0.dtd"
   xmlns="http://www.w3.org/2000/svg"
   xmlns:svg="http://www.w3.org/2000/svg">
  <defs
     id="defs1" />
  <sodipodi:namedview
     id="namedview1"
     pagecolor="#ffffff"
     bordercolor="#000000"
     borderopacity="0.25"
     inkscape:showpageshadow="2"
     inkscape:pageopacity="0.0"
     inkscape:pagecheckerboard="0"
     inkscape:deskcolor="#d1d1d1"
     inkscape:document-units="pt"
     inkscape:zoom="3.7089183"
     inkscape:cx="93.827896"
     inkscape:cy="98.681063"
     inkscape:window-width="1892"
     inkscape:window-height="1018"
     inkscape:window-x="10"
     inkscape:window-y="44"
     inkscape:window-maximized="1"
     inkscape:current-layer="g1" />
  <g
     transform="matrix(0.1,0,0,-0.1,0,938)"
     fill="#000000"
     stroke="none"
     id="g1">
    <path
       d="m 691.55846,9366.2912 c -44.72059,-5.9523 -90.52706,-25.1667 -119.74845,-50.1245 -8.19383,-6.9966 -30.40606,-28.5084 -50.24895,-48.4538 -9.18103,-9.2939 -16.97999,-16.7082 -17.47359,-16.6038 -0.3949,0.2089 -10.46443,10.025 -22.31092,21.9295 -23.19943,23.1827 -28.33293,27.8818 -39.78452,36.0271 -35.63824,25.0622 -82.72812,42.2925 -129.71927,47.305 -16.97999,1.8797 -53.01311,0.8354 -68.21614,-1.9841 -54.59268,-9.9205 -99.31322,-34.6695 -139.69007,-77.3798 -39.093485,-41.2483 -64.859641,-86.8825 -76.508702,-135.1274 -8.193828,-34.2517 -9.477193,-68.9212 -3.850135,-105.0527 7.996397,-51.5865 33.565122,-109.9607 65.550712,-149.5382 9.08229,-11.1736 41.660215,-45.8431 56.468335,-60.045 l 11.55037,-11.0692 -12.53756,-13.7842 c -17.27616,-19.0056 -22.70583,-29.2393 -25.66746,-48.4538 -4.93603,-31.6411 11.15546,-64.5353 38.89605,-79.2594 10.56313,-5.639 16.88126,-6.9965 32.77536,-6.9965 h 15.00555 v -10.0249 c 0,-20.4676 6.71304,-37.3846 20.63266,-52.2131 9.47723,-9.9205 17.57233,-15.3507 29.51755,-19.5277 6.5156,-2.2974 9.47724,-2.7151 20.92883,-2.7151 l 13.32733,-0.1044 0.19743,-8.8762 c 0.19747,-11.5913 2.46803,-21.6163 7.20663,-31.85 7.40406,-15.7684 18.36209,-27.1508 34.05872,-35.0872 10.85929,-5.5346 20.13906,-7.5187 33.36765,-6.9966 l 10.56317,0.4177 v -9.5027 c 0,-27.7774 15.20299,-53.4662 38.99475,-65.8929 11.74778,-6.0567 19.44801,-8.0408 31.59067,-8.1452 11.94523,0 22.11349,2.2973 31.59069,7.2053 l 6.91046,3.5506 11.35289,-11.8002 c 6.21944,-6.4744 14.01836,-13.471 17.27616,-15.5595 8.8849,-5.639 20.04037,-9.1895 30.80092,-9.816 33.07153,-2.0886 64.46474,17.9612 78.878,50.3334 5.6271,12.7399 7.6015,21.6161 7.70023,35.0871 l 0.0987,11.0692 11.84649,0.6265 c 8.29257,0.3133 13.91967,1.1487 18.757,2.8195 36.03311,12.1135 60.71334,46.052 60.71334,83.4365 v 9.5028 h 7.30532 c 13.22864,0 28.03676,4.0726 39.48839,10.8603 8.09509,4.9081 11.84649,7.832 19.15186,15.5595 16.09149,16.6038 24.87766,38.7421 24.87766,62.1336 v 9.3983 l 13.12985,0.4178 c 11.35294,0.4177 14.1171,0.8354 21.6199,3.6549 13.32732,4.908 22.80452,11.0691 32.38045,21.1985 11.2542,11.9046 16.97999,22.4516 21.42242,39.7863 2.36934,9.1895 2.36934,31.2234 0,40.6218 -3.25776,12.9488 -8.68743,22.6605 -19.94158,35.8182 l -10.46444,12.2178 19.05313,21.7206 c 24.77896,28.2995 40.37685,46.7829 48.37324,57.1211 25.56873,33.8341 43.53592,84.8985 48.27452,137.3204 1.3821,15.5595 0.59233,45.9475 -1.48084,61.4025 -7.20659,51.2733 -26.95079,98.4739 -59.62741,141.9152 -10.06952,13.3665 -37.71138,42.9191 -49.55787,52.944 -21.81733,18.379 -51.33488,36.1315 -75.52151,45.321 -12.73499,4.908 -31.49195,9.9204 -45.41161,12.3222 -13.62346,2.2974 -50.05148,2.8196 -63.8724,0.9399 z m 43.14101,-33.9385 c 53.50675,-4.2815 100.30046,-28.2995 143.1453,-73.6204 42.64746,-45.1121 68.11745,-97.1163 75.02791,-153.2976 1.67827,-14.2019 1.97439,-42.1881 0.39486,-56.9123 -3.65266,-35.6092 -16.78252,-75.9178 -33.36765,-102.0243 -6.61429,-10.547 -15.89406,-21.9294 -45.41161,-55.6591 -11.15546,-12.8444 -21.52116,-24.8534 -22.90326,-26.5242 l -2.56673,-3.2372 -101.97869,112.4669 -101.97869,112.4669 -5.03477,-5.1168 c -19.34929,-19.9454 -107.11219,-105.0527 -113.23288,-109.8563 -19.34929,-15.1418 -43.14101,-26.3154 -69.49951,-32.581 -12.93242,-3.0284 -36.72418,-3.7593 -48.1758,-1.4619 -17.67102,3.5504 -42.05508,14.2019 -60.91077,26.7331 -9.18107,6.0566 -28.03676,20.6763 -33.76255,26.2109 l -3.7514,3.5505 31.29452,33.9385 c 120.63694,130.9504 205.73433,220.1303 243.64319,255.2175 30.60348,28.2994 74.92917,46.574 120.43947,49.7068 6.02201,0.4177 11.7478,0.8354 12.83373,0.8354 1.08594,0.1044 8.19383,-0.3133 15.79533,-0.8354 z m -416.10858,-11.9046 c 33.36769,-4.8036 65.25454,-16.0816 92.79766,-32.7898 17.76975,-10.7559 22.31092,-14.7241 50.6438,-43.3368 l 18.55953,-18.7968 -61.99671,-65.8928 c -59.52869,-63.1778 -150.25323,-161.4429 -153.21482,-165.8287 -1.2834,-1.9841 -0.49364,-2.924 10.46439,-14.3064 22.60709,-23.3915 50.84128,-45.0077 76.5087,-58.3742 46.69498,-24.4358 86.57822,-27.2553 136.531,-9.5028 23.59429,8.3541 44.62185,20.2587 61.99674,35.0872 3.75136,3.2372 26.16102,24.8534 49.85405,48.036 l 43.14101,42.2926 3.94887,-4.6992 c 2.17183,-2.6106 27.04952,-30.2836 55.38241,-61.507 81.14856,-89.4932 159.23679,-177.42 162.001,-182.2236 9.77336,-17.5436 5.42966,-43.3368 -9.77337,-58.2698 -14.21583,-13.8887 -34.55231,-17.8568 -49.16301,-9.6072 -4.44243,2.5063 -22.31092,19.841 -74.633,72.2629 -37.90882,37.9067 -69.10464,68.9213 -69.40081,68.9213 -0.29616,0 -5.72579,-5.5346 -11.94523,-12.3223 l -11.25415,-12.2179 67.2289,-71.323 c 52.71698,-55.868 67.72253,-72.3673 69.79571,-76.5444 8.09509,-17.2303 3.55392,-39.0554 -11.35294,-54.8237 -10.76056,-11.3825 -22.11345,-16.0816 -36.82288,-15.3506 -15.4992,0.7309 -11.05673,-3.2373 -88.45393,79.2594 l -68.611,73.0983 -11.84653,-12.5311 -11.84649,-12.6356 9.47719,-10.1293 c 5.23219,-5.6391 35.83568,-39.0554 68.0187,-74.3515 67.22894,-73.7248 64.66217,-70.1743 64.56348,-87.3002 -0.0987,-7.2054 -0.59234,-10.8603 -2.3693,-15.6639 -6.91046,-19.2145 -23.49559,-33.5208 -41.85769,-36.3403 -14.01836,-2.193 -23.89045,2.2973 -37.90881,17.3347 l -7.20663,7.7275 3.94883,5.1169 c 5.23223,6.5789 10.16826,16.7082 13.12989,26.5243 3.25781,11.278 3.25781,30.4924 0,41.7704 -6.5156,21.7207 -19.15185,37.6979 -37.21778,46.9918 -11.84649,6.0567 -18.75696,7.7275 -32.77536,7.6231 h -12.14266 v 7.2054 c 0,32.7898 -20.23779,62.1336 -49.85404,72.5761 -6.91046,2.4019 -9.57593,2.8196 -21.32373,2.8196 l -13.42602,0.1044 -0.59234,10.9648 c -0.98719,20.4675 -7.0092,34.8783 -20.92882,49.7068 -7.40406,7.9364 -10.36569,10.3382 -17.96722,14.3064 -12.53752,6.5788 -21.12625,8.4585 -36.23054,7.8319 l -11.94523,-0.5221 -0.0987,10.547 c -0.19743,33.5208 -20.23779,61.2982 -51.72974,71.8452 -10.56313,3.4461 -28.82649,3.4461 -39.48835,-0.1044 -16.68382,-5.4302 -18.06592,-6.5789 -55.77731,-46.1564 L 180.87529,8840.61 170.016,8851.1571 c -28.62906,27.6729 -55.87605,57.9565 -66.93277,74.247 -19.151864,28.195 -38.204988,73.8292 -44.621853,106.7235 -4.837333,24.8534 -6.022002,55.4502 -2.961633,77.2753 5.725794,41.2483 22.212188,79.9904 49.459176,116.4351 8.9836,12.009 36.52672,40.9351 46.30008,48.767 34.35489,27.3597 70.8816,42.6059 113.52906,47.2007 11.45163,1.2531 40.47554,0.5221 53.80287,-1.3576 z m -10.76056,-433.6817 c 7.89766,-4.0726 14.80813,-11.5913 18.46079,-19.9454 2.3693,-5.2213 2.66547,-7.2054 2.66547,-16.917 0,-18.3791 3.2578,-13.9931 -62.09544,-83.1233 -53.21058,-56.3901 -56.66582,-59.8361 -62.29287,-62.1335 -4.6399,-1.8797 -7.89771,-2.4018 -14.90686,-2.5062 -8.29257,0 -9.3785,0.2088 -16.3877,3.9682 -8.58869,4.4903 -14.01836,10.2337 -18.26336,19.4232 -2.46803,5.2213 -2.76416,6.8922 -2.76416,16.917 0,18.1702 -2.17187,15.2463 59.6274,81.4525 29.02396,31.0145 54.79012,57.9564 57.25811,59.7317 7.4041,5.4302 13.1299,7.101 23.29816,6.7877 7.79893,-0.3133 9.77336,-0.731 15.40046,-3.6549 z m 78.08824,-80.8259 c 20.04032,-4.4903 33.95997,-25.4799 30.50475,-46.2607 -2.2706,-13.6798 -1.77697,-13.0533 -61.20698,-76.1267 -59.42997,-63.1778 -59.52871,-63.2822 -72.06623,-65.3707 -30.20863,-5.1169 -53.90161,28.2995 -40.67302,57.5388 2.66547,5.8478 9.08233,13.1577 57.15941,64.5353 56.86325,60.776 58.64021,62.5513 69.79567,65.3708 6.41687,1.6708 10.06953,1.7752 16.4864,0.3132 z m 89.24368,-84.063 c 5.42963,-1.5664 13.32733,-7.2054 17.37485,-12.4267 1.38211,-1.6708 3.7514,-5.7434 5.33094,-8.8762 2.66546,-5.3257 2.86289,-6.5788 2.86289,-17.2303 0,-18.9012 3.35654,-14.4108 -61.1082,-82.81 -59.43,-63.0733 -59.0351,-62.7601 -71.47392,-65.1619 -16.28897,-3.2372 -33.66386,6.5789 -41.06792,23.1826 -2.76416,6.1612 -3.06033,7.7276 -3.06033,17.2303 0,18.0658 -2.56677,14.5153 61.40441,82.81 49.06426,52.3175 55.67856,59.0007 60.81206,61.4026 9.87206,4.6991 17.76976,5.2213 28.92522,1.8796 z m 89.44113,-84.8984 c 19.25055,-9.7117 27.24695,-34.3562 17.67102,-54.8237 -2.56673,-5.5346 -10.46439,-14.4108 -58.04787,-65.0575 -62.19418,-66.2062 -59.62745,-63.9088 -74.92917,-64.8487 -9.8721,-0.5221 -16.68383,1.3576 -24.08789,6.7877 -15.40045,11.3825 -20.92881,32.1633 -13.32732,50.4379 2.66547,6.37 6.31812,10.547 57.653,65.0574 30.40602,32.2677 56.86324,59.5229 59.23254,61.0893 10.3657,6.4744 24.68022,7.101 35.83569,1.3576 z m 17.17742,-126.6689 c 9.97083,-10.8604 12.04396,-14.0976 14.31453,-21.9295 4.44247,-15.1418 0.0987,-32.3721 -11.55033,-45.7387 -10.06953,-11.3824 -22.01475,-17.2303 -35.44082,-17.1259 -12.53756,0.2089 -17.57233,2.7151 -29.91242,15.4551 l -10.16826,10.4426 31.88685,33.7297 c 17.57233,18.5878 32.08429,33.7296 32.47919,33.7296 0.29617,0 4.04757,-3.8638 8.39126,-8.5629 z"
       id="path1"
       style="stroke-width:0.101533;fill:#ffd91d;fill-opacity:1" />
  </g>
</svg>
