<?xml version="1.0" encoding="UTF-8" standalone="no"?>
<svg
   version="1.1"
   width="86"
   height="70"
   id="svg32"
   sodipodi:docname="crown.svg"
   inkscape:version="1.1.2 (0a00cf5339, 2022-02-04)"
   xmlns:inkscape="http://www.inkscape.org/namespaces/inkscape"
   xmlns:sodipodi="http://sodipodi.sourceforge.net/DTD/sodipodi-0.dtd"
   xmlns="http://www.w3.org/2000/svg"
   xmlns:svg="http://www.w3.org/2000/svg">
  <defs
     id="defs36" />
  <sodipodi:namedview
     id="namedview34"
     pagecolor="#ffffff"
     bordercolor="#666666"
     borderopacity="1.0"
     inkscape:pageshadow="2"
     inkscape:pageopacity="0.0"
     inkscape:pagecheckerboard="0"
     showgrid="false"
     inkscape:zoom="4"
     inkscape:cx="45"
     inkscape:cy="44.875"
     inkscape:window-width="1920"
     inkscape:window-height="1000"
     inkscape:window-x="0"
     inkscape:window-y="0"
     inkscape:window-maximized="1"
     inkscape:current-layer="svg32" />
  <path
     d="m 42.346222,5.2754768 c 0.529764,0.1751198 0.554105,0.3015233 0.80597,0.7817927 0.111465,0.2106076 0.111465,0.2106076 0.225288,0.4254791 0.169038,0.3319358 0.336419,0.6642604 0.50153,0.9980961 0.480786,0.9710585 0.977036,1.9187932 1.540537,2.8455253 0.699764,1.151283 1.322316,2.338201 1.937263,3.53586 0.408321,0.791667 0.8352,1.562571 1.302479,2.321481 0.331697,0.541318 0.645843,1.092008 0.958402,1.644323 0.06256,0.108505 0.125112,0.216876 0.189589,0.328577 0.298106,0.527497 0.551059,0.982799 0.616387,1.595165 -0.09356,0 -0.187077,0 -0.283419,0 -1.321079,3.200084 -1.975206,6.31744 -0.646562,9.636222 0.187057,0.441424 0.363143,0.764209 0.669242,1.137 0.260739,0.329941 0.260739,0.329941 0.260739,0.751585 0.09355,0 0.187058,0 0.28342,0 0.142835,0.233575 0.284287,0.467979 0.425131,0.702734 0.770608,0.853749 1.573569,1.738294 2.692467,2.108207 0,0.09282 0,0.185511 0,0.281076 0.09486,0.03654 0.189609,0.07326 0.287293,0.110913 0.405179,0.163686 0.804177,0.338559 1.203267,0.516236 3.650093,1.616588 7.308248,2.034353 11.090507,0.602476 2.650355,-1.079166 4.922972,-2.789575 6.974872,-4.743283 0.134706,-0.127897 0.269635,-0.255813 0.40852,-0.387592 0.878532,-0.851918 1.665306,-1.748277 2.425676,-2.704426 0.100952,-0.123644 0.202043,-0.247488 0.306118,-0.374969 0.988755,-1.131223 0.988755,-1.131223 1.677817,-2.435955 0.09356,0 0.187059,0 0.28342,0 0.01474,-0.08064 0.02953,-0.161281 0.04483,-0.244315 0.113108,-0.371075 0.278217,-0.596677 0.513139,-0.906413 1.367196,-1.900009 2.381457,-3.961007 3.375713,-6.069933 0.313188,-0.656805 0.645196,-1.3039 0.977981,-1.951108 0.176238,-0.357587 0.329887,-0.716596 0.473296,-1.088133 0.09356,0 0.187058,0 0.283419,0 0.09284,7.763826 0.09284,7.763826 -0.425131,11.103168 -0.02658,0.172907 -0.05315,0.345647 -0.08062,0.523692 -0.163873,1.04019 -0.346108,2.075526 -0.545303,3.109584 -0.074,0.395881 -0.138415,0.791799 -0.199487,1.189782 -0.240605,1.425105 -0.240605,1.425105 -0.772214,1.97589 -0.386376,0.272309 -0.386376,0.272309 -0.802094,0.519909 -2.602134,1.620796 -4.108308,4.743354 -5.447528,7.368259 -0.06846,0.133605 -0.06846,0.133605 -0.138229,0.270042 -0.441588,0.882182 -0.778247,1.762985 -1.006786,2.723302 -0.08894,0.356442 -0.192166,0.707276 -0.297038,1.059456 -0.978386,3.307857 -1.554396,6.585378 -1.862028,10.018041 -0.04392,0.335185 -0.04392,0.335185 -0.185574,0.616279 -0.617644,-0.187186 -1.212974,-0.37556 -1.780219,-0.685168 -0.802132,-0.410107 -1.668796,-0.639272 -2.530643,-0.892556 -0.402449,-0.119768 -0.803255,-0.244369 -1.204191,-0.369066 -1.742796,-0.535428 -3.491384,-1.002615 -5.272605,-1.391187 -0.171608,-0.03782 -0.343227,-0.07567 -0.520056,-0.114601 -2.853037,-0.604689 -5.712071,-0.98394 -8.622184,-1.179167 -0.485583,-0.03265 -0.970967,-0.06735 -1.456368,-0.102608 -8.821178,-0.627626 -18.113674,-0.635156 -26.795024,1.220727 -0.154827,0.0323 -0.309531,0.0644 -0.468995,0.09782 -2.196326,0.461669 -4.339152,1.044784 -6.474782,1.72938 -0.203918,0.06456 -0.203918,0.06456 -0.411972,0.130471 -0.403409,0.12788 -0.806227,0.257508 -1.208823,0.387868 -0.179745,0.05758 -0.179745,0.05758 -0.363308,0.116256 -0.564337,0.18612 -1.09567,0.390493 -1.6256,0.65939 -0.499868,0.251992 -0.499868,0.251992 -0.783287,0.251992 -0.01662,-0.130658 -0.03396,-0.261236 -0.05149,-0.395806 C 12.33502,50.970267 11.672791,47.472516 10.432134,43.976701 10.314212,43.628414 10.211237,43.277712 10.109389,42.924498 9.9250312,42.307002 9.6880796,41.747416 9.3897676,41.176444 9.3168734,41.034718 9.3168734,41.034718 9.2425032,40.890239 8.0939328,38.690037 6.7921558,36.585781 5.173926,34.693727 5.0960495,34.602562 5.0183573,34.511583 4.9381739,34.417651 4.4429373,33.857639 3.9490293,33.474238 3.3139835,33.068668 1.9616053,31.98681 1.9235159,30.068866 1.6754731,28.465769 1.6422556,28.256791 1.6088536,28.047817 1.5754514,27.838861 1.0574978,24.571493 0.80393699,21.402596 0.81639374,18.091673 c 7.3803e-4,-0.33022 0.001476,-0.660458 0.001844,-0.990696 0.001476,-0.802924 0.0037,-1.605845 0.007385,-2.408771 0.0935633,0 0.18706946,0 0.28341956,0 0.082674,0.197019 0.082674,0.197019 0.1671935,0.39804 0.5684259,1.331341 1.2115176,2.608002 1.8998034,3.882042 0.2982938,0.552851 0.5791296,1.111773 0.8557946,1.675585 0.4157728,0.836546 0.8910789,1.616697 1.3988277,2.400263 0.213109,0.357956 0.213109,0.357956 0.213109,0.639051 0.093564,0 0.1870693,0 0.2834193,0 0,0.139126 0,0.27827 0,0.421639 0.093564,0 0.1870694,0 0.2834192,0 0,0.139127 0,0.278272 0,0.421644 0.093564,0 0.1870695,0 0.2834196,0 0,0.139126 0,0.278271 0,0.421639 0.093564,0 0.1870524,0 0.2834194,0 0.070125,0.159453 0.1402543,0.318852 0.2125743,0.483112 0.3096797,0.615395 0.7167975,1.075694 1.1862539,1.577319 0.2976475,0.324443 0.570179,0.659312 0.8419537,1.005234 1.1983421,1.499552 2.5822771,3.093348 4.1106891,4.269102 0.101868,0.08416 0.203862,0.168124 0.308885,0.254741 0,0.09284 0,0.185532 0,0.281096 0.136009,0.02176 0.136009,0.02176 0.274562,0.04392 0.144682,0.04778 0.144682,0.04778 0.292278,0.0967 0.04669,0.139126 0.09356,0.27827 0.141728,0.421639 0.281868,0.09817 0.565675,0.190924 0.850257,0.281098 0.336734,0.193259 0.664222,0.390398 0.991969,0.597304 3.166888,1.933797 6.755104,2.719021 10.416765,1.958321 1.336581,-0.321433 2.81775,-0.821781 3.951817,-1.607488 0.36923,-0.24542 0.36923,-0.24542 0.79436,-0.24542 0,-0.09284 0,-0.185533 0,-0.281078 0.125475,-0.05685 0.250994,-0.113873 0.380285,-0.172352 0.733223,-0.388869 1.286109,-0.951091 1.887072,-1.514166 0.13452,-0.121801 0.268897,-0.243504 0.407415,-0.368937 0.29748,-0.329757 0.512158,-0.664757 0.721836,-1.054657 0.152626,-0.27471 0.324273,-0.529579 0.5004,-0.790025 1.3493,-2.137012 1.445352,-4.678413 0.921125,-7.080576 -0.198135,-0.760683 -0.445817,-1.497467 -0.710211,-2.237756 -0.140058,-0.4145 -0.140058,-0.4145 -0.140058,-0.695592 -0.09355,0 -0.187078,0 -0.283416,0 -0.283422,-0.421642 -0.283422,-0.421642 -0.269581,-0.727446 0.180124,-0.559331 0.462239,-1.040077 0.756695,-1.547661 0.131031,-0.230031 0.26203,-0.460064 0.393017,-0.690092 0.131742,-0.229683 0.263509,-0.459347 0.395254,-0.689027 0.216615,-0.380028 0.43203,-0.76072 0.646545,-1.141928 0.08211,-0.145969 0.08211,-0.145969 0.165904,-0.29486 1.033029,-1.847966 2.01802,-3.72258 3.013664,-5.5905315 0.09355,0 0.187056,0 0.283417,0 0.03801,-0.1245615 0.07605,-0.2492988 0.115165,-0.37772 0.158164,-0.4376971 0.350553,-0.7732868 0.593413,-1.1682977 0.0585,-0.1421005 0.116821,-0.284065 0.177162,-0.4304256 0.327176,-0.7892679 0.798717,-1.5097569 1.239955,-2.2399517 z"
     fill="#231f20"
     id="path4"
     style="fill:#b87333;fill-opacity:1;stroke-width:0.141127" />
  <path
     d="m 40.957839,52.349237 c 6.299797,-0.114437 12.583376,0.374068 18.782694,1.476521 0.473146,0.08084 0.947069,0.151694 1.422078,0.221006 0.732209,0.110349 1.442326,0.253339 2.156634,0.446351 0.112556,0.03027 0.225287,0.06072 0.341348,0.09191 0.359338,0.09873 0.717645,0.20041 1.075746,0.303408 0.119932,0.03413 0.239944,0.06846 0.363548,0.103712 2.552548,0.743209 5.96255,1.837597 7.39395,4.247213 0.309939,0.74365 0.354742,1.537568 0.04871,2.293767 -0.382186,0.637058 -0.872551,1.156781 -1.429278,1.64757 -0.09356,0 -0.187055,0 -0.283417,0 0,0.09284 0,0.185512 0,0.281095 -1.197422,0.872698 -2.578976,1.349167 -3.967877,1.827093 -0.136196,0.04981 -0.272547,0.09966 -0.412945,0.150933 -0.808314,0.288548 -0.808314,0.288548 -1.28757,0.130098 0.107576,-0.06607 0.215196,-0.1323 0.32605,-0.200366 0.140819,-0.08747 0.281685,-0.174943 0.426789,-0.265186 0.139703,-0.08636 0.279488,-0.172906 0.423468,-0.261866 0.375987,-0.234532 0.375987,-0.234532 0.627739,-0.499608 0.05942,-0.05888 0.118665,-0.117737 0.179937,-0.178441 0.09357,0 0.187057,0 0.28342,0 0.04095,-0.101505 0.08195,-0.202922 0.123995,-0.307448 0.159451,-0.395289 0.159451,-0.395289 0.327711,-0.729088 0.20535,-0.657966 0.06589,-1.169533 -0.23913,-1.774406 -2.215315,-2.636551 -6.609034,-3.699789 -9.884528,-4.142342 -0.51749,-0.07215 -1.032159,-0.154269 -1.547455,-0.2404 -3.937092,-0.650843 -7.886619,-1.020333 -11.879258,-1.09856 -0.138415,-0.0038 -0.276664,-0.0056 -0.419186,-0.0093 -5.279283,-0.102784 -10.586191,0.289991 -15.782635,1.209598 -0.351735,0.06016 -0.703639,0.113873 -1.056872,0.164616 -1.62037,0.235698 -3.153322,0.651693 -4.706316,1.164995 -0.171055,0.05647 -0.342324,0.113108 -0.518673,0.171259 -1.626163,0.580071 -3.915611,1.520092 -4.733446,3.131548 -0.194305,0.719492 -0.134333,1.219971 0.230291,1.871032 0.06717,0.101505 0.134519,0.202902 0.203696,0.307448 0,0.09284 0,0.185511 0,0.281075 0.08028,0.03782 0.160367,0.07566 0.243005,0.114801 0.339448,0.174387 0.652134,0.369307 0.970395,0.579205 0.108316,0.07087 0.216654,0.141734 0.328246,0.214663 0.271553,0.194916 0.497394,0.39505 0.72571,0.637392 -0.987663,-0.192649 -1.896993,-0.480978 -2.834188,-0.843234 -0.209069,-0.07825 -0.209069,-0.07825 -0.422362,-0.158164 -1.785941,-0.696584 -3.132931,-1.553727 -4.138906,-3.21115 -0.269487,-0.6669 -0.246936,-1.471171 -0.0011,-2.142237 0.174022,-0.300673 0.365798,-0.550877 0.59452,-0.813073 0.07474,-0.08729 0.14948,-0.17459 0.226413,-0.264635 3.065242,-3.083768 8.475015,-4.019415 12.643078,-4.590738 0.420074,-0.05942 0.839445,-0.12234 1.25878,-0.186605 4.589854,-0.702792 9.173929,-1.055913 13.817281,-1.151412 z"
     fill="#242122"
     id="path6"
     style="fill:#b87333;fill-opacity:1;stroke-width:0.141127" />
  <path
     d="m 64.31121,14.551551 c 0.09506,0.228147 0.189418,0.456593 0.283422,0.685167 0.0526,0.127152 0.105205,0.254354 0.159452,0.385395 0.124021,0.334908 0.124021,0.334908 0.124021,0.616002 0.09356,0 0.187078,0 0.283423,0 0.108504,0.235328 0.108504,0.235328 0.219216,0.475434 0.682414,1.462091 1.416801,2.882916 2.21657,4.285636 0.07031,0.12456 0.140618,0.249243 0.212968,0.377648 0.06313,0.110348 0.12622,0.220673 0.191286,0.334352 0.135824,0.289325 0.135824,0.289325 0.135824,0.710965 -0.228053,0.170131 -0.228053,0.170131 -0.531407,0.333799 -0.510202,0.294125 -0.814825,0.598673 -1.169109,1.071672 -0.09356,0 -0.187057,0 -0.28342,0 -0.68286,2.125461 -0.770459,4.182532 0.229184,6.235653 0.345131,0.651746 0.691589,1.302884 1.046554,1.949427 0.0546,0.100376 0.109433,0.200817 0.16572,0.304254 0.04981,0.09063 0.09966,0.181217 0.150931,0.27447 0.108128,0.231177 0.108128,0.231177 0.108128,0.512269 -3.256705,1.631703 -7.309207,1.690406 -10.769938,0.702736 -1.229107,-0.409166 -2.570079,-0.961591 -3.542747,-1.827113 0,-0.09284 0,-0.18551 0,-0.281094 0.350745,-0.139127 0.350745,-0.139127 0.70855,-0.281094 0,-0.09284 0,-0.185508 0,-0.281094 0.131589,-0.06091 0.263064,-0.1218 0.398573,-0.184547 1.218385,-0.69015 2.697174,-2.139728 3.144172,-3.469739 0.09355,0 0.187076,0 0.283418,0 0.03949,-0.100952 0.07898,-0.201825 0.11958,-0.305805 0.158521,-0.383884 0.335813,-0.752803 0.51812,-1.126019 0.581474,-1.272803 0.883513,-2.598809 0.374196,-3.951227 -0.233687,-0.487612 -0.470544,-0.852324 -0.87019,-1.222645 0.218425,-0.521793 0.539693,-0.840625 0.947697,-1.229767 0.523989,-0.501108 1.007525,-1.021698 1.483346,-1.566945 0.518769,-0.585922 1.064404,-1.1473 1.605202,-1.713121 0.08877,-0.09321 0.177349,-0.186434 0.268749,-0.282462 0.129387,-0.135824 0.129387,-0.135824 0.261349,-0.27458 0.319923,-0.347991 0.617974,-0.711703 0.911599,-1.081708 0.190449,-0.176044 0.190449,-0.176044 0.615577,-0.176044 z"
     fill="#242021"
     id="path8"
     style="fill:#b87333;fill-opacity:1;stroke-width:0.141127" />
  <path
     d="m 20.664636,14.551551 c 0.550043,0.07622 0.754274,0.298072 1.107102,0.711519 0.579148,0.661436 1.174018,1.304138 1.780238,1.941287 0.779708,0.821637 1.552403,1.6489 2.317718,2.483731 0.289269,0.310089 0.584886,0.610724 0.888459,0.906968 -0.162213,0.348676 -0.337693,0.63621 -0.56684,0.948677 -0.634198,1.022104 -0.641654,1.974449 -0.425131,3.12717 0.488888,1.83933 1.576653,3.372745 2.834197,4.778586 0.09024,0.101304 0.180495,0.202534 0.273453,0.306893 0.753356,0.795227 1.63364,1.365629 2.560742,1.941841 -0.190644,0.567247 -0.551983,0.702054 -1.053976,0.975046 -0.09097,0.04984 -0.182141,0.09966 -0.275909,0.151134 -0.264004,0.142464 -0.529377,0.281815 -0.795762,0.419855 -0.112945,0.05888 -0.225786,0.117736 -0.342104,0.178438 -3.167956,1.43389 -7.477029,1.36563 -10.708488,0.189977 -0.386634,-0.157792 -0.763394,-0.322027 -1.136447,-0.508931 0.192367,-0.650637 0.465841,-1.171914 0.823686,-1.748056 1.124783,-1.891701 1.75298,-3.998506 1.261546,-6.193374 -0.31946,-1.106402 -0.85919,-1.78343 -1.801813,-2.459021 -0.186553,-0.09836 -0.374896,-0.193561 -0.566837,-0.281094 0.08526,-0.645083 0.356866,-1.158038 0.667598,-1.720592 0.05222,-0.09652 0.104453,-0.193006 0.158334,-0.292427 0.166633,-0.307427 0.334536,-0.614191 0.502581,-0.920882 0.166819,-0.305787 0.33343,-0.6117 0.499537,-0.917892 0.103148,-0.189998 0.206743,-0.379788 0.31088,-0.569276 0.313608,-0.576104 0.584958,-1.157721 0.836952,-1.762964 0.09356,0 0.187057,0 0.28342,0 0.04096,-0.173833 0.08174,-0.347862 0.123996,-0.527053 0.104641,-0.418063 0.222446,-0.7848 0.442847,-1.159515 z"
     fill="#242021"
     id="path10"
     style="fill:#b87333;fill-opacity:1;stroke-width:0.141127" />
  <path
     d="m 63.886081,14.551551 c 0.140261,0 0.280598,0 0.425129,0 0.221434,0.395289 0.221434,0.395289 0.425129,0.843281 -0.0467,0.139126 -0.09356,0.27827 -0.141734,0.421643 -0.140261,0.04632 -0.280576,0.09284 -0.42513,0.140618 -0.236223,0.210777 -0.236223,0.210777 -0.425125,0.421623 -0.280574,-0.09284 -0.561169,-0.185512 -0.850257,-0.281078 -0.108128,0.11016 -0.216281,0.220307 -0.32769,0.333783 -0.380859,0.368933 -0.380859,0.368933 -0.805988,0.650032 0.221803,-0.536871 0.565051,-0.865503 0.983112,-1.264908 0.508558,-0.484476 0.508558,-0.484476 0.94825,-1.02775 0.06402,-0.07825 0.128252,-0.156487 0.194291,-0.237174 z"
     fill="#2c2a2b"
     id="path12"
     style="fill:#b87333;fill-opacity:1;stroke-width:0.141127" />
  <path
     d="m 17.263598,63.883381 c 0.09356,0 0.187052,0 0.283421,0 0,0.09284 0,0.185535 0,0.281097 0.08028,0.03782 0.160365,0.07567 0.243005,0.114789 0.339446,0.174388 0.652134,0.369324 0.970395,0.57922 0.108316,0.07087 0.216652,0.141736 0.328245,0.214665 0.271552,0.194915 0.497395,0.39505 0.725708,0.637389 -0.963878,-0.188045 -1.951233,-0.403851 -2.834193,-0.843264 -0.0467,-0.139126 -0.09356,-0.27829 -0.141717,-0.421639 0.186,-0.307447 0.186,-0.307447 0.425129,-0.562192 z"
     fill="#2b2a2a"
     id="path14"
     style="fill:#b87333;fill-opacity:1;stroke-width:0.141127" />
  <path
     d="m 20.664636,14.551551 c 0.247984,0.01847 0.247984,0.01847 0.566834,0.140616 0.318853,0.430425 0.318853,0.430425 0.566841,0.843284 -0.280578,0.139126 -0.280578,0.139126 -0.566841,0.281092 0.0467,0.139127 0.09356,0.278271 0.141736,0.421642 -0.54912,-0.263525 -0.54912,-0.263525 -0.708549,-0.421642 -0.140261,-0.04632 -0.280574,-0.09284 -0.425128,-0.140617 0.265702,-0.808149 0.265702,-0.808149 0.425128,-1.124379 z"
     fill="#312d2e"
     id="path16"
     style="fill:#b87333;fill-opacity:1;stroke-width:0.141127" />
  <path
     d="m 42.346222,5.2754768 c 0.425129,0.1406203 0.425129,0.1406203 0.664258,0.5534046 0.186006,0.4304256 0.186006,0.4304256 0.186006,0.7115192 -0.08766,-0.023252 -0.175314,-0.046329 -0.265706,-0.070309 -0.432123,-0.1009452 -0.728017,-0.041715 -1.151392,0.070309 0.150018,-0.4782963 0.284692,-0.8451833 0.566839,-1.2649238 z"
     fill="#2a2829"
     id="path18"
     style="fill:#b87333;fill-opacity:1;stroke-width:0.141127" />
  <path
     d="m 54.249822,31.136035 c 0.14026,0 0.280596,0 0.425129,0 -0.0467,0.139128 -0.09356,0.278289 -0.141735,0.421641 0.05574,0.370762 0.05574,0.370762 0.141735,0.702734 -0.425129,0.140617 -0.425129,0.140617 -0.805969,-0.04392 -0.108128,-0.07825 -0.216284,-0.156488 -0.32771,-0.237174 0,-0.09284 0,-0.185512 0,-0.281094 0.233833,-0.09284 0.467647,-0.185512 0.70855,-0.281095 0,-0.09284 0,-0.185509 0,-0.281092 z"
     fill="#2c292a"
     id="path20"
     style="fill:#b87333;fill-opacity:1;stroke-width:0.141127" />
  <path
     d="m 73.805765,30.433301 c 0.0467,0.185508 0.09356,0.371058 0.141734,0.562187 -0.101304,0.05593 -0.202749,0.112029 -0.307226,0.169593 -0.428856,0.269286 -0.780873,0.5702 -1.154162,0.910808 -0.125112,0.113672 -0.250255,0.227191 -0.379178,0.344226 -0.09412,0.08636 -0.188151,0.172908 -0.285082,0.261885 -0.09356,-0.04632 -0.187056,-0.09284 -0.283417,-0.140617 0.19208,-0.175314 0.19208,-0.175314 0.388035,-0.354122 0.168851,-0.154269 0.337675,-0.308534 0.506514,-0.462811 0.08433,-0.07694 0.168682,-0.153709 0.255459,-0.233058 0.08175,-0.07472 0.1635,-0.149475 0.247714,-0.226469 0.07494,-0.06846 0.149847,-0.136924 0.227133,-0.207411 0.218682,-0.203907 0.431386,-0.412745 0.642497,-0.62434 z"
     fill="#403e3f"
     id="path22"
     style="fill:#b87333;fill-opacity:1;stroke-width:0.141127" />
  <path
     d="m 9.7529827,29.027847 c 0.5554163,0.534656 1.0615593,1.098467 1.5588073,1.686548 -0.187052,0 -0.374103,0 -0.566839,0 -0.254668,-0.27722 -0.480566,-0.547094 -0.708549,-0.843285 -0.1393294,-0.142836 -0.279636,-0.284932 -0.4251287,-0.421621 0.046691,-0.139126 0.093564,-0.27829 0.1417262,-0.421642 z"
     fill="#393738"
     id="path24"
     style="fill:#b87333;fill-opacity:1;stroke-width:0.141127" />
  <path
     d="m 74.79773,29.449489 c 0,0.450298 -0.105368,0.71593 -0.283417,1.124358 -0.187058,-0.09284 -0.374104,-0.185512 -0.56684,-0.281093 0.280578,-0.278272 0.561173,-0.55656 0.850257,-0.843265 z"
     fill="#3b393a"
     id="path26"
     style="fill:#b87333;fill-opacity:1;stroke-width:0.141127" />
  <path
     d="m 18.680697,65.00776 c 0.516606,0.179921 0.732171,0.304513 1.133675,0.702717 -0.631315,-0.139126 -0.631315,-0.139126 -1.275387,-0.281092 0.0467,-0.139126 0.09356,-0.278274 0.141718,-0.421625 z"
     fill="#414040"
     id="path28"
     style="fill:#b87333;fill-opacity:1;stroke-width:0.141127" />
  <path
     d="m 67.145407,64.164478 c 0.09356,0.04634 0.187058,0.09284 0.283419,0.140617 -0.371981,0.68515 -0.371981,0.68515 -0.850259,0.843284 -0.09356,-0.09281 -0.187057,-0.185532 -0.28342,-0.281092 0.280596,-0.231917 0.561173,-0.463811 0.85026,-0.702737 z"
     fill="#3f3e3f"
     id="path30"
     style="fill:#b87333;fill-opacity:1;stroke-width:0.141127" />
</svg>
