<?xml version="1.0" encoding="UTF-8" standalone="no"?>
<!-- Created with Inkscape (http://www.inkscape.org/) -->

<svg
   width="63mm"
   height="60mm"
   viewBox="0 0 63 60"
   version="1.1"
   id="svg1"
   inkscape:version="1.3 (1:1.3+202307231459+0e150ed6c4)"
   sodipodi:docname="iconlogo.svg"
   xmlns:inkscape="http://www.inkscape.org/namespaces/inkscape"
   xmlns:sodipodi="http://sodipodi.sourceforge.net/DTD/sodipodi-0.dtd"
   xmlns="http://www.w3.org/2000/svg"
   xmlns:svg="http://www.w3.org/2000/svg">
  <sodipodi:namedview
     id="namedview1"
     pagecolor="#ffffff"
     bordercolor="#000000"
     borderopacity="0.25"
     inkscape:showpageshadow="2"
     inkscape:pageopacity="0.0"
     inkscape:pagecheckerboard="0"
     inkscape:deskcolor="#d1d1d1"
     inkscape:document-units="mm"
     inkscape:zoom="0.84100811"
     inkscape:cx="439.94819"
     inkscape:cy="323.42137"
     inkscape:window-width="1894"
     inkscape:window-height="1020"
     inkscape:window-x="10"
     inkscape:window-y="44"
     inkscape:window-maximized="1"
     inkscape:current-layer="layer1" />
  <defs
     id="defs1" />
  <g
     inkscape:label="Layer 1"
     inkscape:groupmode="layer"
     id="layer1">
    <g
       id="g25"
       transform="matrix(0.12978482,0,0,0.12747104,-4.3060048,-5.0288115)">
      <path
         fill-rule="evenodd"
         clip-rule="evenodd"
         d="M 375.584,345.685 C 428.798,321.245 322.862,308.62 166.92,306.829 146.091,306.598 57.9222,247.376 40.6466,174.287 21.6377,93.9181 95.5355,36.0826 119.138,51.047 c 5.691,3.6111 -51.2492,26.2022 -17.247,86.204 46.598,82.189 206.064,114.343 239.084,113.823 32.992,-0.52 110.472,-4.536 131.532,60.291 21.06,64.826 -26.087,128.151 -109.287,143.895 -83.951,15.889 -168.538,-10.4 -217.273,23.949 0,0 -14.387,-22.331 64.74,-64.595 141.497,-75.603 119.888,-48.245 164.897,-68.929 z"
         fill="#bfd7ed"
         id="path1" />
      <path
         fill-rule="evenodd"
         clip-rule="evenodd"
         d="m 348.547,355.043 c 1.3,3.092 2.253,6.472 2.773,10.169 6.385,45.558 -46.308,51.625 -111.915,47.638 -10.313,-0.635 -19.76,0 -28.311,1.531 101.804,-54.369 118.935,-55.293 137.482,-59.366 z"
         fill="#009aac"
         id="path2" />
      <path
         fill-rule="evenodd"
         clip-rule="evenodd"
         d="m 125.436,498.593 c 0,0 -33.5977,-68.033 93.918,-116.104 84.442,-31.836 119.831,-28.658 119.831,-28.658 L 207.972,332.944 c 0,0 -172.9003,81.872 -82.536,165.649 z"
         fill="#bfd7ed"
         id="path3" />
      <path
         fill-rule="evenodd"
         clip-rule="evenodd"
         d="m 216.753,383.471 c -124.4529,48.013 -91.317,115.122 -91.317,115.122 -0.376,-0.347 -0.78,-0.722 -1.156,-1.098 -15.773,-29.871 -21.724,-80.542 43.593,-119.195 l 63.614,-13.087 -14.705,18.258 z"
         fill="#009aac"
         id="path4" />
      <path
         fill-rule="evenodd"
         clip-rule="evenodd"
         d="m 136.178,73.5792 c 0,0 -39.2308,47.4648 32.125,82.9398 34.118,16.958 91.549,37.094 151.609,51.538 65.491,15.773 133.351,26.751 157.617,69.16 0,0 21.725,-61.678 -80.397,-103.711 C 355.532,156.375 319.854,145.05 289.405,137.135 179.569,108.564 138.345,124.539 136.178,73.5792 Z"
         fill="#bfd7ed"
         id="path5" />
      <path
         fill-rule="evenodd"
         clip-rule="evenodd"
         d="m 478.835,271.324 c -0.578,3.755 -1.329,5.893 -1.329,5.893 C 453.24,234.808 385.38,223.801 319.889,208.057 259.829,193.613 202.426,173.477 168.28,156.519 96.953,121.044 136.155,73.5792 136.155,73.5792 c 0.029,0.6645 0.058,1.3 0.116,1.9645 -3.149,21.2044 3.033,44.8643 36.313,60.4063 70.865,33.107 254.482,-13.462 306.222,135.374 z"
         fill="#009aac"
         id="path6" />
      <path
         fill-rule="evenodd"
         clip-rule="evenodd"
         d="m 156.691,470.195 c 0.231,-1.416 1.503,-3.438 2.543,-4.045 1.097,-0.664 2.022,-0.635 2.022,0.087 0,0.982 -3.64,5.055 -4.536,5.055 -0.115,0 -0.144,-0.491 -0.029,-1.097 z m -9.909,-3.814 c 4.218,-5.026 9.707,-10.486 16.265,-16.235 7.713,-6.76 16.813,-12.509 25.422,-16.063 13.838,-5.691 23.891,-8.782 39.78,-12.22 1.473,-0.288 2.976,-0.722 3.438,-0.866 0.924,-0.376 4.998,-0.867 4.998,-0.549 0,0.202 -0.549,0.318 -5.923,1.415 -1.704,0.347 -3.437,0.78 -3.842,0.954 -0.404,0.144 -1.415,0.404 -2.224,0.549 -2.051,0.346 -9.014,2.166 -13.289,3.437 -13.173,3.872 -27.791,9.996 -35.967,15.052 -8.204,5.084 -17.969,13.722 -26.173,23.255 -1.3,1.502 -2.485,2.918 -3.582,4.247 0.289,-0.925 0.635,-1.936 1.097,-2.976 z m 27.416,-0.058 c 2.022,-1.791 4.391,-3.755 6.442,-5.286 4.738,-3.582 9.534,-6.24 17.305,-9.534 2.369,-1.011 4.824,-2.08 5.46,-2.368 4.189,-1.994 6.124,-2.774 7.944,-3.294 1.156,-0.289 4.16,-1.155 6.702,-1.878 2.543,-0.722 5.229,-1.386 5.98,-1.473 0.78,-0.087 1.965,-0.347 2.629,-0.578 2.225,-0.751 3.582,-1.04 5.576,-1.213 1.069,-0.087 2.34,-0.289 2.802,-0.433 1.184,-0.347 8.84,-1.618 13.318,-2.196 1.964,-0.26 6.269,-0.52 9.62,-0.635 5.749,-0.145 7.482,-0.26 15.744,-1.04 3.062,-0.289 3.669,-0.26 5.114,0.173 1.964,0.635 2.051,1.184 0.346,1.993 -1.155,0.578 -2.08,0.694 -12.913,1.502 -3.351,0.26 -6.442,0.549 -6.962,0.665 -0.463,0.087 -2.283,0.347 -3.987,0.549 -1.704,0.202 -4.449,0.578 -6.067,0.866 -1.617,0.232 -3.813,0.52 -4.882,0.636 -2.629,0.202 -6.615,0.924 -10.515,1.849 -3.178,0.722 -5.143,1.242 -13.463,3.495 -2.195,0.636 -4.333,1.156 -4.737,1.214 -0.405,0.086 -1.329,0.318 -2.08,0.549 -0.752,0.231 -2.109,0.664 -3.005,0.895 -0.953,0.231 -2.195,0.722 -2.802,1.04 -0.607,0.318 -1.213,0.578 -1.329,0.578 -0.751,0 -13.116,5.402 -13.376,5.864 -0.086,0.174 -0.837,0.52 -1.588,0.838 -0.78,0.289 -1.936,0.925 -2.572,1.416 -0.664,0.52 -2.051,1.502 -3.12,2.253 -0.462,0.318 -1.126,0.78 -1.848,1.329 -3.323,0.636 -6.587,1.387 -9.736,2.253 z m -9.1,-4.708 c 0,-1.676 2.716,-4.854 4.853,-5.692 1.069,-0.375 1.358,-0.173 1.358,0.954 0,0.722 -0.375,1.271 -1.82,2.658 -1.82,1.791 -3.351,2.888 -3.987,2.888 -0.231,0 -0.375,-0.346 -0.375,-0.837 z M 108.88,48.7057 c 2.34,-0.1156 4.536,0.1155 6.5,0.6644 -5.229,4.5645 -9.735,9.0711 -11.642,11.7578 -0.924,1.3 -2.08,2.8889 -2.542,3.5244 -0.491,0.6645 -1.8203,2.7734 -3.0047,4.7378 -1.1556,1.9934 -2.2533,3.8422 -2.4556,4.16 -0.7511,1.2422 -4.8533,10.1689 -5.8644,12.7111 -2.3978,6.0956 -5.6044,17.7088 -6.2978,22.9378 -0.2311,1.704 -0.6355,4.593 -0.8666,6.356 -0.9245,6.875 -0.8667,21.002 0.1444,30.16 0.4911,4.42 2.2244,12.017 4.5933,20.251 2.6289,9.157 3.2934,10.891 6.8178,17.911 3.2356,6.442 5.8356,10.718 9.8226,16.062 3.149,4.218 10.602,12.249 13.549,14.56 3.004,2.369 4.102,3.293 5.922,4.998 2.658,2.484 4.593,4.044 5.922,4.766 1.618,0.867 2.513,1.445 7.973,5.056 12.451,8.262 18.807,11.584 26.174,13.751 2.369,0.665 6.297,1.82 8.724,2.571 6.673,2.022 18.922,4.882 21.609,5.085 2.427,0.202 8.984,0.982 14.791,1.762 3.178,0.433 13,2.253 15.369,2.802 0.664,0.173 3.293,0.636 5.893,1.04 2.571,0.405 4.796,0.809 4.911,0.896 0.116,0.057 2.456,0.549 5.2,1.04 2.745,0.462 6.009,1.097 7.223,1.329 1.213,0.26 3.957,0.808 6.066,1.213 7.107,1.415 22.331,5.142 27.156,6.644 5.315,1.647 8.204,2.485 10.4,2.947 0.838,0.173 2.022,0.549 2.658,0.867 0.635,0.317 2.253,0.837 3.553,1.184 3.438,0.953 6.731,2.08 12.278,4.218 l 4.882,1.82 h 5.171 c 4.767,0.029 7.569,0.26 12.278,1.127 0.982,0.173 2.167,0.346 2.629,0.404 1.155,0.144 2.744,0.578 6.066,1.618 1.532,0.491 3.034,0.866 3.38,0.809 0.694,-0.087 -5.373,-2.629 -11.931,-4.969 -6.24,-2.254 -11.266,-4.131 -12.133,-4.594 -1.04,-0.491 -10.342,-3.697 -14.647,-4.997 -10.515,-3.178 -16.466,-5.027 -18.344,-5.663 -3.409,-1.155 -8.696,-2.686 -11.527,-3.38 -1.444,-0.346 -5.662,-1.357 -9.331,-2.282 -8.782,-2.138 -11.411,-2.715 -13.029,-2.918 -1.993,-0.288 -15.08,-2.773 -16.264,-3.12 -1.271,-0.346 -5.431,-1.068 -7.829,-1.328 -2.513,-0.26 -9.216,-1.272 -10.66,-1.589 -0.665,-0.145 -2.571,-0.434 -4.276,-0.636 -10.14,-1.098 -25.306,-3.987 -34.666,-6.615 -6.009,-1.676 -16.871,-5.605 -17.391,-6.269 -0.203,-0.231 -0.549,-0.405 -0.78,-0.405 -0.492,0 -7.858,-3.669 -11.036,-5.489 -3.033,-1.733 -7.107,-4.217 -7.598,-4.651 -0.751,-0.635 -2.311,-1.791 -5.749,-4.275 -4.911,-3.583 -9.822,-7.685 -11.44,-9.62 -0.866,-1.011 -1.56,-1.936 -1.56,-2.051 0,-0.809 8.089,4.044 10.66,6.384 1.734,1.589 3.554,2.918 6.963,5.2 1.791,1.184 4.333,2.918 5.633,3.842 3.235,2.311 7.222,4.247 16.553,8.147 1.474,0.635 3.409,1.444 4.276,1.849 2.022,0.924 8.089,2.889 10.66,3.495 1.069,0.26 2.86,0.78 3.986,1.185 3.785,1.3 15.6,3.409 23.343,4.131 2.571,0.26 4.824,0.549 4.969,0.635 0.144,0.087 1.3,0.347 2.542,0.549 1.242,0.231 3.813,0.694 5.691,1.011 1.878,0.318 3.987,0.723 4.738,0.867 0.751,0.145 1.531,0.289 1.762,0.289 1.704,0 7.973,0.722 8.58,0.924 0.404,0.145 2.022,0.52 3.553,0.78 8.118,1.358 21.782,4.334 31.2,6.732 4.478,1.126 10.054,2.397 12.22,2.744 0.52,0.087 1.791,0.404 2.802,0.78 1.012,0.347 3.843,1.213 6.269,1.936 2.456,0.751 6.356,1.964 8.725,2.744 2.369,0.809 5.084,1.647 6.066,1.964 0.983,0.26 2.312,0.752 2.947,1.04 0.636,0.289 2.196,0.867 3.409,1.272 5.807,1.935 19.124,6.904 20.309,7.568 0.607,0.376 4.507,2.109 4.651,2.109 0.087,0 1.762,0.78 3.784,1.734 2.023,0.953 4.449,2.022 5.403,2.397 0.982,0.376 2.715,1.04 3.842,1.474 1.791,0.722 2.398,0.809 4.738,0.722 4.622,-0.144 6.933,-0.404 8.811,-1.011 1.011,-0.318 2.282,-0.578 2.802,-0.578 0.491,0 0.953,-0.087 0.953,-0.202 -0.029,-0.289 -7.482,-3.553 -12.769,-5.576 l -4.217,-1.589 -3.987,0.087 c -2.196,0.058 -4.276,0 -4.651,-0.144 -0.347,-0.145 -0.751,-0.578 -0.867,-1.04 -0.144,-0.607 -0.058,-0.925 0.491,-1.329 0.376,-0.289 0.983,-0.549 1.3,-0.549 0.549,-0.029 -1.155,-0.751 -6.211,-2.571 -1.126,-0.434 -3.929,-1.531 -6.211,-2.456 -3.784,-1.531 -8.262,-3.293 -15.369,-6.038 -4.015,-1.531 -16.929,-5.633 -21.609,-6.846 -2.282,-0.578 -6.269,-1.647 -8.869,-2.369 -2.6,-0.693 -8.464,-2.253 -13.028,-3.409 -10.66,-2.716 -17.94,-4.824 -19.385,-5.662 -0.318,-0.174 -0.26,-0.26 0.289,-0.289 2.311,-0.116 6.356,0.722 19.529,4.044 4.131,1.04 8.407,2.109 9.475,2.369 2.832,0.665 9.476,2.427 13.029,3.438 3.438,0.982 14.503,4.709 23.371,7.887 3.178,1.155 5.98,2.109 6.212,2.109 0.231,0 0.866,0.202 1.328,0.462 0.492,0.26 1.56,0.693 2.369,1.011 3.64,1.3 8.32,3.062 13.029,4.969 8.609,3.466 8.118,3.351 12.74,2.455 3.178,-0.635 6.731,-1.184 8.407,-1.3 0.867,-0.057 0.029,-0.462 -5.027,-2.542 -3.351,-1.358 -7.135,-2.918 -8.435,-3.495 -3.496,-1.532 -5.143,-2.109 -6.963,-2.398 -1.877,-0.289 -1.762,-0.318 2.138,-1.242 2.022,-0.434 4.565,-0.694 8.291,-0.896 2.976,-0.144 7.54,-0.433 10.14,-0.693 2.6,-0.231 6.731,-0.578 9.158,-0.78 2.456,-0.174 6.385,-0.434 8.782,-0.636 4.825,-0.375 10.227,-0.144 11.094,0.462 0.289,0.203 0.462,0.463 0.375,0.549 -0.086,0.058 -3.293,0.202 -7.106,0.289 -7.309,0.173 -14.272,0.665 -23.372,1.647 -3.004,0.346 -7.308,0.78 -9.562,0.924 -3.958,0.289 -6.211,0.751 -5.229,1.069 2.283,0.751 12.423,4.825 12.856,5.142 0.173,0.116 1.444,0.694 2.802,1.329 2.485,1.04 2.542,1.069 5.027,0.838 1.386,-0.116 3.582,-0.26 4.882,-0.289 1.3,-0.058 5.749,-0.375 9.88,-0.751 8.176,-0.664 7.598,-0.722 13.404,0.809 1.416,0.347 2.716,0.751 2.889,0.867 0.376,0.231 3.467,1.04 4.074,1.04 0.26,0.028 0.924,0.26 1.444,0.548 4.536,2.427 8.522,4.68 15.485,8.783 4.477,2.657 9.331,5.315 10.775,5.922 2.542,1.069 11.729,5.807 12.596,6.5 0.231,0.202 1.3,0.78 2.369,1.3 1.068,0.52 2.426,1.387 3.004,1.964 0.578,0.549 1.184,1.04 1.271,1.04 0.116,0 2.051,1.445 4.247,3.236 4.189,3.409 6.471,5.604 9.331,9.042 0.953,1.156 3.38,3.756 5.373,5.836 2.571,2.6 3.669,3.929 3.669,4.449 0,0.346 0.087,0.982 0.173,1.357 0.174,0.578 0.087,0.636 -0.924,0.636 -1.011,0 -1.416,-0.318 -6.038,-4.94 -4.535,-4.593 -7.684,-7.511 -9.938,-9.216 -0.462,-0.346 -1.675,-1.415 -2.686,-2.34 -3.236,-3.033 -6.096,-4.997 -10.776,-7.424 -2.513,-1.3 -6.124,-3.236 -7.973,-4.276 -1.878,-1.069 -4.478,-2.455 -5.778,-3.062 -1.3,-0.664 -3.958,-2.138 -5.922,-3.322 -1.965,-1.185 -4.073,-2.369 -4.738,-2.658 -0.664,-0.26 -1.358,-0.693 -1.56,-0.982 -0.231,-0.26 -0.895,-0.636 -1.473,-0.838 -0.578,-0.173 -2.196,-1.011 -3.554,-1.762 -1.357,-0.809 -3.235,-1.849 -4.131,-2.369 -0.924,-0.491 -2.34,-1.271 -3.177,-1.733 -0.809,-0.463 -3.352,-1.445 -5.634,-2.196 -3.64,-1.155 -4.593,-1.329 -7.829,-1.473 -5.055,-0.26 -15.022,-0.231 -16.235,0.058 -0.982,0.202 -0.925,0.26 3.12,2.108 2.253,1.04 5.431,2.572 7.078,3.38 2.455,1.214 3.38,1.503 5.315,1.705 1.3,0.144 3.033,0.491 3.842,0.838 2.658,1.011 7.107,3.033 7.54,3.437 0.231,0.203 1.503,0.954 2.803,1.618 1.3,0.694 3.64,1.965 5.171,2.831 1.531,0.867 3.351,1.849 3.986,2.167 0.636,0.318 2.427,1.3 3.958,2.224 1.502,0.925 4.16,2.427 5.922,3.323 1.705,0.895 4.189,2.224 5.489,2.946 1.3,0.723 3.322,1.734 4.449,2.254 1.156,0.491 2.282,1.069 2.513,1.3 0.26,0.202 1.329,0.809 2.369,1.271 2.542,1.155 5.605,3.524 11.238,8.724 4.853,4.478 7.367,7.165 8.58,9.187 0.404,0.635 1.445,2.08 2.369,3.178 2.196,2.657 4.535,5.922 7.107,9.851 1.184,1.82 2.426,3.582 2.773,3.986 0.376,0.405 1.069,1.416 1.502,2.225 0.462,0.838 1.329,2.109 1.965,2.86 0.577,0.78 1.329,2.051 1.589,2.802 0.288,0.78 0.664,1.762 0.808,2.253 0.174,0.434 0.751,1.3 1.3,1.878 0.405,0.434 1.011,1.531 1.676,2.86 -0.376,3.467 -0.953,6.934 -1.704,10.314 -0.174,-0.52 -0.289,-0.925 -0.318,-1.098 -0.145,-0.78 -1.647,-5.345 -2.571,-7.829 -1.098,-2.976 -2.831,-6.587 -3.554,-7.338 -0.346,-0.375 -1.097,-1.444 -1.675,-2.398 -2.196,-3.669 -5.316,-8.204 -5.951,-8.609 -0.318,-0.231 -1.243,-1.184 -1.965,-2.08 -0.751,-0.895 -2.889,-3.293 -4.795,-5.315 -5.229,-5.547 -6.125,-6.587 -6.558,-7.425 -0.231,-0.404 -2.08,-2.311 -4.102,-4.131 -4.449,-4.073 -6.443,-5.922 -8.147,-7.54 -0.722,-0.664 -2.022,-1.502 -2.918,-1.906 -0.924,-0.347 -1.647,-0.78 -1.647,-0.896 0,-0.115 -0.895,-0.549 -1.993,-1.011 -1.126,-0.433 -2.34,-0.982 -2.744,-1.213 -0.405,-0.203 -2.716,-1.445 -5.114,-2.716 -2.426,-1.271 -4.622,-2.513 -4.882,-2.744 -0.838,-0.751 -1.993,-1.416 -7.424,-4.334 -10.891,-5.893 -14.156,-7.482 -16.265,-7.944 -0.26,-0.058 -1.329,-0.289 -2.397,-0.549 -2.456,-0.578 -8.032,-0.953 -8.696,-0.549 -0.404,0.231 0.722,0.925 5.807,3.553 11.584,6.038 22.966,11.614 23.544,11.614 0.665,0 1.358,0.722 1.185,1.184 -0.058,0.174 -1.214,-0.231 -2.745,-0.982 -1.473,-0.722 -3.149,-1.444 -3.698,-1.676 -1.906,-0.751 -21.377,-10.053 -24.844,-11.902 -3.293,-1.762 -3.467,-1.791 -5.489,-1.762 -1.156,0 -2.687,0.173 -3.409,0.318 -0.722,0.144 -2.311,0.289 -3.524,0.289 -2.947,0 -8.58,0.809 -8.58,1.213 0,0.404 -1.156,0.549 -2.398,0.26 -0.693,-0.173 -1.647,-0.202 -2.167,-0.087 l -0.895,0.203 1.444,0.722 c 0.809,0.404 1.589,0.895 1.762,1.098 0.203,0.173 1.503,1.068 2.889,1.964 7.454,4.738 11.007,7.482 16.929,13.058 2.571,2.426 2.86,2.542 7.396,3.264 3.582,0.52 6.124,2.138 3.409,2.138 -0.232,0 -1.965,-0.433 -3.785,-0.982 -5.084,-1.445 -4.709,-0.838 1.185,1.906 1.82,0.867 4.015,1.994 4.824,2.485 2.311,1.444 4.131,2.398 5.691,2.889 1.647,0.52 9.447,4.275 10.285,4.969 0.837,0.635 0.144,0.577 -1.647,-0.116 -0.838,-0.347 -1.531,-0.549 -1.56,-0.52 -0.289,0.751 -0.838,1.358 -1.473,1.705 -0.752,0.404 -0.896,0.375 -2.34,-0.376 -0.838,-0.433 -3.987,-2.109 -6.992,-3.669 l -5.431,-2.831 1.387,1.733 c 3.467,4.363 3.467,4.363 8.147,5.894 4.16,1.386 7.829,2.773 7.337,2.802 -0.144,0 -2.34,-0.693 -4.882,-1.589 -2.571,-0.867 -5.084,-1.647 -5.662,-1.762 l -1.011,-0.174 0.809,0.954 c 0.433,0.52 1.155,1.502 1.56,2.166 0.433,0.665 1.242,1.705 1.762,2.34 0.52,0.665 0.982,1.3 0.982,1.445 0,0.115 0.52,1.155 1.156,2.224 1.531,2.629 5.084,9.851 5.893,11.903 0.318,0.895 1.473,4.362 2.542,7.684 4.218,13.289 5.2,24.353 3.149,35.36 -0.318,1.618 -0.664,3.496 -0.751,4.131 -0.318,2.167 -3.149,9.996 -4.738,13.173 -3.582,7.107 -7.713,12.596 -14.155,18.836 -2.456,2.369 -4.796,4.536 -5.2,4.796 -0.405,0.26 -1.878,1.271 -3.265,2.282 -1.386,1.011 -3.177,2.195 -3.986,2.629 -3.207,1.733 -4.074,2.282 -7.974,4.766 -0.924,0.549 -3.004,1.503 -5.633,2.456 -0.809,0.318 -3.293,1.329 -5.46,2.253 -2.196,0.925 -5.113,2.08 -6.5,2.542 -2.629,0.925 -9.649,2.918 -10.747,3.063 -1.097,0.144 -5.604,0.982 -6.933,1.271 -0.693,0.144 -1.3,0.231 -1.358,0.173 -0.058,-0.087 -1.069,0.058 -2.253,0.318 -2.138,0.433 -3.9,0.693 -11.267,1.502 -2.195,0.231 -4.853,0.636 -5.922,0.867 -2.542,0.578 -9.013,1.271 -16.871,1.762 -3.496,0.231 -8.869,0.664 -11.989,0.896 -3.062,0.26 -7.424,0.577 -9.62,0.751 -2.196,0.173 -4.853,0.317 -5.922,0.404 -1.069,0.116 -4.449,0.231 -7.54,0.318 -3.062,0.058 -7.078,0.318 -8.869,0.549 -1.762,0.231 -4.102,0.52 -5.171,0.635 -2.225,0.174 -5.634,0.578 -9.042,1.04 -1.3,0.145 -3.64,0.405 -5.172,0.549 -1.531,0.145 -3.64,0.578 -4.708,0.925 -1.04,0.346 -2.427,0.722 -3.063,0.78 -0.693,0.086 -1.589,0.317 -2.109,0.549 -0.144,0.057 -0.317,0.144 -0.548,0.231 -6.327,0.144 -12.48,0.404 -18.46,0.895 1.097,-0.462 1.993,-0.895 2.455,-1.069 1.965,-0.895 4.42,-1.733 7.685,-2.686 1.473,-0.405 4.333,-1.271 6.355,-1.936 2.051,-0.635 4.565,-1.329 5.633,-1.56 1.069,-0.231 3.034,-0.722 4.449,-1.04 2.774,-0.693 8.725,-1.647 12.856,-2.109 1.473,-0.173 4.42,-0.52 6.5,-0.78 8.262,-0.953 10.342,-1.04 28.773,-1.184 10.458,-0.058 19.154,-0.202 19.269,-0.26 0.116,-0.087 2.109,-0.289 4.362,-0.462 2.254,-0.174 5.056,-0.492 6.183,-0.752 1.155,-0.231 4.16,-0.548 6.702,-0.751 2.571,-0.144 5.084,-0.462 5.633,-0.664 1.329,-0.549 1.358,-0.549 17.998,-3.756 7.395,-1.444 11.151,-2.6 15.831,-4.882 2.138,-1.04 5.316,-2.571 7.107,-3.409 4.044,-1.935 13.635,-7.338 15.831,-8.955 0.895,-0.665 3.409,-2.947 5.575,-5.056 8.263,-8.089 15.745,-18.778 18.547,-26.549 1.04,-2.86 2.687,-9.851 3.062,-13 0.896,-6.846 0.087,-15.426 -2.195,-23.949 -1.734,-6.557 -2.976,-9.793 -6.443,-16.871 -3.12,-6.326 -4.044,-8.031 -6.326,-11.295 l -1.502,-2.196 -3.669,-0.982 c -1.994,-0.52 -4.16,-1.156 -4.825,-1.358 -0.664,-0.202 -1.762,-0.462 -2.513,-0.578 l -1.329,-0.173 0.78,0.693 c 0.202,0.174 0.462,0.463 0.809,0.838 -2.369,-0.895 -5.056,-1.733 -8.118,-2.571 -0.895,-1.127 -1.271,-1.358 -2.282,-1.473 -0.347,-0.029 -0.78,-0.087 -0.925,-0.116 -0.115,0 -0.173,-0.347 -0.115,-0.751 0.115,-0.549 -0.145,-1.011 -1.213,-2.051 -3.005,-2.86 -3.814,-3.322 -6.587,-3.698 -3.12,-0.433 -4.825,-1.04 -2.311,-0.809 0.895,0.087 2.195,0.26 2.889,0.405 1.675,0.317 1.357,0 -2.369,-2.658 -1.589,-1.156 -3.265,-2.398 -3.669,-2.773 -0.405,-0.376 -1.04,-0.809 -1.329,-0.896 -0.318,-0.116 -0.549,-0.289 -0.549,-0.404 0,-0.116 -0.549,-0.52 -1.242,-0.925 -0.693,-0.375 -2.022,-1.213 -2.976,-1.849 -1.646,-1.098 -5.806,-3.178 -6.557,-3.293 -0.174,-0.029 -1.329,-0.347 -2.543,-0.751 -5.344,-1.676 -5.749,-1.734 -7.222,-1.416 -0.867,0.202 -1.791,0.087 -5.778,-0.693 -3.582,-0.665 -3.293,-0.925 1.04,-0.78 2.398,0.087 3.871,0.058 3.554,-0.087 -0.347,-0.144 -0.809,-0.462 -1.011,-0.751 -0.347,-0.404 -0.318,-0.549 0.144,-0.924 0.404,-0.318 1.04,-0.405 2.484,-0.26 1.04,0.086 1.994,0.202 2.109,0.26 0.087,0.086 1.531,0.462 3.207,0.895 1.647,0.405 4.709,1.474 6.76,2.369 3.524,1.473 3.958,1.589 6.876,1.762 2.831,0.145 3.004,0.116 2.224,-0.26 -1.156,-0.52 -7.482,-3.177 -9.764,-4.015 -2.052,-0.809 -7.8,-3.38 -11.238,-5.027 -1.3,-0.635 -5.027,-2.167 -8.291,-3.409 -3.265,-1.242 -6.298,-2.455 -6.818,-2.715 -2.513,-1.243 -4.969,-1.936 -6.616,-1.763 -2.08,0.145 -9.851,1.532 -12.595,2.283 -2.542,0.664 -3.669,0.866 -5.922,1.04 -3.265,0.26 -4.42,0.462 -6.529,1.213 -4.42,1.502 -6.991,1.242 -7.28,-0.78 -0.26,-1.762 0.809,-2.542 4.102,-2.976 1.271,-0.144 3.264,-0.404 4.391,-0.577 1.156,-0.145 2.484,-0.318 2.976,-0.376 1.906,-0.231 3.553,-0.549 3.986,-0.809 0.26,-0.115 1.936,-0.491 3.698,-0.866 6.76,-1.3 7.309,-1.503 5.518,-2.08 -0.607,-0.203 -1.242,-0.463 -1.416,-0.578 -0.375,-0.318 -6.355,-2.398 -6.355,-2.225 0,0.087 -0.954,-0.202 -2.109,-0.635 -1.156,-0.405 -3.582,-1.127 -5.402,-1.589 -1.792,-0.433 -4.363,-1.185 -5.663,-1.589 -4.42,-1.416 -19.76,-5.633 -21.609,-5.893 -0.462,-0.087 -2.484,-0.463 -4.448,-0.896 -5.172,-1.098 -9.62,-1.993 -10.834,-2.138 -0.578,-0.057 -3.986,-0.635 -7.54,-1.3 -6.038,-1.069 -9.966,-1.646 -13.578,-2.022 -0.808,-0.058 -7.02,-1.011 -13.751,-2.08 -6.731,-1.04 -13.086,-2.051 -14.04,-2.167 -2.34,-0.346 -7.915,-1.56 -12.191,-2.686 -1.906,-0.462 -4.738,-1.127 -6.269,-1.445 -1.56,-0.289 -3.351,-0.78 -3.929,-1.011 -0.606,-0.26 -3.004,-1.126 -5.315,-1.935 -2.34,-0.809 -5.605,-1.936 -7.251,-2.514 -3.525,-1.242 -11.671,-4.997 -13.838,-6.326 -0.809,-0.52 -2.022,-1.214 -2.658,-1.56 -2.08,-1.127 -11.729,-7.656 -14.935,-10.14 -3.669,-2.831 -3.583,-2.774 -5.46,-4.42 -1.676,-1.474 -5.085,-4.103 -5.836,-4.536 -0.26,-0.144 -2.311,-1.935 -4.535,-3.958 -4.132,-3.813 -7.945,-7.915 -11.065,-11.96 -1.3,-1.675 -1.791,-2.166 -1.791,-1.675 0,0.635 -0.462,0.809 -1.0689,0.375 -0.3756,-0.26 -2.1956,-2.889 -2.1956,-3.206 0,-0.116 -0.3178,-0.636 -0.7511,-1.185 -0.4044,-0.52 -0.7511,-1.04 -0.7511,-1.126 0,-0.087 -0.4044,-0.752 -0.8956,-1.474 -0.4911,-0.722 -0.9822,-1.733 -1.0977,-2.311 -0.1734,-0.982 -0.2889,-1.184 -2.1378,-3.842 -0.4911,-0.78 -2.2533,-4.102 -3.8711,-7.396 -2.8889,-6.009 -5.72,-13.577 -6.4711,-17.535 -0.2023,-0.982 -0.5778,-2.774 -0.9245,-3.987 -0.78,-2.975 -2.2822,-10.14 -2.5133,-12.018 -1.1556,-8.926 -1.4733,-25.335 -0.4622,-26.52 0.26,-0.346 0.3177,-0.866 0.1733,-1.733 -0.4333,-2.542 -0.26,-5.662 0.4333,-8.233 0.4623,-1.734 0.7223,-3.409 0.7511,-5.46 0.0289,-1.618 0.1734,-3.294 0.3467,-3.698 0.1733,-0.405 0.4045,-1.416 0.4911,-2.225 0.3178,-2.3973 1.0689,-4.6218 1.7622,-5.2862 0.3756,-0.3178 0.78,-0.9822 0.8667,-1.4156 0.1156,-0.4044 0.2889,-0.9822 0.3756,-1.2422 0.1155,-0.2889 0.0289,-0.4622 -0.26,-0.4622 -0.3467,0 -0.4045,-0.2022 -0.3178,-0.8089 0.3178,-1.7044 1.5311,-3.5533 1.6178,-2.3689 0,0.1733 0.2022,-0.1733 0.4333,-0.8089 0.2311,-0.6355 0.5489,-1.3289 0.7511,-1.56 0.2022,-0.2022 0.26,-0.4622 0.1445,-0.5778 -0.0867,-0.0866 -0.1734,-0.0288 -0.1734,0.1445 0,0.2022 -0.1155,0.3467 -0.2889,0.3467 -0.4044,0 -0.3755,-1.56 0.0578,-2.5712 0.52,-1.2422 2.9467,-5.4022 3.2645,-5.6044 0.1155,-0.0867 0.2311,0.0289 0.2311,0.2311 0.0289,0.2022 0.2889,-0.26 0.6355,-1.0978 0.3467,-0.8089 0.6356,-1.82 0.5778,-2.2533 -0.0289,-0.4622 0.5778,-1.6756 1.5889,-3.1778 0.8955,-1.3289 1.6178,-2.5133 1.6178,-2.5711 0,-0.0867 1.1266,-1.7911 2.5133,-3.8133 1.3867,-2.0222 2.5133,-3.7556 2.5133,-3.8422 0,-0.0867 1.04,-1.5312 2.2823,-3.1778 2.1951,-2.8889 5.4601,-6.5289 8.4641,-9.3311 0.174,-0.1734 0.347,-0.3467 0.491,-0.52 z m 68.785,402.0753 c 1.646,-2.571 8.984,-6.24 26.029,-13.058 3.668,-1.473 11.151,-3.928 13.895,-4.593 6.529,-1.531 10.429,-2.398 11.671,-2.542 0.751,-0.116 2.34,-0.376 3.554,-0.636 3.813,-0.722 8.984,-1.617 9.908,-1.733 0.492,-0.087 1.734,-0.26 2.803,-0.404 2.831,-0.405 6.817,-0.867 10.66,-1.214 1.877,-0.173 4.622,-0.433 6.066,-0.578 5.258,-0.491 16.843,-0.895 30.16,-1.011 13.636,-0.144 14.474,-0.173 24.7,-1.502 3.843,-0.491 4.767,-0.664 8.291,-1.704 2.572,-0.78 6.24,-1.589 10.545,-2.398 5.315,-1.011 17.304,-5.402 22.764,-8.378 4.68,-2.542 9.331,-6.182 15.254,-11.989 1.473,-1.444 2.022,-1.704 2.022,-1.04 0,0.636 -3.149,4.189 -5.922,6.645 -6.269,5.575 -14.127,9.793 -26.174,14.011 -2.282,0.809 -4.882,1.646 -5.777,1.849 -7.107,1.762 -9.62,2.34 -11.672,2.542 -3.697,0.404 -6.037,0.78 -8.406,1.3 -6.962,1.502 -14.762,2.253 -24.874,2.369 -9.186,0.086 -18.633,0.549 -22.331,1.04 -1.126,0.144 -3.293,0.26 -4.795,0.289 -1.502,0 -3.698,0.115 -4.882,0.289 -7.165,0.953 -9.332,1.213 -12.365,1.473 -1.878,0.144 -4.247,0.404 -5.315,0.578 -1.069,0.144 -4.045,0.549 -6.645,0.895 -10.313,1.387 -17.507,3.294 -31.807,8.378 -3.928,1.387 -13.231,5.171 -15.08,6.124 -0.635,0.318 -2.571,1.185 -4.362,1.907 -1.733,0.722 -4.275,1.878 -5.662,2.513 -1.329,0.694 -2.513,1.214 -2.6,1.214 -0.058,0 0.058,-0.289 0.318,-0.665 z m 227.673,-8.782 c 1.3,-0.809 2.571,-1.618 4.42,-2.802 1.531,-1.011 3.004,-1.965 3.322,-2.109 0.26,-0.145 0.925,-0.636 1.474,-1.156 1.704,-1.502 3.437,-2.802 3.755,-2.802 0.838,0 0.145,0.953 -1.675,2.427 -0.896,0.722 -2.427,1.791 -4.103,2.918 -2.34,1.213 -4.737,2.397 -7.164,3.524 z m -110.673,-2.773 c -2.34,-0.376 -2.658,-0.578 -2.658,-1.589 0,-0.665 0.202,-0.896 1.271,-1.3 2.167,-0.838 3.871,-0.954 5.142,-0.289 1.387,0.722 2.282,1.675 2.08,2.224 -0.115,0.347 -1.184,0.751 -3.466,1.214 -0.232,0.057 -1.3,-0.058 -2.369,-0.231 z m 92.82,-101.169 c 0.375,0.693 0.751,1.473 1.184,2.34 0.722,1.473 1.387,2.715 1.502,2.802 0.318,0.231 2.283,4.738 3.38,7.684 1.329,3.612 3.207,10.285 3.496,12.567 0.115,0.982 0.375,2.311 0.549,2.947 0.838,3.033 0.664,13.549 -0.289,16.553 -0.145,0.52 -0.52,2.022 -0.896,3.409 -0.317,1.387 -0.809,3.322 -1.069,4.276 -0.577,2.195 -3.235,7.828 -4.506,9.591 -0.52,0.722 -0.954,1.415 -0.954,1.56 0,0.115 -0.722,1.329 -1.588,2.686 -2.427,3.64 -6.212,7.685 -10.834,11.498 -3.755,3.12 -15.773,10.025 -19.384,11.18 -0.665,0.202 -1.82,0.722 -2.629,1.098 -1.82,0.924 -6.673,2.658 -7.28,2.6 -0.231,-0.029 -0.549,0.058 -0.751,0.173 -0.434,0.289 -3.12,1.127 -4.276,1.3 -1.82,0.318 -3.553,0.809 -3.726,1.069 -0.087,0.145 -0.434,0.26 -0.809,0.26 -0.376,0 -2.167,0.347 -4.016,0.78 -1.878,0.405 -4.795,0.925 -6.5,1.156 -1.704,0.202 -5.518,0.78 -8.464,1.213 -5.431,0.838 -10.545,1.04 -11.498,0.491 -0.462,-0.26 -0.318,-0.375 0.982,-1.098 1.762,-0.924 6.731,-2.166 9.505,-2.397 2.6,-0.203 3.437,-0.318 7.684,-1.156 2.051,-0.376 4.564,-0.809 5.633,-0.924 1.82,-0.174 4.94,-0.867 5.923,-1.243 0.895,-0.346 7.944,-2.802 12.277,-4.275 2.658,-0.896 6.471,-2.485 9.505,-3.958 2.773,-1.387 5.171,-2.513 5.258,-2.513 0.491,0 6.211,-3.987 9.013,-6.327 2.86,-2.34 4.535,-4.102 9.36,-9.909 0.982,-1.184 2.138,-2.571 2.542,-3.062 2.225,-2.687 5.142,-8.753 5.489,-11.44 0.087,-0.549 0.462,-2.051 0.838,-3.265 1.069,-3.437 1.358,-5.373 1.531,-10.342 0.231,-6.529 -0.52,-12.422 -2.485,-18.922 -0.953,-3.264 -3.033,-8.609 -3.553,-9.1 -0.202,-0.202 -0.375,-0.549 -0.375,-0.722 0,-0.174 -0.463,-1.04 -1.069,-1.936 -0.52,-0.809 -1.474,-2.398 -2.167,-3.726 1.444,-1.012 2.6,-1.994 3.467,-2.976 z m 32.586,94.322 c 0,-0.231 0.347,-0.636 0.838,-0.867 0.433,-0.231 1.156,-0.924 1.618,-1.473 0.491,-0.664 0.982,-0.982 1.242,-0.896 0.462,0.203 0.636,1.012 0.145,1.012 -0.145,0 -0.896,0.577 -1.647,1.328 -1.387,1.358 -2.196,1.676 -2.196,0.896 z m 7.743,-7.829 c 3.928,-4.478 6.904,-8.464 8.551,-11.527 0.78,-1.386 1.588,-2.542 1.877,-2.6 0.751,-0.144 0.578,0.405 -0.837,2.889 -1.791,3.236 -4.536,6.76 -7.829,10.14 -3.12,3.149 -4.218,3.871 -1.734,1.098 z m 10.284,-5.027 c 0.375,-0.693 1.04,-0.808 0.78,-0.115 -0.087,0.26 -0.173,0.52 -0.173,0.578 0,0.057 -0.203,0.115 -0.434,0.115 -0.375,0 -0.404,-0.115 -0.144,-0.578 z m -192.573,-0.288 c -0.376,-0.26 -0.376,-0.318 0,-0.578 0.577,-0.376 1.386,-0.376 1.646,0.029 0.203,0.317 -0.346,0.866 -0.924,0.866 -0.145,0 -0.491,-0.144 -0.751,-0.289 z m 12.133,-1.763 c 1.213,-0.317 2.831,-0.549 3.582,-0.577 0.751,0 2.08,-0.116 2.947,-0.26 0.895,-0.174 7.338,-0.434 14.329,-0.636 7.02,-0.173 14.82,-0.376 17.391,-0.491 4.882,-0.173 5.922,0.087 3.12,0.809 -1.127,0.26 -4.565,0.404 -11.873,0.462 -9.418,0.058 -23.429,0.578 -23.92,0.896 -0.087,0.057 -1.907,0.173 -3.987,0.26 l -3.785,0.115 2.225,-0.549 z m 48.216,-2.08 c -0.318,-0.202 1.126,-0.693 2.946,-1.04 1.069,-0.173 2.456,0.434 1.994,0.925 -0.289,0.289 -4.507,0.404 -4.94,0.115 z m 61.735,-66.271 c 4.536,7.771 7.02,15.514 7.396,23.025 0.231,5.402 -0.809,10.457 -3.178,15.109 -1.762,3.466 -6.385,8.753 -10.516,12.017 -5.315,4.189 -18.46,10.025 -27.213,12.076 -10.458,2.455 -21.436,4.218 -19.616,3.12 0.492,-0.26 5.952,-1.242 9.014,-1.589 3.12,-0.376 13.866,-3.004 15.282,-3.756 0.318,-0.173 2.456,-0.953 4.738,-1.762 7.54,-2.571 16.033,-7.482 20.973,-12.104 3.813,-3.554 7.8,-10.227 8.985,-14.994 0.491,-2.108 0.722,-9.331 0.317,-11.324 -1.675,-8.551 -3.437,-13.578 -7.02,-19.5 0.26,-0.087 0.52,-0.202 0.78,-0.318 z m 74.042,65 c 0,-0.462 1.127,-1.56 1.329,-1.329 0.087,0.087 0,0.491 -0.173,0.954 -0.376,0.809 -1.156,1.069 -1.156,0.375 z m 7.54,-3.178 c 0,0 -0.144,-0.057 -0.144,-0.086 0,-0.116 0.693,-1.762 1.473,-3.582 0.809,-1.82 0.896,-2.167 1.618,-5.634 0.809,-3.698 1.213,-4.998 1.589,-4.766 0.722,0.462 -2.051,9.88 -3.64,13.057 -0.318,0.347 -0.636,0.694 -0.925,1.011 z m -3.986,-3.322 c 0,0 0.52,-1.791 1.184,-3.784 0.665,-1.936 1.473,-5.171 1.791,-7.165 0.318,-1.993 0.722,-3.726 0.867,-3.871 0.635,-0.635 -0.665,5.778 -1.965,9.88 -0.982,3.12 -1.877,5.402 -1.906,4.94 z m -5.027,-0.635 c 0,-0.231 0.116,-0.52 0.26,-0.578 0.144,-0.087 0.433,-0.896 0.635,-1.705 0.347,-1.444 0.694,-1.993 1.272,-2.022 0.288,0 0.26,1.416 -0.058,1.589 -0.145,0.087 -0.347,0.636 -0.434,1.213 -0.26,1.416 -1.646,2.687 -1.646,1.503 z m 18.344,-7.425 c 0.029,-0.144 0.087,-0.289 0.116,-0.462 0.231,-0.896 0.52,-2.022 0.635,-2.484 0.318,-1.532 0.636,-0.492 0.463,1.213 -0.405,0.578 -0.809,1.155 -1.214,1.704 z m -15.629,-1.04 c 0,-0.404 0.116,-1.271 0.26,-1.964 0.723,-3.12 1.272,-11.238 0.925,-14.011 -0.231,-2.167 -0.087,-2.918 0.491,-2.543 0.52,0.318 0.751,4.998 0.376,8.927 -0.289,3.669 -1.098,8.031 -1.734,9.591 l -0.318,0.751 z m -63.526,-6.326 c -0.231,-1.387 0.087,-2.629 0.924,-3.554 0.896,-0.953 1.271,-0.982 1.589,-0.086 0.289,0.78 -0.231,2.484 -1.155,3.784 -0.838,1.127 -1.127,1.098 -1.358,-0.144 z m 74.62,-0.029 c -0.174,-0.52 0.058,-1.329 0.433,-1.329 0.145,0 0.26,0.404 0.26,0.895 0,0.954 -0.404,1.185 -0.722,0.434 z m 5.951,-0.636 c -0.173,-0.318 -0.173,-12.769 0,-13.78 0.116,-0.635 0.231,-0.78 0.462,-0.549 0.491,0.52 0.982,12.654 0.52,13.722 -0.289,0.78 -0.751,1.04 -1.011,0.578 z m -10.862,-3.9 c 0,-0.52 0.144,-0.924 0.289,-0.924 0.173,0 0.288,0.317 0.288,0.722 0,0.404 -0.115,0.838 -0.288,0.924 -0.174,0.116 -0.289,-0.202 -0.289,-0.693 z m 5.171,-2.889 c -0.347,-4.478 -0.376,-5.46 -0.202,-6.066 0.115,-0.492 0.173,-0.492 0.635,0.115 0.376,0.549 0.462,1.387 0.376,4.68 -0.029,2.196 -0.174,4.073 -0.318,4.247 -0.116,0.115 -0.347,-1.214 -0.462,-2.947 z m -71.558,-1.56 c -0.982,-2.051 -0.115,-6.124 1.242,-5.864 0.896,0.173 1.271,1.415 1.098,3.351 -0.173,1.589 -1.069,3.698 -1.56,3.698 -0.115,0 -0.462,-0.52 -0.78,-1.185 z m 66.387,-2.426 c 0,-1.329 0.491,-1.763 0.78,-0.694 0.144,0.549 0.029,0.954 -0.289,1.271 -0.434,0.434 -0.462,0.405 -0.462,-0.577 z m -5.114,-4.565 c 0,0 -0.202,-0.635 -0.202,-1.184 0,-0.549 -0.231,-1.445 -0.491,-2.051 -0.375,-0.809 -0.404,-1.127 -0.144,-1.387 0.491,-0.491 0.982,0.058 1.242,1.589 0.144,0.664 0.318,1.473 0.433,1.704 0.174,0.549 -0.491,1.618 -0.838,1.3 z m 9.418,-2.311 c -0.086,-0.404 -0.202,-1.127 -0.289,-1.531 -0.086,-0.405 -0.231,-1.329 -0.346,-1.993 -0.174,-1.3 -0.694,-2.889 -2.225,-6.76 -0.462,-1.243 -0.838,-2.572 -0.78,-2.947 0.116,-0.578 0.26,-0.405 0.925,0.982 0.404,0.925 1.097,2.831 1.531,4.276 0.433,1.444 0.982,3.177 1.184,3.842 0.434,1.3 0.693,4.449 0.347,4.738 -0.087,0.115 -0.231,-0.145 -0.347,-0.578 z m 5.489,-1.56 c -0.433,-1.56 -0.433,-3.582 0,-3.149 0.462,0.462 1.098,3.033 0.925,3.698 -0.203,0.867 -0.578,0.635 -0.925,-0.549 z m -10.804,0.202 c -0.434,-2.051 -1.994,-7.28 -2.427,-8.146 -0.578,-1.127 -2.196,-5.114 -2.196,-5.403 0,-0.549 1.445,2.427 2.427,4.969 1.184,3.178 2.687,8.725 2.513,9.274 -0.057,0.202 -0.202,-0.116 -0.317,-0.694 z m -70.923,-27.56 c 4.969,8.349 8.06,18.807 7.28,25.076 -0.202,1.82 -0.548,2.051 -1.011,0.664 L 370.44,347.995 c 1.618,-0.694 3.294,-1.445 5.114,-2.254 0.548,-0.26 1.068,-0.491 1.588,-0.751 z m 63.931,21.465 c -1.588,-3.958 -5.719,-11.556 -6.817,-12.538 -0.462,-0.405 -1.762,-2.369 -1.762,-2.629 0,-0.809 0.924,-0.173 2.195,1.473 2.311,2.947 5.056,8.291 6.5,12.48 0.982,2.803 0.867,3.698 -0.116,1.214 z m 16.149,-1.214 c -0.375,-0.635 -0.953,-1.935 -1.213,-2.889 -0.289,-0.982 -0.867,-2.744 -1.242,-3.928 -0.405,-1.185 -0.694,-2.254 -0.549,-2.34 0.144,-0.145 1.82,3.235 3.236,6.413 0.433,1.069 0.953,3.842 0.664,3.842 -0.058,0 -0.462,-0.491 -0.867,-1.098 z m -9.88,-9.013 c -0.404,-0.404 -0.462,-1.416 -0.057,-1.416 0.144,0 0.404,0.26 0.635,0.636 0.376,0.751 -0.029,1.329 -0.549,0.809 z m -6.529,-1.358 c -0.202,-0.375 -0.317,-0.78 -0.231,-0.838 0.231,-0.231 0.867,0.752 0.752,1.127 -0.087,0.231 -0.26,0.116 -0.492,-0.289 z m 10.863,-2.918 c -0.491,-0.635 -2.311,-3.582 -2.311,-3.813 0,-0.26 -1.763,-2.802 -2.716,-3.9 -1.155,-1.329 -2.369,-3.813 -2.022,-4.044 0.318,-0.203 1.126,0.577 2.138,2.224 0.346,0.549 1.675,2.485 2.975,4.247 2.369,3.264 2.86,4.218 2.86,5.229 0,0.693 -0.347,0.693 -0.953,0.057 z m -6.443,-0.057 c 0,-0.145 -0.173,-0.463 -0.346,-0.694 -0.202,-0.202 -0.982,-1.184 -1.705,-2.166 -0.722,-0.983 -1.56,-2.08 -1.906,-2.427 -0.751,-0.896 -1.416,-2.456 -1.04,-2.456 0.664,0 2.426,2.138 3.929,4.825 1.762,3.12 1.791,3.149 1.357,3.149 -0.144,0 -0.289,-0.116 -0.289,-0.26 z m -8.088,-2.687 c -0.549,-0.809 -0.665,-1.473 -0.203,-1.473 0.376,0 0.954,1.126 0.838,1.704 -0.087,0.405 -0.173,0.376 -0.606,-0.231 z m -7.483,-1.936 c -0.26,-0.375 -0.924,-1.011 -1.473,-1.357 -0.982,-0.578 -1.387,-1.734 -0.664,-1.734 0.52,0 3.206,2.745 3.206,3.351 0,0.752 -0.491,0.607 -1.069,-0.231 z m 2.398,-4.333 c -2.167,-2.195 -5.893,-5.287 -8.493,-7.02 -2.109,-1.415 -2.918,-2.138 -2.427,-2.138 0.347,0 3.727,2.398 5.894,4.16 1.993,1.618 6.962,6.471 6.615,6.471 -0.058,0 -0.809,-0.664 -1.589,-1.502 z m -9.158,-1.444 c -3.697,-2.658 -9.995,-6.269 -13.173,-7.598 -2.773,-1.127 -3.235,-1.416 -2.773,-1.82 0.318,-0.347 4.795,1.473 7.222,2.918 0.896,0.549 2.427,1.444 3.409,2.022 2.571,1.531 6.904,4.94 6.587,5.229 -0.058,0.058 -0.607,-0.289 -1.272,-0.751 z m 12.278,-2.398 c -1.82,-2.022 -3.264,-3.236 -6.586,-5.605 -1.56,-1.126 -2.254,-1.935 -1.907,-2.253 0.404,-0.404 8.927,6.731 10.082,8.493 0.405,0.636 0.78,1.214 0.78,1.3 0,0.463 -0.693,-0.086 -2.369,-1.964 z m 4.854,-3.12 c -1.532,-1.676 -1.705,-2.398 -0.434,-1.705 0.925,0.463 2.398,2.196 2.398,2.745 0,0.722 -0.693,0.318 -1.964,-1.04 z m 36.92,-3.842 c -0.232,-0.087 -0.463,-0.231 -0.723,-0.463 -0.433,-0.375 -1.069,-1.386 -1.386,-2.282 l -0.578,-1.56 0.722,-0.722 c 0.52,-0.52 0.809,-0.722 1.213,-0.664 0.318,1.906 0.578,3.784 0.78,5.662 z m -42.12,-0.954 c -0.723,-0.433 -2.109,-1.531 -3.063,-2.426 -1.011,-0.896 -2.253,-1.936 -2.802,-2.369 -0.549,-0.434 -0.982,-0.867 -0.895,-0.954 0.144,-0.173 4.477,2.427 5.286,3.149 0.289,0.26 0.665,0.463 0.809,0.463 0.289,0 1.618,1.328 2.456,2.455 0.635,0.809 -0.203,0.636 -1.763,-0.347 z m -19.067,0.116 c -0.366,-0.27 -0.347,-0.414 0.058,-0.433 0.346,0 0.722,0.202 0.837,0.433 0.203,0.549 -0.144,0.549 -0.895,0 z m -13.838,-1.242 c -0.433,-0.231 -1.242,-0.491 -1.762,-0.578 -1.069,-0.173 -1.647,-0.578 -1.647,-1.156 0,-0.52 0.52,-0.52 1.502,0 0.405,0.203 1.156,0.463 1.618,0.578 0.896,0.231 1.907,0.982 1.907,1.416 0,0.346 -0.578,0.231 -1.589,-0.26 z m 20.165,-1.011 c -0.289,-0.145 -0.52,-0.463 -0.52,-0.723 0,-0.346 0.144,-0.346 0.751,-0.086 0.404,0.173 0.751,0.491 0.751,0.751 0,0.433 -0.26,0.462 -0.954,0.058 z m -12.278,-0.723 c -1.069,-0.433 -1.3,-1.04 -0.434,-1.04 0.52,0 1.734,1.069 1.503,1.3 -0.058,0.058 -0.549,-0.057 -1.069,-0.26 z m 5.142,-3.062 c -1.936,-0.78 -3.842,-1.704 -4.276,-2.08 l -0.808,-0.664 1.328,0.115 c 0.954,0.087 2.196,0.607 4.276,1.82 4.68,2.716 4.593,2.802 -0.52,0.78 z m -27.473,-0.982 c -0.203,-0.376 -1.098,-1.56 -1.936,-2.658 -1.098,-1.387 -1.791,-2.022 -2.455,-2.167 -0.896,-0.202 -1.185,-0.577 -0.549,-0.808 0.173,-0.058 -0.463,-1.012 -1.445,-2.08 -1.011,-1.098 -1.964,-2.254 -2.109,-2.572 -0.173,-0.317 -0.635,-0.664 -0.982,-0.78 -0.375,-0.086 -1.184,-0.375 -1.791,-0.635 -1.069,-0.462 -1.098,-0.491 -0.52,-0.838 0.636,-0.318 0.578,-0.347 -0.318,-1.242 -1.155,-1.127 -8.666,-4.882 -11.642,-5.893 -1.184,-0.376 -3.438,-1.272 -5.027,-1.994 -1.617,-0.751 -3.264,-1.415 -3.669,-1.531 -0.481,-0.135 -0.529,-0.058 -0.144,0.231 0.433,0.347 0.491,0.52 0.231,0.809 -0.318,0.347 -1.329,0.26 -4.824,-0.433 -0.405,-0.087 -0.145,0.115 0.577,0.462 1.329,0.636 6.472,3.756 8.783,5.344 1.011,0.665 2.166,1.04 5.633,1.734 7.338,1.444 8.811,1.849 8.522,2.34 -0.115,0.202 -1.444,-0.029 -4.738,-0.867 -1.242,-0.289 -2.311,-0.462 -4.737,-0.809 l -1.474,-0.202 1.214,1.156 c 3.38,3.235 5.315,4.708 6.586,5.055 l 1.358,0.347 -2.369,-0.231 1.04,0.895 c 0.549,0.491 1.994,1.82 3.12,2.918 2.022,1.993 2.138,2.051 4.102,2.369 1.127,0.173 2.196,0.404 2.34,0.52 0.26,0.144 6.963,2.109 7.396,2.138 0.116,0.029 0.058,-0.26 -0.144,-0.607 z m 35.706,-1.098 c -0.375,-0.318 -6.76,-3.611 -8.146,-4.131 -1.878,-0.751 -3.698,-2.398 -2.658,-2.398 0.173,0 1.935,0.78 3.929,1.734 1.993,0.953 3.929,1.848 4.362,1.964 2.138,0.664 4.131,2.08 4.131,2.918 0,0.289 -1.329,0.202 -1.618,-0.087 z M 282.358,310.872 c 0.462,-0.289 2.022,-0.722 3.64,-0.924 2.022,-0.26 2.282,-0.722 0.433,-0.722 -0.809,0 -4.131,-0.318 -7.482,-0.694 -3.351,-0.404 -6.875,-0.809 -7.829,-0.924 -1.704,-0.173 -2.542,-0.52 -2.138,-0.925 0.289,-0.288 8.754,0.636 18.2,1.965 3.034,0.433 1.272,0.722 17.969,-2.629 3.669,-0.751 5.894,-0.982 9.418,-0.953 9.302,0.086 18.807,1.964 24.613,4.853 1.445,0.722 2.398,1.04 2.456,0.838 0.144,-0.462 1.329,-0.405 2.022,0.115 0.491,0.376 0.491,0.405 0.058,0.434 -1.011,0 -0.52,0.462 1.3,1.357 1.011,0.463 3.033,1.647 4.536,2.6 2.34,1.532 3.004,1.792 5.46,2.312 1.531,0.317 3.697,0.78 4.795,0.982 2.08,0.404 3.525,1.011 2.571,1.04 -0.26,0 -1.531,-0.174 -2.802,-0.405 -1.3,-0.231 -3.062,-0.52 -3.958,-0.577 l -1.618,-0.174 0.232,0.202 c -1.936,-0.346 -3.987,-0.693 -6.067,-1.011 -0.838,-0.462 -1.445,-0.664 -1.965,-0.693 -1.126,0 -1.444,-0.058 -3.582,-0.376 -1.473,-0.231 -1.762,-0.375 -1.762,-0.808 0,-0.318 1.733,-0.318 3.496,0 2.253,0.433 1.242,-0.289 -3.236,-2.398 -7.569,-3.525 -9.533,-4.045 -18.287,-4.825 -1.184,-0.115 -2.455,-0.289 -2.802,-0.433 -1.069,-0.433 1.098,-0.347 4.565,0.144 4.015,0.636 4.824,0.405 1.04,-0.231 -1.618,-0.289 -3.438,-0.664 -4.016,-0.837 -0.578,-0.145 -2.427,-0.26 -4.102,-0.26 -2.802,0 -2.976,0.028 -2.629,0.52 0.347,0.433 0.347,0.462 -0.116,0.288 -0.289,-0.115 -0.78,-0.202 -1.04,-0.202 -0.433,-0.029 -0.433,-0.058 0.058,-0.433 0.982,-0.751 -2.253,-0.433 -12.104,1.098 -3.958,0.635 -5.374,1.126 -3.207,1.126 1.387,0 2.744,0.434 2.744,0.867 0,0.462 -5.113,0.029 -5.517,-0.462 -0.289,-0.376 -0.723,-0.376 -3.409,0 -3.814,0.606 -5.691,0.982 -7.078,1.415 -0.924,-0.057 -1.849,-0.115 -2.773,-0.173 z m 92.993,6.616 c -0.289,-0.145 -0.52,-0.405 -0.52,-0.549 0,-0.491 1.098,-0.318 1.791,0.289 l 0.723,0.549 h -0.751 c -0.405,0 -0.983,-0.116 -1.243,-0.289 z m 31.143,-2.138 c -1.56,-0.78 -2.023,-1.502 -0.723,-1.213 1.243,0.26 2.831,1.098 2.976,1.531 0.173,0.52 -0.838,0.404 -2.282,-0.318 z m -70.72,-0.549 c -0.405,-0.115 -1.387,-0.231 -2.225,-0.231 -1.647,-0.029 -2.398,-0.375 -2.08,-0.924 0.376,-0.636 5.46,0.202 5.46,0.924 0,0.376 -0.404,0.462 -1.184,0.231 z m -12.567,-1.213 c -1.3,-0.145 -4.969,-0.578 -8.176,-0.982 -3.177,-0.405 -6.384,-0.751 -7.164,-0.751 -1.705,0 -3.12,-0.463 -2.658,-0.925 0.231,-0.231 1.271,-0.231 3.553,0 6.76,0.693 17.796,2.34 18.287,2.745 0.318,0.288 -0.491,0.288 -3.842,-0.087 z m 73.378,-1.589 c -5.431,-2.051 -5.258,-2.282 0.693,-0.838 4.507,1.098 6.5,2.196 3.987,2.196 -0.607,-0.029 -2.716,-0.636 -4.68,-1.358 z m -46.656,0.578 c -0.289,-0.058 -0.52,-0.26 -0.52,-0.405 0,-0.404 0.78,-0.317 1.185,0.174 0.375,0.433 0.26,0.462 -0.665,0.231 z m 48.129,-4.882 c -3.9,-1.965 -7.164,-3.64 -7.251,-3.756 -0.087,-0.116 -0.665,-0.52 -1.271,-0.896 -1.242,-0.751 -2.08,-1.502 -1.907,-1.704 0.087,-0.058 0.982,0 2.022,0.202 2.311,0.347 8.031,2.571 10.631,4.102 1.069,0.636 2.918,1.647 4.132,2.283 1.646,0.866 2.253,1.329 2.311,1.82 0.115,0.809 -0.405,1.531 -1.098,1.502 -0.26,0 -3.669,-1.589 -7.569,-3.582 z m -49.862,-0.665 c 0,0 -0.925,-0.173 -1.907,-0.202 -2.253,-0.087 -4.853,-0.809 -4.247,-1.185 0.694,-0.404 2.283,-0.288 4.998,0.347 4.42,1.069 4.507,1.098 2.774,1.127 -0.838,0.029 -1.56,0 -1.618,-0.087 z m -84.731,-1.069 c -0.318,-0.144 -1.358,-0.26 -2.311,-0.26 -1.214,-0.029 -1.734,-0.144 -1.878,-0.462 -0.318,-0.78 0.115,-0.924 2.022,-0.636 2.369,0.347 3.496,0.78 3.496,1.272 0,0.462 -0.434,0.491 -1.329,0.115 z m 32.702,-0.78 c -1.705,-0.202 -4.94,-0.52 -7.193,-0.722 -2.254,-0.202 -4.449,-0.462 -4.883,-0.578 l -0.809,-0.231 0.896,-0.058 c 0.924,-0.029 14.993,1.503 15.196,1.676 0.346,0.26 -0.376,0.231 -3.236,-0.087 z m 39.924,0 c -0.404,-0.058 -1.271,-0.231 -1.964,-0.375 -0.693,-0.145 -2.282,-0.347 -3.553,-0.434 -5.229,-0.346 -7.165,-0.751 -6.76,-1.329 0.086,-0.173 0.491,-0.231 0.895,-0.173 0.376,0.058 2.542,0.347 4.796,0.578 2.253,0.26 5.055,0.693 6.211,0.953 2.946,0.665 3.235,1.242 0.375,0.809 z M 248.76,303.91 c -2.571,-0.433 -5.633,-1.04 -6.818,-1.329 -2.657,-0.635 -4.506,-1.011 -5.864,-1.213 -1.444,-0.231 -3.004,-0.636 -3.553,-0.982 -1.416,-0.954 2.715,-0.52 7.251,0.751 0.838,0.231 3.409,0.809 5.778,1.3 6.731,1.386 8.32,1.733 8.811,2.08 0.809,0.433 -0.463,0.318 -5.634,-0.578 z m 28.889,-0.578 c -0.549,-0.202 -0.549,-0.231 -0.058,-0.433 0.347,-0.144 0.723,-0.058 1.04,0.26 0.376,0.376 0.405,0.462 0.058,0.433 -0.231,0 -0.722,-0.115 -1.04,-0.26 z m 40.589,-0.491 c -0.404,-0.375 -0.173,-0.693 0.52,-0.693 0.462,0 0.751,0.173 0.751,0.433 0,0.434 -0.924,0.636 -1.271,0.231 z m -48.418,-0.838 c -0.318,-0.375 -0.231,-0.433 0.52,-0.433 0.462,0 1.04,0.202 1.242,0.433 0.318,0.376 0.232,0.434 -0.52,0.434 -0.462,0 -1.04,-0.202 -1.242,-0.434 z m 38.74,-0.144 c -2.34,-0.26 -3.206,-0.549 -2.6,-0.924 0.202,-0.145 0.867,-0.26 1.445,-0.26 1.126,0 7.366,1.097 7.597,1.328 0.203,0.203 -4.131,0.116 -6.442,-0.144 z m 160.16,-0.116 c -3.524,-3.466 -7.078,-6.817 -9.244,-8.608 -0.809,-0.636 -2.629,-2.196 -4.074,-3.438 -1.444,-1.242 -3.437,-2.802 -4.42,-3.467 -2.051,-1.387 -9.389,-5.373 -9.909,-5.373 -0.722,0 -9.937,-4.738 -13.866,-7.136 -5.287,-3.178 -10.198,-7.02 -9.678,-7.54 0.433,-0.433 2.427,0.52 8.262,3.958 6.443,3.842 7.107,4.189 11.469,6.211 1.387,0.636 3.38,1.589 4.449,2.109 2.398,1.127 9.88,5.547 11.267,6.587 4.593,3.64 6.76,5.257 6.962,5.257 0.231,0 0.491,0.232 2.427,2.109 0.433,0.405 1.011,0.896 1.271,1.04 0.202,0.116 0.664,0.491 1.329,1.069 1.357,2.282 2.628,4.68 3.784,7.222 z m -208.953,-1.097 c -1.705,-0.289 -4.507,-0.78 -6.182,-1.011 -4.131,-0.636 -5.951,-1.04 -5.951,-1.358 0,-0.116 0.173,-0.174 0.375,-0.116 0.173,0.058 0.867,0.174 1.445,0.26 0.606,0.087 1.675,0.289 2.368,0.434 0.723,0.173 3.727,0.722 6.732,1.213 3.004,0.52 5.633,0.953 5.777,1.04 0.78,0.289 -1.762,0.029 -4.593,-0.462 z m 39.924,0 c -5.2,-0.751 -11.613,-1.098 -13.317,-0.751 -4.334,0.953 -4.912,0.924 -5.2,-0.318 -0.376,-1.474 0.346,-1.762 7.713,-3.062 6.298,-1.098 11.411,-1.532 11.382,-0.954 -0.029,0.578 -3.062,2.109 -6.355,3.12 -0.809,0.26 -1.214,0.462 -0.896,0.491 4.507,0.203 8.724,0.954 8.724,1.474 0,0.173 -0.086,0.26 -0.202,0.26 -0.144,0 -0.982,-0.145 -1.878,-0.289 z m 61.823,-1.763 c -0.809,-0.606 -6.154,-3.9 -8.465,-5.142 -0.809,-0.404 -2.455,-1.358 -3.669,-2.08 -4.651,-2.744 -9.504,-4.68 -16.409,-6.529 -4.073,-1.097 -4.189,-0.837 -0.289,0.751 1.965,0.78 4.507,1.907 5.634,2.456 5.402,2.716 7.338,3.669 10.198,4.882 1.704,0.751 3.264,1.445 3.437,1.589 0.318,0.26 9.909,4.709 10.169,4.709 0.087,0 -0.173,-0.26 -0.578,-0.636 z m -134.449,-0.404 c -0.463,-0.202 -1.531,-0.433 -2.34,-0.52 -1.474,-0.173 -2.167,-0.722 -1.647,-1.213 0.202,-0.203 0.693,-0.145 1.358,0.086 0.578,0.203 1.473,0.434 2.022,0.549 1.242,0.202 1.964,0.636 1.964,1.127 0,0.549 -0.144,0.549 -1.328,0 z m 149.615,-1.011 c -1.589,-0.693 -5.026,-2.918 -5.229,-3.467 -0.086,-0.26 -0.029,-0.722 0.116,-1.011 0.231,-0.433 0.52,-0.52 1.415,-0.375 1.965,0.26 4.594,1.3 5.287,2.051 0.607,0.664 1.878,2.802 1.878,3.235 0,0.318 -2.34,0.029 -3.467,-0.404 z m -104.375,0.26 c -0.983,-0.087 -2.051,-0.318 -2.369,-0.491 -0.52,-0.318 -0.52,-0.347 0.289,-0.578 0.924,-0.231 4.506,0.202 7.251,0.896 l 1.618,0.404 h -2.514 c -1.386,-0.029 -3.322,-0.116 -4.275,-0.231 z m -30.796,-0.433 c -0.433,-0.318 -0.462,-0.405 -0.087,-0.434 0.232,0 0.723,0.202 1.04,0.434 0.434,0.317 0.463,0.404 0.087,0.433 -0.231,0 -0.722,-0.202 -1.04,-0.433 z m 73.089,-0.463 c -0.664,-0.115 -2.542,-0.346 -4.218,-0.52 -2.08,-0.173 -3.322,-0.433 -3.842,-0.837 l -0.809,-0.549 0.953,-0.087 c 0.694,-0.058 0.896,-0.202 0.78,-0.549 -0.115,-0.289 0.347,-0.635 1.503,-1.155 1.877,-0.838 4.073,-0.925 6.182,-0.289 1.127,0.317 1.242,0.433 1.242,1.357 0,0.809 -0.144,1.012 -0.751,1.185 -0.578,0.173 -0.462,0.202 0.52,0.231 1.387,0.029 3.149,0.78 2.86,1.213 -0.202,0.347 -2.744,0.318 -4.449,-0.029 z m -50.729,-0.433 c -0.404,-0.087 -1.213,-0.26 -1.762,-0.404 -0.549,-0.145 -2.773,-0.463 -4.94,-0.752 -3.842,-0.433 -5.402,-0.866 -5.402,-1.415 0,-0.145 0.433,-0.202 0.982,-0.116 4.42,0.636 9.562,1.503 11.093,1.907 2.687,0.636 2.745,1.184 0.058,0.809 z m -50.151,-1.3 c -2.109,-0.636 -5.373,-1.676 -7.251,-2.369 -1.878,-0.635 -4.189,-1.444 -5.2,-1.733 -2.542,-0.78 -4.565,-1.705 -4.565,-2.138 0,-0.462 1.127,-0.231 4.594,1.04 5.835,2.138 12.162,4.391 14.358,5.084 1.213,0.376 2.426,0.838 2.657,1.012 0.896,0.548 -0.693,0.26 -4.593,-0.896 z m 20.482,0.693 c -0.289,-0.086 -0.462,-0.289 -0.404,-0.462 0.144,-0.433 1.415,-0.289 1.993,0.26 0.347,0.347 0.318,0.405 -0.289,0.376 -0.404,0 -0.982,-0.087 -1.271,-0.174 z m 66.791,-0.577 c -1.589,-0.174 -2.253,-0.405 -2.166,-0.752 0.173,-0.462 1.3,-0.577 2.629,-0.231 1.733,0.463 1.415,1.156 -0.463,0.983 z m -10.053,-1.127 c -0.982,-0.202 -2.427,-0.462 -3.207,-0.578 -2.426,-0.318 -1.271,-0.549 2.398,-0.491 3.467,0.087 5.691,0.433 5.691,0.924 0,0.723 -2.109,0.78 -4.882,0.174 z M 226.14,293.51 c -1.502,-0.491 -8.06,-2.398 -9.36,-2.687 -2.051,-0.462 -5.084,-1.588 -4.882,-1.791 0.058,-0.086 2.976,0.723 6.442,1.763 3.467,1.068 6.991,2.166 7.771,2.397 0.838,0.231 1.214,0.434 0.896,0.434 -0.318,0 -0.722,-0.058 -0.896,-0.116 z m 20.771,-0.087 c -0.462,-0.057 -0.78,-0.231 -0.722,-0.433 0.116,-0.318 1.329,-0.375 1.618,-0.058 0.318,0.289 -0.173,0.578 -0.925,0.52 z m 32.558,-0.52 c 0,0 -1.878,-0.317 -3.958,-0.548 -3.957,-0.434 -5.431,-0.838 -5.431,-1.387 0,-0.202 0.462,-0.26 1.416,-0.173 0.78,0.086 3.206,0.317 5.373,0.491 4.825,0.404 5.749,0.635 5.865,1.271 0.086,0.404 -0.145,0.491 -1.503,0.491 -0.866,0 -1.646,-0.058 -1.733,-0.145 z m -38.855,-0.924 c -1.3,-0.202 -2.947,-0.462 -3.698,-0.549 -1.358,-0.202 -3.149,-0.982 -2.86,-1.213 0.404,-0.405 2.86,-0.087 5.749,0.78 1.733,0.549 3.264,1.011 3.322,1.069 0.318,0.289 -0.289,0.26 -2.485,-0.058 z m 23.573,-1.3 c -1.907,-0.433 -1.618,-1.04 0.433,-0.953 1.3,0.057 2.167,0.433 2.167,0.982 0,0.318 -1.242,0.289 -2.6,-0.029 z m -8.782,-1.387 c -0.809,-0.231 -2.023,-0.577 -2.658,-0.722 -1.676,-0.404 -2.109,-0.982 -0.578,-0.751 0.665,0.087 2.138,0.231 3.265,0.347 2.224,0.173 2.802,0.26 4.044,0.78 2.167,0.837 -1.387,1.126 -4.044,0.317 z M 227.7,288.715 c -1.184,-0.376 -3.784,-1.098 -5.806,-1.56 -3.496,-0.867 -5.229,-1.589 -4.94,-2.08 0.115,-0.203 3.466,0.722 11.151,3.033 1.097,0.318 2.137,0.78 2.282,0.953 0.462,0.578 -0.231,0.462 -2.687,-0.318 z m -33.973,-1.272 c -0.549,-0.288 -1.531,-0.635 -2.138,-0.751 -1.271,-0.231 -1.993,-0.895 -1.473,-1.386 0.202,-0.203 0.693,-0.145 1.589,0.289 0.693,0.317 1.762,0.808 2.397,1.068 0.578,0.232 1.098,0.665 1.098,0.925 0,0.549 -0.202,0.549 -1.473,-0.145 z m 12.509,0.087 c -0.405,-0.144 -0.52,-0.693 -0.145,-0.693 0.145,0 0.491,0.202 0.838,0.433 0.405,0.318 0.433,0.405 0.116,0.405 -0.231,0 -0.636,-0.087 -0.809,-0.174 z m 38.509,-0.26 c -2.745,-0.751 -5.027,-1.242 -6.356,-1.415 -1.531,-0.203 -3.467,-1.272 -3.062,-1.647 0.231,-0.231 2.138,0.115 4.449,0.838 0.491,0.144 1.762,0.375 2.802,0.52 1.04,0.115 2.051,0.231 2.196,0.26 0.173,0.029 0.577,0.086 0.924,0.086 0.347,0 1.011,0.347 1.416,0.694 0.635,0.491 0.751,0.693 0.404,0.895 -0.491,0.318 -0.924,0.289 -2.744,-0.202 z m -45.847,-2.773 c -0.52,-0.549 -0.491,-0.578 0.058,-0.578 0.346,0 0.924,0.26 1.3,0.578 l 0.722,0.549 h -0.78 c -0.404,0.029 -1.011,-0.231 -1.3,-0.549 z m -18.344,-2.196 c -2.283,-1.04 -5.952,-2.744 -8.147,-3.842 -2.196,-1.098 -4.709,-2.34 -5.605,-2.773 -1.617,-0.809 -2.282,-1.531 -1.328,-1.531 0.404,0 19.788,9.533 20.193,9.937 0.549,0.52 -1.676,-0.231 -5.142,-1.762 z m 31.113,1.676 c -0.405,-0.376 -0.173,-0.722 0.433,-0.636 0.809,0.116 1.069,0.838 0.318,0.838 -0.318,0 -0.693,-0.087 -0.78,-0.202 z m 17.94,-0.578 c -1.387,-0.462 -1.676,-0.982 -0.549,-0.982 1.387,0 2.571,0.375 2.86,0.924 0.231,0.462 0.173,0.549 -0.376,0.52 -0.375,0 -1.242,-0.202 -1.935,-0.462 z m -40.185,-2.744 c -6.355,-2.687 -9.446,-4.103 -9.273,-4.276 0.145,-0.173 1.762,0.433 4.536,1.733 1.3,0.636 4.217,1.936 6.5,2.889 2.282,0.982 4.189,1.82 4.246,1.907 0.405,0.375 -1.011,-0.145 -6.037,-2.253 z m 18.2,1.733 c -0.404,-0.116 -2.108,-0.636 -3.755,-1.156 -1.647,-0.491 -3.322,-1.184 -3.698,-1.473 l -0.693,-0.549 h 1.098 c 0.722,-0.029 2.282,0.491 4.448,1.473 1.82,0.867 3.409,1.589 3.467,1.618 0.289,0.26 -0.173,0.318 -0.867,0.087 z m 15.08,-0.751 c -0.751,-0.231 -1.906,-0.665 -2.571,-1.011 -0.722,-0.318 -1.386,-0.578 -1.531,-0.578 -0.549,0 -1.762,-0.665 -1.618,-0.925 0.058,-0.115 0.492,-0.115 0.954,0.029 0.433,0.116 2.051,0.549 3.582,0.896 1.531,0.318 3.207,0.838 3.698,1.098 l 0.924,0.491 -0.751,0.202 c -1.011,0.289 -1.127,0.26 -2.658,-0.202 z m 154.036,-2.167 c 1.473,-0.029 3.062,-0.173 3.553,-0.347 0.434,-0.202 1.329,-0.433 1.936,-0.52 l 1.098,-0.173 -3.005,-1.531 c -1.646,-0.838 -4.651,-2.34 -6.644,-3.322 l -3.64,-1.82 h -2.716 c -1.502,0 -3.206,0.115 -3.755,0.289 -0.983,0.26 -4.131,0.52 -7.974,0.577 -1.444,0.029 -1.531,0.058 -0.895,0.376 0.404,0.173 4.015,1.791 8.06,3.611 l 7.309,3.293 2.022,-0.202 c 1.098,-0.144 3.235,-0.231 4.738,-0.231 z m -181.769,-1.964 c -1.502,-0.751 -2.86,-1.329 -2.975,-1.329 -0.232,0 -2.254,-0.751 -4.536,-1.676 -1.3,-0.578 -2.398,-1.56 -1.647,-1.56 0.231,0 1.56,0.52 2.918,1.156 1.358,0.635 3.438,1.473 4.565,1.935 2.657,1.011 5.171,2.283 5.171,2.6 0,0.434 -0.751,0.203 -3.496,-1.097 z m 15.311,-0.029 c -1.069,-0.405 -2.918,-1.098 -4.189,-1.474 -2.34,-0.78 -4.073,-1.733 -4.304,-2.455 -0.173,-0.52 1.04,-0.231 2.889,0.664 1.358,0.694 4.709,1.763 6.5,2.08 1.098,0.203 2.369,1.098 2.369,1.618 0,0.52 -1.185,0.347 -3.265,-0.433 z m -35.678,-3.525 c -0.346,-0.289 -0.298,-0.414 0.145,-0.375 0.404,0.058 0.78,0.26 0.867,0.462 0.144,0.491 -0.289,0.433 -1.012,-0.087 z m 23.92,-1.069 c -0.722,-0.346 -1.271,-0.751 -1.271,-0.895 0,-0.751 3.236,0.318 3.496,1.155 0.173,0.52 -0.838,0.434 -2.225,-0.26 z m -38.22,-1.444 c -0.375,-0.289 -1.155,-0.693 -1.762,-0.924 -1.3,-0.405 -1.791,-0.809 -1.791,-1.329 0,-0.52 1.011,-0.52 1.445,0 0.173,0.231 0.78,0.577 1.3,0.809 1.011,0.375 2.282,1.386 2.282,1.791 0,0.433 -0.78,0.231 -1.445,-0.347 z m 20.078,-0.433 c -0.289,-0.347 -0.26,-0.434 0.231,-0.434 0.318,0 0.751,0.203 0.954,0.434 0.289,0.346 0.26,0.433 -0.231,0.433 -0.318,0 -0.752,-0.202 -0.954,-0.433 z m -12.22,-0.376 c -0.635,-0.664 -0.635,-0.953 -0.115,-0.953 0.404,0 1.386,0.924 1.386,1.271 0,0.404 -0.809,0.202 -1.271,-0.318 z m 23.169,-0.635 c -4.073,-2.109 -5.344,-2.832 -5.055,-2.918 0.26,-0.087 0.837,0.086 4.622,1.415 2.224,0.809 4.015,1.82 3.813,2.138 -0.289,0.462 -1.762,0.202 -3.38,-0.635 z m -17.478,-2.196 c -3.495,-1.56 -4.94,-2.427 -4.651,-2.716 0.347,-0.375 2.774,0.549 4.651,1.734 1.069,0.722 2.398,1.502 2.918,1.762 0.896,0.462 1.213,0.809 0.751,0.751 -0.144,0 -1.762,-0.664 -3.669,-1.531 z m -24.815,-2.456 c -3.236,-1.82 -5.894,-3.466 -10.4,-6.384 -1.098,-0.722 -2.716,-1.704 -3.64,-2.282 -0.896,-0.52 -1.618,-1.185 -1.618,-1.387 0,-0.895 0.289,-0.751 8.291,4.478 2.051,1.329 4.911,3.207 6.356,4.131 4.275,2.744 4.593,2.947 4.593,3.207 0,0.289 0.144,0.375 -3.553,-1.763 z m 8.406,-0.895 c -2.426,-1.416 -5.402,-3.149 -6.673,-3.871 -2.138,-1.242 -3.322,-2.167 -2.687,-2.167 0.145,0 0.376,0.116 0.549,0.26 0.145,0.145 0.751,0.549 1.3,0.867 3.467,1.935 12.509,7.453 12.249,7.453 -0.173,0 -2.282,-1.155 -4.738,-2.542 z m 20.396,-0.838 c -4.709,-2.427 -6.009,-3.293 -6.009,-3.9 0,-0.607 0.231,-0.52 1.936,0.462 1.935,1.127 5.373,2.774 6.731,3.236 1.3,0.433 2.571,1.415 2.571,1.993 0,0.751 -0.953,0.405 -5.229,-1.762 z m 231.256,-0.058 c -1.56,-0.722 -2.947,-1.762 -2.947,-2.224 0,-0.318 1.733,-0.867 2.773,-0.867 0.954,0 2.716,0.925 3.351,1.734 0.52,0.722 0.463,1.444 -0.173,1.791 -0.838,0.433 -1.184,0.375 -2.976,-0.463 z m -244.805,-0.924 c -0.809,-0.405 -1.531,-0.867 -1.618,-0.982 -0.086,-0.145 -1.213,-0.809 -2.513,-1.503 -5.142,-2.715 -5.922,-3.148 -6.298,-3.784 -0.231,-0.318 -0.289,-0.636 -0.144,-0.636 0.144,0 1.935,0.983 3.929,2.167 2.051,1.185 4.333,2.485 5.113,2.86 1.502,0.78 3.409,2.225 3.178,2.456 -0.087,0.086 -0.809,-0.174 -1.618,-0.578 z m 235.185,-3.322 c -1.329,-0.318 -2.803,-0.954 -2.803,-1.214 0,-0.115 0.347,-0.433 0.78,-0.751 1.271,-0.838 4.16,-0.231 4.854,1.011 0.549,1.069 -0.578,1.416 -2.803,0.954 z m -232.585,-1.705 c -1.358,-0.78 -1.762,-1.762 -0.578,-1.415 1.185,0.346 2.427,1.213 2.514,1.704 0.144,0.693 -0.405,0.578 -1.936,-0.289 z m -23.92,-1.675 c -0.635,-0.463 -0.462,-0.896 0.26,-0.578 0.462,0.173 0.953,1.011 0.549,1.011 -0.144,0 -0.491,-0.173 -0.838,-0.404 z m 188.905,-0.029 c -0.203,-0.26 -0.289,-0.52 -0.203,-0.636 0.231,-0.231 1.994,0.491 1.994,0.838 0,0.433 -1.387,0.289 -1.763,-0.173 z M 158.829,252.95 c -5.027,-3.38 -5.055,-3.698 -0.115,-1.184 2.975,1.473 4.564,2.513 4.564,2.917 0,0.087 -0.347,0.174 -0.809,0.174 -0.52,0 -1.907,-0.751 -3.64,-1.936 z m -9.764,0.578 c -0.203,-0.26 -0.289,-0.549 -0.174,-0.636 0.231,-0.26 1.127,0.26 1.3,0.751 0.145,0.492 -0.693,0.434 -1.126,-0.086 z m -12.047,-1.733 c -0.433,-0.376 -0.751,-0.838 -0.607,-0.954 0.289,-0.289 1.705,0.722 1.705,1.214 0,0.577 -0.116,0.548 -1.098,-0.26 z m -8.551,-0.26 c -0.693,-0.549 -1.618,-1.185 -2.167,-1.445 -0.924,-0.491 -1.271,-1.415 -0.491,-1.415 0.202,0 0.896,0.404 1.502,0.895 0.636,0.52 1.214,0.896 1.3,0.896 0.405,0 1.503,1.213 1.503,1.617 0,0.636 -0.26,0.549 -1.647,-0.52 z m 177.32,-4.449 c 1.473,0.26 2.918,0.52 4.333,0.78 3.871,1.242 7.107,2.224 7.945,2.397 1.097,0.26 4.622,1.936 4.044,1.936 -0.231,0 -3.322,-0.953 -6.818,-2.109 -3.495,-1.127 -7.164,-2.311 -8.146,-2.6 -0.318,-0.087 -0.78,-0.231 -1.387,-0.404 z m -163.193,2.455 c -3.063,-1.762 -4.536,-2.946 -3.872,-3.149 0.318,-0.115 2.08,0.491 2.369,0.809 0.087,0.116 0.896,0.751 1.763,1.416 4.275,3.293 4.188,3.553 -0.26,0.953 z m 6.76,-2.34 c -0.896,-0.635 -2.716,-1.82 -4.045,-2.658 -2.427,-1.502 -4.275,-3.293 -3.669,-3.495 0.347,-0.116 1.878,0.751 3.12,1.791 0.809,0.722 1.502,1.127 4.911,2.918 1.474,0.809 2.629,1.82 2.658,2.398 0,0.548 -1.473,0.057 -2.947,-0.983 z m -23.718,-3.466 c -6.616,-4.68 -7.829,-5.634 -7.598,-5.836 0.087,-0.116 1.676,0.982 3.553,2.398 1.878,1.386 4.883,3.611 6.703,4.911 2.946,2.109 3.553,2.571 3.235,2.571 -0.058,0 -2.715,-1.82 -5.893,-4.044 z m -7.338,0.924 c -3.438,-2.456 -4.622,-3.409 -9.129,-7.367 -5.2,-4.506 -6.355,-5.777 -5.287,-5.777 0.347,0 3.669,2.802 5.865,4.968 0.751,0.752 2.715,2.456 4.449,3.872 1.704,1.386 3.264,2.686 3.409,2.86 0.173,0.173 0.895,0.78 1.617,1.328 3.987,3.005 3.294,3.063 -0.895,0.087 z m 14.791,-1.733 c -0.895,-0.694 -2.947,-2.138 -4.564,-3.149 -1.618,-1.04 -3.438,-2.311 -3.987,-2.86 -1.733,-1.618 -0.52,-1.416 1.82,0.318 3.871,2.888 5.171,3.784 5.431,3.784 0.145,0 1.069,0.751 2.051,1.618 2.109,1.935 1.531,2.166 -0.78,0.289 z m 104.116,-3.265 c -1.069,-0.202 -2.485,-0.578 -3.12,-0.895 l -1.185,-0.463 1.04,-0.577 c 1.791,-0.983 6.818,-0.405 8.494,0.953 0.375,0.347 0.346,0.433 -0.203,0.924 -0.78,0.636 -2.253,0.636 -5.026,0.087 z m -99.84,-0.635 c -2.109,-1.416 -2.485,-2.109 -0.983,-1.705 0.896,0.231 2.312,1.502 2.312,2.08 0,0.578 0.028,0.578 -1.329,-0.346 z m 84.817,-2.023 c -2.108,-0.462 -2.368,-0.751 -1.386,-1.242 0.953,-0.491 3.178,-0.578 4.795,-0.115 1.531,0.433 1.994,0.78 1.763,1.357 -0.174,0.376 -0.52,0.463 -1.994,0.376 -0.982,-0.029 -2.426,-0.231 -3.206,-0.376 z m -90.653,-1.935 c -1.069,-0.549 -5.575,-4.478 -5.575,-4.825 0,-0.26 1.242,0.434 3.553,2.023 0.751,0.462 1.647,1.069 2.08,1.271 0.404,0.231 1.04,0.809 1.415,1.242 l 0.694,0.867 -0.694,-0.058 c -0.346,-0.029 -1.011,-0.231 -1.473,-0.52 z m -18.431,-0.896 c -0.462,-0.52 -0.462,-0.577 -0.058,-0.577 0.26,0 0.636,0.26 0.809,0.577 0.173,0.318 0.202,0.578 0.058,0.578 -0.145,0 -0.491,-0.26 -0.809,-0.578 z M 100.069,134.159 c 0.549,1.069 1.127,2.138 1.762,3.207 0.087,0.144 0.174,0.289 0.26,0.462 0.318,3.64 0.896,7.193 1.705,10.747 0.491,2.166 0.895,4.16 0.895,4.535 0,1.907 4.767,14.502 7.627,20.136 7.222,14.242 14.849,23.602 26.693,32.875 1.531,1.185 2.86,2.282 2.947,2.398 0.26,0.318 3.496,2.369 5.778,3.64 2.571,1.416 10.689,6.24 11.729,6.962 1.3,0.925 8.233,3.958 12.682,5.605 2.369,0.866 5.142,1.906 6.211,2.282 4.824,1.762 10.429,3.004 24.989,5.431 4.709,0.809 7.569,1.358 8.204,1.618 0.549,0.231 0.434,0.78 -0.144,0.693 -0.202,0 -0.838,-0.087 -1.387,-0.144 -6.615,-0.723 -17.738,-2.745 -24.96,-4.565 -8.869,-2.224 -22.158,-7.193 -26.953,-10.053 -0.982,-0.578 -3.322,-1.936 -5.171,-2.947 -1.849,-1.011 -4.449,-2.715 -5.72,-3.726 -1.271,-1.04 -3.265,-2.514 -4.449,-3.294 -7.222,-4.766 -14.936,-11.44 -19.616,-16.986 -6.095,-7.194 -14.3,-21.003 -16.9,-28.485 -3.957,-11.295 -4.391,-12.827 -5.402,-20.424 -0.404,-2.976 -0.664,-6.356 -0.751,-9.938 z m 19.76,98.944 c -0.491,-0.346 -0.635,-0.548 -0.375,-0.808 0.231,-0.232 0.462,-0.203 0.808,0.144 0.752,0.751 0.405,1.242 -0.404,0.636 z m 124.569,-1.646 c -5.662,-1.069 -11.353,-2.022 -17.102,-2.889 -4.218,-0.665 -11.527,-1.762 -16.265,-2.542 -4.709,-0.751 -9.591,-1.474 -10.804,-1.647 -9.331,-1.3 -24.007,-5.633 -33.136,-9.736 -6.673,-3.004 -18.431,-10.428 -22.62,-14.271 -2.137,-1.993 -0.664,-1.126 3.843,2.196 2.455,1.791 5.344,3.871 6.471,4.622 3.813,2.485 10.66,5.98 15.571,7.916 2.686,1.069 5.402,2.195 6.066,2.484 0.665,0.318 1.647,0.665 2.225,0.78 0.549,0.087 2.051,0.52 3.264,0.925 5.518,1.762 18.374,4.477 27.358,5.748 7.425,1.04 20.425,3.034 20.598,3.149 0.087,0.058 2.311,0.434 4.882,0.867 1.589,0.26 2.86,0.462 4.247,0.693 1.82,0.607 3.64,1.214 5.431,1.791 z m -130.549,-3.496 c -3.438,-2.831 -4.507,-4.362 -2.6,-3.611 0.405,0.145 1.445,1.04 2.34,1.993 0.896,0.954 2.051,2.167 2.571,2.687 0.954,0.953 1.156,1.271 0.751,1.271 -0.144,0 -1.502,-1.069 -3.033,-2.34 z m -5.835,1.387 c -0.694,-0.751 -0.896,-1.416 -0.434,-1.416 0.462,0 1.3,1.127 1.185,1.618 -0.058,0.405 -0.174,0.376 -0.751,-0.202 z m -8.3494,-2.08 c -0.3177,-0.549 -1.0689,-1.358 -1.6466,-1.791 -1.04,-0.838 -1.4156,-1.994 -0.6356,-1.994 0.2022,0 0.6645,0.347 0.9245,0.838 0.2888,0.434 1.04,1.271 1.6466,1.878 1.1555,1.098 1.5025,2.051 0.7515,2.051 -0.231,0 -0.7226,-0.433 -1.0404,-0.953 z m 23.0534,0.722 c -0.664,-0.202 -1.358,-0.838 -4.738,-3.929 -3.322,-3.062 -4.506,-4.709 -3.438,-4.709 0.232,0 1.214,0.867 2.138,1.936 0.954,1.069 2.629,2.571 3.814,3.38 1.993,1.358 3.004,2.571 2.773,3.235 -0.058,0.145 -0.318,0.203 -0.549,0.116 z m -20.887,-5.431 c -0.982,-1.04 -2.6864,-2.976 -3.813,-4.391 -1.1267,-1.387 -2.1956,-2.629 -2.3689,-2.802 -1.04,-0.954 -3.6978,-4.883 -3.2934,-4.883 0.0578,0 1.1556,1.358 2.4267,3.063 2.7445,3.611 4.3333,5.489 7.0196,8.58 1.127,1.242 1.994,2.282 1.936,2.282 -0.058,0 -0.924,-0.838 -1.907,-1.82 z m 4.247,-2.629 c -0.722,-0.809 -2.484,-2.831 -3.958,-4.507 -2.9754,-3.351 -4.3909,-5.46 -3.2643,-5.055 0.2312,0.087 1.0978,1.069 1.9063,2.138 0.838,1.097 2.572,3.149 3.9,4.622 2.34,2.571 3.554,4.333 2.976,4.333 -0.144,0 -0.867,-0.664 -1.56,-1.502 z m -13.2889,-0.202 c -0.4045,-0.433 -1.2711,-1.445 -1.9067,-2.282 -0.6644,-0.809 -1.3867,-1.705 -1.6755,-2.051 -0.26,-0.289 -1.56,-2.167 -2.8889,-4.132 -1.3,-1.964 -2.8889,-4.362 -3.5534,-5.286 -1.5889,-2.311 -2.8311,-4.565 -2.6289,-4.767 0.3756,-0.404 1.0689,0.202 2.1378,1.993 4.0156,6.587 5.3734,8.638 9.8511,14.792 1.6756,2.311 2.0511,3.293 0.6934,1.733 z m 17.6509,-3.322 c -1.184,-1.3 -1.444,-2.311 -0.491,-1.791 0.78,0.404 2.109,2.051 2.109,2.571 0,0.693 -0.462,0.462 -1.589,-0.78 z m -3.582,-4.189 c -0.751,-0.405 -1.011,-0.751 -2.831,-3.467 -2.802,-4.131 -2.513,-4.275 0.924,-0.404 3.178,3.582 3.843,4.969 1.936,3.871 z m -11.2956,-5.171 c -0.4044,-0.145 -0.52,-1.271 -0.1444,-1.271 0.3466,0 0.9533,0.693 0.9533,1.097 0,0.376 -0.1733,0.434 -0.8089,0.174 z m -6.5289,-0.434 c -0.4044,-0.404 -0.4622,-1.126 -0.0866,-1.126 0.2888,0 0.78,1.155 0.5488,1.357 -0.0577,0.058 -0.2888,-0.057 -0.4622,-0.231 z m 3.8711,-3.871 c -1.2422,-1.444 -3.9,-5.489 -4.1022,-6.24 -0.4911,-2.08 1.4156,0 3.1489,3.38 0.6933,1.387 1.3867,2.687 1.56,2.889 0.52,0.693 0.0289,0.636 -0.5778,-0.029 z m 22.3024,-2.051 c -0.896,-0.722 -1.791,-1.589 -1.965,-2.022 -0.173,-0.405 -0.664,-1.271 -1.068,-1.936 -1.127,-1.791 -1.156,-1.935 -0.492,-2.571 l 0.578,-0.578 1.56,1.185 c 3.005,2.253 3.814,3.467 3.814,5.864 0,1.647 -0.289,1.647 -2.456,0.058 z m -30.0157,-0.289 c -0.5489,-0.722 -0.7222,-1.704 -0.26,-1.704 0.3756,0 1.0978,1.155 1.0978,1.762 0,0.404 -0.4622,0.347 -0.8378,-0.058 z m 53.3867,-4.969 c -0.982,-0.982 -1.704,-1.849 -1.618,-1.964 0.174,-0.145 2.34,1.3 3.582,2.398 0.549,0.52 0.694,1.329 0.145,1.329 -0.173,0 -1.127,-0.809 -2.109,-1.763 z m -60.4934,1.416 c -0.2022,-0.202 -0.3466,-0.578 -0.3466,-0.809 0,-0.231 -0.4911,-1.156 -1.0978,-2.022 -1.0111,-1.445 -1.04,-1.618 -0.6067,-2.08 0.4334,-0.434 0.5489,-0.347 1.2134,0.982 0.3755,0.809 0.9533,1.849 1.2133,2.34 0.26,0.52 0.4622,1.04 0.4622,1.242 0,0.52 -0.4333,0.722 -0.8378,0.318 z m 2.8311,-5.027 c -0.5488,-1.04 -1.6466,-3.322 -2.4555,-5.113 -0.78,-1.762 -1.5022,-3.38 -1.6178,-3.553 -0.2889,-0.405 -1.1844,-2.716 -1.6755,-4.276 -0.7223,-2.369 0.1155,-0.838 1.6755,3.12 0.8667,2.138 2.3978,5.633 3.4378,7.771 1.0111,2.138 1.7911,3.9 1.7333,3.9 -0.0578,0 -0.52,-0.838 -1.0978,-1.82 z m 3.0045,-5.113 c -2.6578,-5.46 -3.6111,-8.176 -2.5422,-7.28 0.2311,0.202 0.52,0.693 0.6644,1.011 0.3467,1.271 2.8889,6.904 3.4089,7.54 0.6644,0.838 1.5311,3.467 1.3578,3.987 -0.0578,0.173 -1.3578,-2.167 -2.86,-5.258 z m 28.6868,-33.425 c 0.144,0.174 0.26,0.347 0.404,0.492 0,0 0,0.028 0.029,0.057 0.231,0.434 0.434,0.983 0.434,1.127 0,0.173 0.173,0.722 0.404,1.213 1.156,2.745 2.34,5.691 3.322,8.205 2.6,6.875 7.8,15.455 13.116,21.609 1.473,1.704 2.831,3.553 2.629,3.553 -0.058,0 -0.289,-0.144 -0.52,-0.289 -1.329,-0.838 -4.767,-4.709 -6.76,-7.684 -4.16,-6.183 -7.309,-12.134 -10.4,-19.731 -1.503,-3.669 -2.803,-8.147 -2.629,-8.523 z m -39.4046,33.945 c -0.7222,-1.213 -3.3222,-7.569 -4.3044,-10.573 -2.0223,-5.894 -3.38,-10.458 -3.1778,-10.776 0.3178,-0.549 0.6933,-0.347 0.9822,0.664 0.1733,0.492 0.6645,2.167 1.0978,3.612 1.56,5.171 3.0333,9.504 5.6622,16.524 0.52,1.387 0.4045,1.618 -0.2311,0.549 z m 17.8533,-81.351 c 0.3178,3.582 0.9823,7.395 2.1089,11.411 -0.4044,3.438 -0.6644,6.818 -0.6644,9.678 -0.0289,2.137 -0.0578,4.044 -0.0867,4.275 -0.0289,0.231 0.0578,2.196 0.1734,4.276 0.3466,5.749 1.3288,12.046 3.2066,21.146 0.3178,1.532 0.6645,3.149 0.7511,3.554 0.5489,2.802 1.8778,6.644 3.4378,9.995 0.6066,1.358 1.1266,2.543 1.1266,2.629 0,0.087 0.722,1.416 1.589,3.005 0.867,1.56 1.647,3.264 1.762,3.726 0.087,0.52 0.289,1.387 0.434,2.023 0.231,0.953 0.173,1.097 -0.232,1.097 -0.26,0 -0.895,-0.433 -1.386,-0.953 -1.271,-1.416 -1.994,-2.513 -2.889,-4.536 -0.4335,-0.982 -1.1846,-2.368 -1.6468,-3.12 -0.8667,-1.357 -3.4089,-7.857 -4.4778,-11.468 -0.3178,-1.098 -0.7222,-2.254 -0.8667,-2.572 -1.1266,-2.484 -3.2644,-12.306 -3.6977,-16.871 -0.6934,-7.337 -0.8378,-10.515 -0.8667,-17.304 0,-8.378 0.2889,-11.989 2.2244,-20.049 z m -12.0466,69.304 c -0.0867,-0.404 -0.1156,-0.838 -0.0289,-0.924 0.2889,-0.289 0.8089,0.202 0.8089,0.78 0,0.895 -0.5489,0.982 -0.78,0.144 z M 72.798,172.87 c -0.2311,-1.011 0.0289,-1.358 0.4044,-0.578 0.1733,0.318 0.2022,0.751 0.0578,0.983 -0.1733,0.288 -0.2889,0.202 -0.4622,-0.376 z m 4.94,-2.195 c -0.8956,-1.936 -2.3978,-6.472 -2.3978,-7.252 0,-1.097 0.3755,-1.04 1.0111,0.145 0.4622,0.924 2.08,7.598 1.8778,7.8 -0.0578,0.058 -0.26,-0.26 -0.4622,-0.722 z m -6.8178,-4.478 c -0.4333,-0.838 -0.4045,-1.936 0.0289,-1.762 0.4622,0.173 0.8378,1.531 0.52,2.022 -0.1734,0.26 -0.3178,0.202 -0.5489,-0.231 z m -5.4889,-3.236 c -0.0867,-0.462 -0.3756,-1.589 -0.6644,-2.513 -0.26,-0.925 -0.3756,-1.907 -0.26,-2.167 0.3177,-0.895 0.9244,-0.26 1.0977,1.214 0.1156,0.808 0.3467,1.82 0.52,2.311 0.3467,0.895 0.2023,1.964 -0.26,1.964 -0.1733,0 -0.3466,-0.347 -0.4333,-0.809 z m 9.4756,-2.166 c -0.1156,-0.174 -0.4334,-1.676 -0.7512,-3.352 -0.3177,-1.646 -0.8377,-4.217 -1.1844,-5.662 -0.6644,-2.889 -0.7511,-4.478 -0.2889,-4.766 0.3178,-0.203 0.3467,-0.029 1.1845,4.94 0.3177,2.08 0.7222,4.073 0.8666,4.477 0.3178,0.838 0.7511,4.651 0.52,4.651 -0.0866,0 -0.26,-0.144 -0.3466,-0.288 z m -5.6045,-2.138 c -0.4333,-2.08 -1.4155,-7.222 -1.9644,-10.458 -0.2311,-1.473 -0.3467,-4.391 -0.1445,-3.842 0.0578,0.173 0.4045,2.224 0.7511,4.593 0.3467,2.369 0.9534,5.951 1.3289,7.945 0.8089,4.015 0.8089,5.228 0.0289,1.762 z m -6.0955,-5.114 c 0,0 -0.3178,-2.08 -0.7223,-4.362 -0.7222,-4.275 -0.9244,-5.98 -1.2711,-11.44 -0.3178,-4.391 -0.2889,-7.251 0.0578,-7.309 0.4911,-0.115 0.6933,1.214 0.8667,6.067 0.1155,2.542 0.3755,6.644 0.6644,9.071 0.78,7.742 0.8089,8.147 0.5778,8.147 -0.0867,0 -0.1733,-0.058 -0.1733,-0.145 z m 8.5222,-10.717 c -0.1734,-0.636 0,-1.271 0.3466,-1.271 0.4045,0 0.52,1.155 0.1445,1.473 -0.26,0.231 -0.4045,0.173 -0.4911,-0.202 z m -5.5756,-4.074 c 0,-0.404 0.1445,-0.751 0.2889,-0.751 0.1733,0 0.2889,0.318 0.2889,0.751 0,0.434 -0.1156,0.751 -0.2889,0.751 -0.1444,0 -0.2889,-0.317 -0.2889,-0.751 z m 5.2,-1.271 c -0.4044,-2.34 -0.5489,-7.078 -0.2311,-7.626 0.5778,-1.069 0.9822,0.895 0.9245,4.824 -0.0578,3.727 -0.3178,4.824 -0.6934,2.802 z m -5.3733,-5.835 c -0.2022,-0.838 0,-1.618 0.4622,-1.618 0.3756,0 0.3756,1.993 0,2.224 -0.1444,0.087 -0.3467,-0.173 -0.4622,-0.577 z m -4.2756,-5.778 c 0,0 -0.0866,-1.329 -0.1444,-2.802 -0.0578,-2.514 0.2022,-3.611 0.8089,-3.265 0.3466,0.231 0.1444,5.402 -0.26,5.836 -0.2022,0.202 -0.3756,0.289 -0.3756,0.231 z m 9.6489,-3.987 c 0.0867,-2.109 0.2311,-4.998 0.2889,-6.413 0.1445,-2.6 0.52,-4.247 0.9822,-3.958 0.1445,0.087 0.1445,1.127 0,2.311 -0.1155,1.185 -0.3466,4.189 -0.4911,6.702 -0.1733,2.658 -0.4333,4.709 -0.6355,4.883 -0.26,0.231 -0.2889,-0.636 -0.1445,-3.525 z m -4.9689,-0.433 c 0.26,-5.113 1.04,-13.433 1.3,-14.011 0.3178,-0.78 0.1734,1.675 -0.4333,7.222 -0.26,2.196 -0.4622,4.796 -0.4911,5.778 -0.0289,0.982 -0.1445,2.195 -0.26,2.658 -0.1445,0.548 -0.1733,-0.116 -0.0867,-1.618 z m -4.5355,-7.685 c 0.52,-5.922 0.8089,-8.175 1.3866,-11.093 0.5489,-2.9754 1.1556,-6.2399 1.6178,-9.071 0.2022,-1.2133 0.8378,-1.9644 1.1556,-1.4155 0.1733,0.2888 -0.1445,2.34 -1.3289,7.6844 -0.2889,1.3871 -0.7511,3.9001 -1.0111,5.6331 -0.26,1.705 -0.5778,3.785 -0.7511,4.594 -0.1734,0.837 -0.3467,2.224 -0.4623,3.12 -0.26,2.455 -0.8377,3.004 -0.6355,0.577 z m 10.8333,-6.586 c 0,-0.694 0.3178,-1.387 0.6645,-1.387 0.4044,0 0.1444,1.56 -0.26,1.705 -0.2023,0.057 -0.3756,-0.087 -0.3756,-0.318 z m 1.0111,-4.854 c 0.0578,-0.288 0.2889,-1.791 0.4622,-3.3507 0.3756,-3.12 1.0978,-5.2288 1.5312,-4.7955 0.1733,0.1733 0.2311,0.8955 0.1444,1.5889 -0.1733,1.6755 -1.7622,7.0493 -2.08,7.0493 -0.1444,0 -0.1733,-0.232 -0.0867,-0.492 z m -5.4311,-0.057 c 0,-0.549 0.3467,-1.214 0.5778,-1.069 0.2889,0.173 0.0289,1.329 -0.3178,1.329 -0.1444,0 -0.26,-0.116 -0.26,-0.26 z m 1.4733,-6.9914 c 0,-0.5778 0.6645,-1.9356 0.9534,-1.9356 0.3178,0 0.2889,1.0978 -0.0578,1.82 -0.3756,0.6645 -0.8956,0.7511 -0.8956,0.1156 z m 6.9912,-5.7778 c 0.0866,-0.5489 0.4333,-1.6178 0.78,-2.3689 0.3177,-0.7511 1.0977,-2.7733 1.7044,-4.5356 0.6356,-1.7333 1.4733,-3.7555 1.9644,-4.4488 1.3289,-1.9934 1.1845,-0.6934 -0.26,2.4844 -0.7222,1.5022 -1.7333,4.0444 -2.2822,5.6333 -0.52,1.5311 -1.2133,3.1489 -1.5311,3.5534 l -0.5489,0.6933 0.2022,-1.04 z m -9.5623,-1.9933 c 0.0867,-0.2889 0.4911,-1.5889 0.8667,-2.8889 0.4911,-1.6467 0.8667,-2.3978 1.2133,-2.4556 0.6934,-0.1444 0.6645,0.5778 -0.0577,2.4556 -0.3178,0.8089 -0.7512,1.9355 -0.9245,2.4555 -0.3755,0.9822 -1.3867,1.3867 -1.0978,0.4334 z m 5.3734,-1.1267 c 0.4333,-2.2245 5.6044,-14.0111 6.3266,-14.4733 0.1734,-0.1156 -0.2889,1.0977 -1.04,2.6866 -0.78,1.5889 -1.7622,3.7556 -2.2822,4.8245 -0.4911,1.0689 -1.4155,3.2644 -2.0511,4.8822 -0.6067,1.6178 -1.0689,2.5711 -0.9822,2.08 z m 7.8289,-25.22 c -0.8956,1.4444 -1.4734,2.34 -1.6756,2.5422 -0.4333,0.4622 -5.2578,8.9267 -6.7022,11.8445 -1.0689,2.1088 -1.5889,2.7444 -1.1845,1.4733 0.7223,-2.3689 5.2289,-11.18 7.0489,-13.6933 0.0867,-0.1156 0.1445,-0.2312 0.2311,-0.3467 0.7511,-0.6067 1.5311,-1.2133 2.2823,-1.7911 z m 3.2644,12.2489 c 0,-0.5489 0.8378,-1.2422 1.0978,-0.9822 0.26,0.2311 -0.26,1.1266 -0.7511,1.3 -0.2023,0.0577 -0.3467,-0.0867 -0.3467,-0.3178 z m 2.3689,-3.6689 c 0,-0.4911 3.64,-6.5578 4.3333,-7.2222 l 0.8089,-0.7223 -0.1733,1.0978 c -0.1445,0.9534 -1.1556,2.5711 -2.5134,4.0156 -0.1733,0.2022 -0.78,0.9822 -1.2711,1.7044 -0.8666,1.2422 -1.1555,1.5311 -1.1555,1.0978 z m -4.7378,-2.7156 c 0.1445,-0.3177 0.4333,-0.6933 0.5778,-0.78 0.4044,-0.26 0.3467,0.5489 -0.0578,0.9823 -0.5489,0.5488 -0.8955,0.4044 -0.52,-0.2023 z m 3.8422,-5.6333 c 0,-0.1733 0.3178,-0.6644 0.6934,-1.0978 0.8955,-1.04 1.3289,-0.4622 0.4622,0.5778 -0.6356,0.78 -1.1556,1.0111 -1.1556,0.52 z m 15.4554,-11.0933 -0.086,0.1155 c -1.0116,1.2134 -2.456,3.12 -3.2071,4.16 -2.2534,3.1778 -3.8712,4.9111 -3.8712,4.1022 0,-0.2022 0.78,-1.3288 1.7045,-2.4844 0.9822,-1.1556 2.1378,-2.6867 2.6,-3.4089 0.6355,-0.9533 1.04,-1.5889 1.3867,-2.0511 0.4911,-0.1733 0.9821,-0.3178 1.4731,-0.4622 z m -10.1687,4.3333 c 0,0 -0.2022,0.1156 -0.3178,0.1733 -0.2889,0.4623 -0.1733,0.4045 0.3178,-0.1733 z"
         fill="#009aac"
         id="path7" />
      <path
         d="m 459.942,240.5 c 5.01,0 9.071,-4.152 9.071,-9.273 0,-5.122 -4.061,-9.273 -9.071,-9.273 -5.01,0 -9.071,4.151 -9.071,9.273 0,5.121 4.061,9.273 9.071,9.273 z"
         fill="#ebebeb"
         id="path8" />
      <path
         d="m 200.958,429.838 c 5.01,0 9.071,-4.152 9.071,-9.273 0,-5.122 -4.061,-9.274 -9.071,-9.274 -5.01,0 -9.071,4.152 -9.071,9.274 0,5.121 4.061,9.273 9.071,9.273 z"
         fill="#ebebeb"
         id="path9" />
      <path
         d="m 121.85,426.545 c 3.494,0 6.327,-2.69 6.327,-6.009 0,-3.318 -2.833,-6.009 -6.327,-6.009 -3.494,0 -6.327,2.691 -6.327,6.009 0,3.319 2.833,6.009 6.327,6.009 z"
         fill="#ebebeb"
         id="path10" />
      <path
         d="m 116.973,458.814 c 2.186,0 3.958,-1.746 3.958,-3.9 0,-2.154 -1.772,-3.9 -3.958,-3.9 -2.185,0 -3.957,1.746 -3.957,3.9 0,2.154 1.772,3.9 3.957,3.9 z"
         fill="#ebebeb"
         id="path11" />
      <path
         d="m 77.0711,139.389 c 5.0098,0 9.0711,-4.152 9.0711,-9.273 0,-5.122 -4.0613,-9.274 -9.0711,-9.274 -5.0098,0 -9.0711,4.152 -9.0711,9.274 0,5.121 4.0613,9.273 9.0711,9.273 z"
         fill="#ebebeb"
         id="path12" />
      <path
         d="m 441.829,299.087 c 5.01,0 9.071,-4.062 9.071,-9.071 0,-5.01 -4.061,-9.072 -9.071,-9.072 -5.01,0 -9.071,4.062 -9.071,9.072 0,5.009 4.061,9.071 9.071,9.071 z"
         fill="#ebebeb"
         id="path13" />
      <path
         d="m 54.6235,163.597 c 3.4942,0 6.3267,-2.69 6.3267,-6.009 0,-3.319 -2.8325,-6.009 -6.3267,-6.009 -3.4941,0 -6.3266,2.69 -6.3266,6.009 0,3.319 2.8325,6.009 6.3266,6.009 z"
         fill="#ebebeb"
         id="path14" />
      <path
         d="m 79.7915,182.981 c 3.4941,0 6.3267,-2.69 6.3267,-6.009 0,-3.318 -2.8326,-6.008 -6.3267,-6.008 -3.4941,0 -6.3267,2.69 -6.3267,6.008 0,3.319 2.8326,6.009 6.3267,6.009 z"
         fill="#ebebeb"
         id="path15" />
      <path
         fill-rule="evenodd"
         clip-rule="evenodd"
         d="m 250.524,21.6676 -3.207,92.9934 c -0.029,0.838 0.636,1.531 1.445,1.56 0.809,0.029 1.531,-0.636 1.56,-1.445 L 253.5,21.7831 c 0.028,-0.8377 -0.636,-1.5311 -1.445,-1.56 -0.838,-0.0289 -1.531,0.6356 -1.56,1.4445 z"
         fill="#584138"
         id="path16" />
      <path
         fill-rule="evenodd"
         clip-rule="evenodd"
         d="m 239.142,149.846 c 0,0 3.727,-35.562 5.749,-42.553 0.578,-2.022 5.402,-2.282 6.269,0.578 2.427,7.944 7.28,47.638 7.28,47.638 0,0 -16.727,-0.174 -19.327,-5.634 z"
         fill="#584138"
         id="path17" />
      <path
         fill-rule="evenodd"
         clip-rule="evenodd"
         d="m 256.786,142.611 c 0.138,1.042 0.271,2.047 0.396,3.006 -4.308,-0.402 -11.228,-1.725 -16.92,-5.946 0.128,-1.13 0.265,-2.319 0.409,-3.548 3.215,-0.197 8.874,-1.141 14.544,-4.965 0.157,1.1 0.312,2.2 0.463,3.29 -4.152,2.533 -8.225,3.733 -11.441,4.287 4.375,2.553 9.182,3.519 12.549,3.876 z m -3.09,-21.619 c 0.154,0.976 0.31,1.976 0.465,2.995 -3.141,-0.087 -6.022,-1.092 -8.468,-2.393 -1.082,-0.579 -2.075,-1.216 -2.961,-1.851 0.164,-1.176 0.327,-2.315 0.488,-3.4 1.06,0.863 2.387,1.808 3.918,2.622 1.896,1.033 4.131,1.865 6.558,2.027 z"
         fill="#bd8157"
         id="path18" />
      <path
         fill-rule="evenodd"
         clip-rule="evenodd"
         d="m 452.51,127.602 -18.633,-19.037 c 0,0 -51.942,10.255 -111.194,91 0,0 -74.157,-72.194 -151.031,-77.394 l -3.784,8.263 c 0,0 -5.893,-1.618 -16.611,0 l -9.476,17.275 c 0,0 189.858,79.156 187.922,79.473 -1.935,0.318 104.145,-79.473 104.145,-79.473 l 18.633,-20.107 z"
         fill="#f8fcda"
         id="path19" />
      <path
         fill-rule="evenodd"
         clip-rule="evenodd"
         d="m 175.842,131.878 c 0,0 70.835,14.762 132.86,70.864 0.231,0.202 0.606,0.202 0.808,-0.029 0.203,-0.231 0.203,-0.607 -0.028,-0.809 -62.256,-56.333 -133.38,-71.124 -133.38,-71.124 -0.318,-0.058 -0.636,0.144 -0.694,0.462 -0.058,0.318 0.145,0.636 0.462,0.693 z"
         fill="#b7bb9b"
         id="path20" />
      <path
         fill-rule="evenodd"
         clip-rule="evenodd"
         d="m 433.158,121.882 c 0,0 -56.362,17.796 -100.88,77.133 -0.202,0.26 -0.145,0.636 0.115,0.809 0.26,0.202 0.636,0.145 0.809,-0.115 44.258,-58.991 100.274,-76.7 100.274,-76.7 0.317,-0.087 0.491,-0.434 0.375,-0.723 -0.087,-0.317 -0.433,-0.491 -0.722,-0.375 z"
         fill="#b7bb9b"
         id="path21" />
      <path
         fill-rule="evenodd"
         clip-rule="evenodd"
         d="m 298.244,211.553 c 0,0 27.503,-16.466 48.736,-0.202 l -43.218,191.678 c 0,0 -22.273,7.193 -33.713,9.1 l -8.436,-38.538 36.66,-162.038 z"
         fill="#462255"
         id="path22" />
      <path
         fill-rule="evenodd"
         clip-rule="evenodd"
         d="m 138.78262,140.87417 c 0,0 77.624,-7.829 167.815,65.578 l -33.713,203.955 c 0,0 -84.702,-36.978 -169.202,-23.544 z"
         fill="#73204b"
         id="path23" />
      <path
         fill-rule="evenodd"
         clip-rule="evenodd"
         d="m 338.775,206.064 c 0,0 55.004,-74.186 118.56,-78.953 l -62.4,241.973 c 0,0 -48.071,0.694 -91.173,33.945 l 34.984,-196.965 z"
         fill="#73204b"
         id="path24" />
      <path
         fill-rule="evenodd"
         clip-rule="evenodd"
         d="m 302.64,318.847 c 0,0 -8.638,22.158 -8.436,34.984 0.145,9.534 7.252,33.54 1.387,46.916 -7.395,16.929 -24.931,11.411 -24.931,11.411 l -39.144,-13.347 c 0,0 10.92,34.927 48.764,29.178 37.844,-5.72 28.947,-59.742 22.36,-74.129 0,0 7.309,7.28 11.96,4.969 0,0 -10.92,-24.035 -11.96,-39.953 z"
         fill="#f8fcda"
         id="path25" />
    </g>
  </g>
</svg>
