<?xml version="1.0" encoding="UTF-8" standalone="no"?>
<svg
   version="1.1"
   width="96"
   height="60"
   id="svg138249"
   sodipodi:docname="logov2_white.svg"
   inkscape:version="1.1.2 (0a00cf5339, 2022-02-04)"
   viewBox="0 0 96.00003 59.999972"
   xmlns:inkscape="http://www.inkscape.org/namespaces/inkscape"
   xmlns:sodipodi="http://sodipodi.sourceforge.net/DTD/sodipodi-0.dtd"
   xmlns="http://www.w3.org/2000/svg"
   xmlns:svg="http://www.w3.org/2000/svg">
  <defs
     id="defs138253" />
  <sodipodi:namedview
     id="namedview138251"
     pagecolor="#ffffff"
     bordercolor="#666666"
     borderopacity="1.0"
     inkscape:pageshadow="2"
     inkscape:pageopacity="0.0"
     inkscape:pagecheckerboard="0"
     showgrid="false"
     inkscape:zoom="5.6568542"
     inkscape:cx="46.315494"
     inkscape:cy="24.306796"
     inkscape:window-width="1920"
     inkscape:window-height="1000"
     inkscape:window-x="0"
     inkscape:window-y="0"
     inkscape:window-maximized="1"
     inkscape:current-layer="svg138249"
     units="px"
     scale-x="1"
     width="53mm"
     inkscape:snap-bbox="true"
     inkscape:snap-global="false"
     height="128.50394px" />
  <g
     id="g142053"
     transform="matrix(0.16496887,0,0,0.16523971,-36.701066,-55.272879)"
     inkscape:export-filename="/home/piotr/Downloads/lib sreenn/logo.png"
     inkscape:export-xdpi="96"
     inkscape:export-ydpi="96"
     style="fill:#f9f9f9">
    <g
       id="g193091"
       style="fill:#f9f9f9">
      <g
         id="g193252"
         style="fill:#f9f9f9">
        <path
           d="m 0,0 c 16.189398,-0.50358727 31.945976,0.97415783 48,3 1.425059,0.1761987 1.425059,0.1761987 2.878906,0.355957 C 78.48118,6.8468926 110.59127,14.106054 132,33 c 4.0785,-1.467357 7.48361,-3.472885 11.125,-5.8125 C 148.90263,23.57141 154.67854,20.55049 161,18 c 0.63551,-0.261357 1.27102,-0.522715 1.92578,-0.791992 C 194.99819,4.1618581 231.43843,-1.5910073 266,0 c 0.33,1.98 0.66,3.96 1,6 0.9761,-0.023566 0.9761,-0.023566 1.97192,-0.047607 2.94677,-0.062339 5.89341,-0.1013794 8.84058,-0.1398926 1.53624,-0.037705 1.53624,-0.037705 3.10352,-0.076172 1.47436,-0.014502 1.47436,-0.014502 2.97851,-0.029297 1.35896,-0.023566 1.35896,-0.023566 2.74536,-0.047607 C 289,6 289,6 290.62328,7.1045933 c 2.05097,2.8236883 1.75751,5.0985117 1.7644,8.5624907 0.008,1.021483 0.008,1.021483 0.0163,2.063602 0.0143,2.287057 0.007,4.573539 5e-5,6.860623 0.006,1.637634 0.0127,3.275263 0.0208,4.912887 0.018,4.452553 0.0168,8.904909 0.0111,13.357486 -0.003,3.71526 0.003,7.430481 0.009,11.145735 0.0141,8.764813 0.0125,17.529527 10e-4,26.294341 -0.0115,9.044932 0.003,18.089567 0.0294,27.134462 0.0222,7.7623 0.0288,15.52451 0.0229,23.28685 -0.003,4.63749 -9.2e-4,9.27479 0.0163,13.91226 0.0155,4.36181 0.0115,8.72318 -0.007,13.08497 -0.004,1.60078 -5.6e-4,3.2016 0.01,4.80235 0.0132,2.18594 0.002,4.37042 -0.016,6.5563 -2.1e-4,1.22301 -4.2e-4,2.44602 -6.4e-4,3.70609 -0.60095,3.85967 -1.69758,5.5295 -4.50057,8.21496 -2.88973,0.47183 -5.20226,0.62968 -8.08594,0.56641 -0.80115,0.004 -1.6023,0.008 -2.42773,0.0123 -1.72335,0.008 -3.44677,0.007 -5.17011,-0.004 -4.54383,-0.0213 -9.08567,0.0486 -13.62872,0.12802 -0.91091,0.0157 -1.82183,0.0313 -2.76035,0.0474 C 243.138,182.03218 230.59548,183.80588 218,186 c -0.86625,0.14808 -1.7325,0.29616 -2.625,0.44873 -21.74887,3.86776 -43.15744,11.40908 -61.4375,23.92627 -8.83411,6.01187 -18.43406,7.46694 -28.9375,5.625 -6.98791,-2.21206 -13.18396,-6.2936 -19.41016,-10.06641 C 90.290616,196.78984 73.268629,192.03087 56,188 c -0.798735,-0.18691 -1.597471,-0.37383 -2.42041,-0.56641 -16.016917,-3.66247 -31.98002,-5.29607 -48.39209,-5.66797 -0.7667404,-0.0182 -1.5334808,-0.0364 -2.3234558,-0.0551 -3.84687947,-0.0883 -7.6925951,-0.15667 -11.5403137,-0.19364 -1.4230195,-0.0248 -2.8460345,-0.05 -4.2690435,-0.0754 -1.263442,-0.0135 -2.526884,-0.0269 -3.828613,-0.0408 C -20.349944,180.95654 -21.527546,180.56809 -24,178 c -0.497778,-3.01851 -0.497778,-3.01851 -0.494476,-6.80116 -0.0048,-0.69536 -0.0097,-1.39071 -0.01463,-2.10714 -0.01129,-2.33572 0.0061,-4.67034 0.02327,-7.00601 -0.0021,-1.67205 -0.006,-3.34411 -0.0115,-5.01616 -0.0097,-4.54541 0.0056,-9.09043 0.02591,-13.63579 0.01754,-4.75033 0.01405,-9.50064 0.01328,-14.25099 0.0019,-7.97708 0.01925,-15.95401 0.04654,-23.93104 0.03146,-9.232372 0.042,-18.464576 0.04053,-27.696997 -0.0012,-8.870301 0.009,-17.740548 0.02558,-26.610833 0.0071,-3.780274 0.01073,-7.560529 0.01179,-11.340809 0.002,-4.447892 0.01418,-8.895644 0.03433,-13.34349 0.0059,-1.6359 0.0083,-3.271815 0.0071,-4.907725 -9.76e-4,-2.226043 0.01028,-4.451689 0.02482,-6.677677 0.0034,-1.247898 0.0067,-2.495797 0.01016,-3.78151 C -24,8 -24,8 -22,6 c 2.062988,-0.2270508 2.062988,-0.2270508 4.570313,-0.1953125 0.895898,0.00645 1.791796,0.012891 2.714843,0.019531 1.405723,0.025137 1.405723,0.025137 2.839844,0.050781 0.944883,0.00902 1.8897656,0.018047 2.8632812,0.027344 C -6.6742271,5.9259548 -4.3372388,5.9588848 -2,6 -1.34,4.02 -0.68,2.04 0,0 Z"
           fill="#3a4c5a"
           transform="translate(382,341)"
           id="path138179"
           style="fill:#f9f9f9" />
      </g>
    </g>
    <path
       d="m 0,0 c 0,27.06 0,54.12 0,82 -5.94,0.33 -11.88,0.66 -18,1 -4.978674,0.643816 -9.874086,1.333598 -14.8125,2.1875 -1.287532,0.220671 -2.575063,0.441343 -3.901611,0.668701 -22.941508,4.089194 -43.956056,11.452431 -64.063229,23.260989 -2.38598,1.39399 -4.74688,2.66828 -7.22266,3.88281 -0.20877,-10.96136 -0.36856,-21.922243 -0.46631,-32.885186 -0.0469,-5.090989 -0.11053,-10.180615 -0.21265,-15.27082 -0.098,-4.91493 -0.15164,-9.828552 -0.17494,-14.744383 -0.0166,-1.872825 -0.049,-3.745581 -0.0977,-5.617847 -0.36531,-14.640018 -0.36531,-14.640018 2.85385,-19.142241 2.30797,-1.84535 4.41744,-3.112739 7.09772,-4.339523 0.805835,-0.431262 1.611671,-0.862524 2.441925,-1.306854 2.271372,-1.201948 4.573325,-2.238761 6.933075,-3.255646 0.867942,-0.379307 1.735884,-0.758613 2.630127,-1.149414 C -58.750167,3.2172174 -30.735617,0 0,0 Z"
       fill="#dff3ef"
       transform="translate(632,363)"
       id="path138181"
       style="fill:#f9f9f9" />
    <path
       d="m 0,0 c 22.237149,0 22.237149,0 28.9375,0.75 1.228195,0.13305542 1.228195,0.13305542 2.481201,0.2687988 C 55.43036,3.8125578 79.858907,10.002762 101,22 c 1.01844,0.510031 2.03689,1.020061 3.0862,1.545547 C 107,26 107,26 107.72153,29.783875 c 0.0174,1.552146 0.002,3.104877 -0.0404,4.656555 0.001,1.273717 0.001,1.273717 0.003,2.573166 -0.004,2.803699 -0.0508,5.604998 -0.0979,8.408279 -0.0112,1.944831 -0.0197,3.889679 -0.0257,5.834534 -0.0229,5.116524 -0.0818,10.232024 -0.14822,15.348144 -0.0614,5.221519 -0.0888,10.443203 -0.11902,15.664978 C 107.22864,92.51347 107.12625,102.75665 107,113 c -1.45131,-0.80069 -2.90195,-1.6026 -4.35229,-2.40503 -0.8079,-0.44643 -1.61579,-0.89287 -2.44817,-1.35283 -2.237149,-1.26338 -4.371575,-2.63481 -6.51204,-4.05464 C 66.193399,88.562161 31.344628,83.843802 0,82 0,54.94 0,27.88 0,0 Z"
       fill="#e1f4f0"
       id="path138183"
       transform="translate(399,363)"
       style="fill:#f9f9f9" />
    <path
       d="m 0,0 c 1.1223202,-0.0159874 2.2446405,-0.03197479 3.4009705,-0.04844666 1.8310679,-0.008044 1.8310679,-0.008044 3.6991272,-0.01625061 1.8841209,-0.0135427 1.8841209,-0.0135427 3.8063053,-0.027359 2.668388,-0.01454087 5.336348,-0.02419285 8.00473,-0.02708435 3.386951,-0.005338 6.772682,-0.0428108 10.159292,-0.0887442 3.259816,-0.03731 6.519672,-0.0383074 9.779673,-0.0443125 1.200469,-0.0195323 2.400939,-0.0390646 3.637787,-0.0591888 9.106703,0.0479685 17.63898,1.63294272 24.654052,7.82800292 5.440271,5.7177532 8.568935,11.1839412 8.934723,19.1647792 -0.179639,6.8641 -2.686848,11.999022 -6.4375,17.625 0.580078,0.61875 0.580078,0.61875 1.171875,1.25 5.381871,5.968015 9.291198,11.274477 9.100098,19.602784 -0.479146,3.782845 -2.021269,6.919951 -3.771973,10.272216 -0.363113,0.702137 -0.726225,1.404273 -1.100342,2.127686 -3.429117,6.309309 -6.886172,10.089744 -13.733505,12.604416 -7.527602,2.215156 -14.54227,2.56588 -22.357559,2.50618 -1.900594,7.47e-4 -1.900594,7.47e-4 -3.839584,0.0015 -2.65674,-0.0023 -5.312659,-0.01036 -7.969254,-0.02861 -3.406343,-0.02289 -6.812245,-0.02318 -10.218644,-0.01648 -3.261706,0.0041 -6.523333,-0.0078 -9.7850181,-0.01892 -1.8357735,0.0014 -1.8357735,0.0014 -3.7086334,0.0028 -1.6883219,-0.0143 -1.6883219,-0.0143 -3.41075136,-0.02888 -0.99274429,-0.0046 -1.98548854,-0.0092 -3.00831604,-0.01396 -2.3683929,-0.260697 -2.3683929,-0.260697 -4.3683929,-2.260697 -0.1986335,-2.79051 -0.2726985,-5.48179 -0.2587891,-8.273437 -0.0035,-0.855394 -0.00701,-1.710787 -0.01062,-2.592102 -0.00883,-2.836569 -0.00297,-5.672889 0.00378,-8.509461 -0.00135,-1.965332 -0.00329,-3.930664 -0.0058,-5.895996 -0.00295,-4.12259 0.00135,-8.245095 0.010681,-12.367675 0.011395,-5.293192 0.00484,-10.58618 -0.00714,-15.879364 -0.00722,-4.059373 -0.00493,-8.118697 2.556e-4,-12.17807 0.00134,-1.952108 -3.142e-4,-3.904221 -0.00496,-5.856324 -0.00506,-2.72483 0.00264,-5.449328 0.013802,-8.174133 -0.00405,-0.8125324 -0.0081,-1.6250647 -0.012268,-2.4622192 C -7.581703,1.528753 -6.5481327,0.07039391 0,0 Z"
       fill="#394c5a"
       id="path138185"
       transform="translate(341.36084,585.6936)"
       style="fill:#f9f9f9" />
    <path
       d="m 0,0 c 0.7115625,-0.01160156 1.423125,-0.02320313 2.15625,-0.03515625 2.9244948,0.01636844 5.3672701,0.19340397 8.045776,1.41186525 2.779501,3.0891722 2.355182,6.4177666 2.315552,10.369385 0.007,0.853933 0.01402,1.707867 0.02124,2.587677 0.01763,2.826572 0.0059,5.652146 -0.0076,8.478729 0.0027,1.961509 0.0066,3.923017 0.0116,5.884521 0.0059,4.112516 -0.0027,8.224684 -0.02136,12.337159 -0.02279,5.27646 -0.0097,10.552106 0.01429,15.828537 0.01444,4.050879 0.0099,8.101565 -5.11e-4,12.15245 -0.0027,1.9457 6.19e-4,3.891418 0.0099,5.837097 0.01014,2.717689 -0.0053,5.434053 -0.0276,8.151642 0.0081,0.807366 0.01619,1.614732 0.02454,2.446564 -0.08253,5.416366 -0.08253,5.416366 -2.349365,7.922821 C 6.9652092,94.847721 3.8521775,94.809951 0.375,94.75 -0.6459375,94.7674 -0.6459375,94.7674 -1.6875,94.78516 -3.6640625,94.773437 -3.6640625,94.773437 -7,94.375 c -2.0225534,-3.03383 -2.2557709,-3.687589 -2.3188477,-7.104248 -0.01987,-0.820624 -0.039739,-1.641249 -0.060211,-2.48674 -0.011551,-0.881341 -0.023103,-1.762682 -0.035004,-2.670731 -0.019366,-0.905793 -0.038732,-1.811586 -0.058685,-2.744827 C -9.5325354,76.474898 -9.5789257,73.581303 -9.625,70.6875 -9.6631805,68.725894 -9.7022323,66.764305 -9.7421875,64.802734 -9.8382363,59.993626 -9.9222704,55.184438 -10,50.375 c -0.408064,0.907747 -0.408064,0.907747 -0.824371,1.833832 -0.707285,1.573213 -1.414783,3.14633 -2.122406,4.719391 -0.830509,1.846991 -1.660256,3.694324 -2.489258,5.541992 -2.108849,4.695283 -4.248261,9.372011 -6.438965,14.029785 -1.928338,4.194633 -3.284863,8.414351 -4.449219,12.878906 C -27,91.375 -27,91.375 -29,93.375 c -3.125,0.125 -3.125,0.125 -6,0 -3.942489,-7.57424 -7.260995,-15.40813 -10.625,-23.25 -0.878931,-2.045373 -1.758548,-4.090444 -2.639496,-6.134949 -0.794353,-1.844021 -1.586524,-3.688983 -2.37857,-5.533996 C -51.700843,56.054265 -52.794802,53.704906 -54,51.375 c -0.0093,1.160479 -0.01869,2.320957 -0.02832,3.516602 -0.0399,4.309145 -0.105657,8.617577 -0.1792,12.926269 -0.02821,1.864165 -0.04942,3.728449 -0.06348,5.592774 -0.02143,2.681449 -0.06808,5.361461 -0.119629,8.04248 -0.0018,1.248648 -0.0018,1.248648 -0.0037,2.522522 -0.09591,3.796192 -0.162545,5.787189 -2.434509,8.925964 -3.114694,2.113705 -5.506699,1.969674 -9.233643,1.910889 -1.228477,-0.0013 -2.456953,-0.0026 -3.722656,-0.0039 C -73,94.375 -73,94.375 -74.677658,93.372086 c -2.123876,-3.207614 -1.729811,-6.663622 -1.694656,-10.384049 -0.0037,-0.85554 -0.0073,-1.711079 -0.01106,-2.592544 -0.0081,-2.831251 0.0055,-5.661931 0.0201,-8.493149 5.18e-4,-1.963903 10e-7,-3.927806 -0.0015,-5.891709 9e-5,-4.116661 0.01053,-8.233126 0.02861,-12.349746 0.0227,-5.285329 0.02323,-10.570373 0.01648,-15.855737 -0.0033,-4.055092 0.0033,-8.110117 0.01313,-12.165196 0.0039,-1.949314 0.005,-3.898634 0.0034,-5.84795 -3.69e-4,-2.719955 0.01222,-5.439539 0.0285,-8.159438 -0.0025,-0.810961 -0.005,-1.621922 -0.0075,-2.4574581 C -76.228743,3.6037426 -76.228743,3.6037426 -74,1.375 c 3.102087,-0.49822367 6.237396,-0.41661359 9.375,-0.4375 0.863672,-0.0328711 1.727344,-0.0657422 2.617188,-0.0996094 0.835312,-0.00709 1.670625,-0.0141797 2.53125,-0.0214844 0.762319,-0.0134546 1.524638,-0.0269092 2.310058,-0.0407715 C -53.849231,1.6933613 -52.867692,3.5437616 -51,6.375 c 1.094391,2.2714183 2.108397,4.582555 3.058594,6.917969 0.27103,0.657286 0.542061,1.314572 0.821304,1.991775 0.860361,2.089479 1.709675,4.183205 2.557602,6.277756 1.118703,2.745557 2.242855,5.488817 3.371094,8.230469 0.27025,0.659506 0.5405,1.319013 0.818939,1.998504 1.940881,4.684598 4.103118,9.197353 6.50943,13.658966 C -33,47.375 -33,47.375 -33,50.375 c 0.66,0 1.32,0 2,0 0.331289,-1.259414 0.662578,-2.518828 1.003906,-3.816406 2.333477,-7.764114 5.625187,-15.150183 8.838623,-22.581299 1.100697,-2.553076 2.183,-5.11347 3.264893,-7.674561 0.701367,-1.631335 1.403803,-3.262212 2.107422,-4.892578 0.319924,-0.762475 0.639848,-1.5249506 0.969467,-2.3105314 C -11.512156,1.5603985 -8.2981095,-0.13529526 0,0 Z"
       fill="#394c5b"
       transform="translate(791,584.625)"
       id="path138187"
       style="fill:#f9f9f9" />
    <path
       d="M 0,0 C 1.0196484,-0.01933594 2.0392969,-0.03867187 3.0898438,-0.05859375 6.8597078,0.57054257 8.3679364,1.7490161 11.0625,4.4375 c 0.625778,2.8011322 0.625778,2.8011322 0.627686,6.066162 0.01319,1.224846 0.02637,2.449692 0.03996,3.711655 -0.01021,1.319844 -0.02041,2.639688 -0.03093,3.999527 0.008,1.372376 0.01856,2.744741 0.03145,4.11708 0.02854,3.610042 0.02913,7.219509 0.02214,10.829636 -0.0073,5.77412 0.0241,11.548054 0.06245,17.322023 0.0088,2.012366 0.0027,4.024779 -0.0036,6.037154 0.0037,1.227998 0.0075,2.455996 0.01131,3.721206 -0.0018,1.078256 -0.0035,2.156511 -0.0053,3.267441 0.255196,3.052134 0.85422,5.207263 2.244827,7.928116 3.882858,2.329715 7.552783,2.397073 12,2 3.538699,-1.651393 4.810702,-2.716052 7,-6 0.308963,-2.829732 0.308963,-2.829732 0.27124,-6.076172 0.01019,-1.251398 0.02037,-2.502795 0.03087,-3.792114 9.41e-4,-0.668102 0.0019,-1.336204 0.0029,-2.024552 0.0037,-2.093163 0.02039,-4.185852 0.04076,-6.278915 0.05542,-5.949984 0.08613,-11.900037 0.110581,-17.85022 0.01586,-3.641086 0.04607,-7.281833 0.08476,-10.922744 0.01166,-1.387446 0.01758,-2.774951 0.01768,-4.162445 1.92e-4,-1.938936 0.01996,-3.87784 0.04062,-5.816666 0.0076,-1.6552168 0.0076,-1.6552168 0.01537,-3.3438722 C 34.0625,4.4375 34.0625,4.4375 35.357071,2.5848389 38.297111,0.60690701 41.642954,0.96653469 45.0625,1 c 0.724453,-0.0199805 1.448906,-0.0399609 2.195312,-0.0605469 5.297725,0.004887 5.297725,0.004887 7.508912,2.1558686 1.629949,2.9462129 1.68898,4.9513528 1.715698,8.3131253 0.02387,1.80822 0.02387,1.80822 0.04822,3.65297 2.01e-4,1.301021 4.02e-4,2.602043 6.1e-4,3.942489 0.0071,1.35799 0.01481,2.715977 0.02307,4.07396 0.01344,2.848885 0.01502,5.697493 0.0092,8.546402 -0.0059,3.622421 0.02455,7.243487 0.06512,10.865647 0.02608,2.808206 0.02874,5.616095 0.02511,8.424405 0.0025,1.975621 0.02706,3.951175 0.05223,5.926638 C 56.642887,65.157699 55.152479,71.192607 51.0625,78.4375 50.464375,79.51 49.86625,80.5825 49.25,81.6875 43.233364,89.251271 36.113704,94.549795 26.332031,95.78125 16.056717,96.129074 7.6441312,93.40568 0.0625,86.4375 -7.0364654,79.552359 -10.035972,73.370973 -10.341553,63.426514 c -0.03769,-2.773978 -0.03703,-5.546867 -0.02954,-8.321045 -0.0046,-1.483538 -0.0099,-2.967075 -0.01588,-4.450608 -0.0089,-3.093944 -0.0065,-6.187631 0.0034,-9.28157 0.01155,-3.965916 -0.0088,-7.930949 -0.03792,-11.896749 -0.01832,-3.056632 -0.01808,-6.11305 -0.01236,-9.169724 1.54e-4,-1.462854 -0.0059,-2.925722 -0.01829,-4.388523 -0.01485,-2.038878 -0.0016,-4.077902 0.01291,-6.1167813 1.66e-4,-1.1594564 3.32e-4,-2.3189127 5.04e-4,-3.5135041 C -9.9375,3.4375 -9.9375,3.4375 -8.0836334,1.5668487 -5.2765532,0.08969339 -3.1628606,0.00398847 0,0 Z"
       fill="#3b4d5d"
       transform="translate(643.9375,584.5625)"
       id="path138189"
       style="fill:#f9f9f9" />
    <path
       d="m 0,0 c 0.99435562,-0.00622879 1.9887112,-0.01245758 3.0131989,-0.01887512 1.6078964,0.01381462 1.6078964,0.01381462 3.2482757,0.02790832 1.1008141,-4.985e-4 2.2016281,-9.9701e-4 3.3358002,-0.00151062 2.3276192,0.00234131 4.6552412,0.0120731 6.9828032,0.02861023 3.573064,0.02361109 7.145384,0.02055888 10.718506,0.01391602 2.258468,0.0055759 4.516933,0.01268525 6.775391,0.02148437 1.610932,-0.0013671 1.610932,-0.0013671 3.254409,-0.0027618 1.486806,0.01429802 1.486806,0.01429802 3.003647,0.02888489 0.874755,0.0046074 1.74951,0.0092148 2.650772,0.01396179 2.118515,0.26069641 2.118515,0.26069641 4.118515,2.26069642 0.252172,2.6947129 0.370259,5.2421512 0.375,7.9374995 0.02449,0.728965 0.04899,1.45793 0.07422,2.208985 0.02936,5.338877 0.02936,5.338877 -2.043457,7.567871 -3.250056,1.736837 -5.683624,1.625333 -9.358887,1.578613 -0.990332,-0.0064 -0.990332,-0.0064 -2.000671,-0.01286 -2.099158,-0.01673 -4.197339,-0.05437 -6.296204,-0.09261 -1.427069,-0.01505 -2.854154,-0.02874 -4.28125,-0.04101 -3.490258,-0.03044 -6.978417,-0.08916 -10.46875,-0.146485 0.495,6.93 0.495,6.93 1,14 1.530118,0.02578 3.060235,0.05156 4.636719,0.07813 2.016955,0.05629 4.033881,0.113635 6.050781,0.171875 1.007403,0.01418 2.014805,0.02836 3.052735,0.04297 7.508383,0.247802 7.508383,0.247802 11.404297,2.628906 3.176459,3.557635 3.185611,6.258404 3.148437,10.882813 -0.292969,2.195312 -0.292969,2.195312 -2.167969,4.695312 -3.379906,2.385817 -5.242558,2.620234 -9.351562,2.597657 -1.03125,-0.0032 -2.0625,-0.0064 -3.125,-0.0098 -1.080235,-0.0084 -2.160469,-0.01676 -3.273438,-0.02539 -1.631953,-0.0068 -1.631953,-0.0068 -3.296875,-0.01367 -2.692731,-0.01181 -5.385435,-0.02975 -8.078125,-0.04883 0,5.28 0,10.56 0,16 3.304512,-0.05221 3.304512,-0.05221 6.675782,-0.105468 2.134671,-0.0234 4.269327,-0.04161 6.404052,-0.05933 1.483138,-0.01508 2.966232,-0.03555 4.449219,-0.06152 2.132355,-0.03641 4.26412,-0.05341 6.396729,-0.06665 1.92453,-0.02357 1.92453,-0.02357 3.887939,-0.04761 3.186279,0.340576 3.186279,0.340576 5.105713,1.639893 1.816396,2.858793 1.470466,5.99071 1.393066,9.263183 0.0032,0.685137 0.0064,1.370274 0.0098,2.076172 -0.05499,5.094053 -0.05499,5.094053 -2.322266,7.361328 -2.163208,0.253968 -2.163208,0.253968 -4.876953,0.25879 -1.521678,0.0095 -1.521678,0.0095 -3.074096,0.0191 -1.64845,-0.0061 -1.64845,-0.0061 -3.330201,-0.01227 -1.124425,0.0019 -2.24885,0.0038 -3.407348,0.0058 -2.380658,0.0014 -4.761324,-0.0023 -7.141968,-0.01068 -3.654303,-0.0107 -7.308115,-1.08e-4 -10.962402,0.0127 -2.3085952,-0.0013 -4.6171898,-0.0039 -6.9257816,-0.0078 -1.6484491,0.0061 -1.6484491,0.0061 -3.3302002,0.01227 -1.52167789,-0.0095 -1.52167789,-0.0095 -3.0740967,-0.0191 -1.3433039,-0.0024 -1.3433039,-0.0024 -2.7137451,-0.0048 -2.163208,-0.253968 -2.163208,-0.253968 -4.163208,-2.253968 -0.2038391,-2.75478 -0.2831768,-5.409446 -0.2746582,-8.165771 -0.00511,-0.844034 -0.010222,-1.688068 -0.015488,-2.557678 -0.013938,-2.799286 -0.012936,-5.598327 -0.010635,-8.397644 -0.00388,-1.940517 -0.00822,-3.881034 -0.012985,-5.821549 -0.00747,-4.071312 -0.00716,-8.142537 -0.00191,-12.213852 0.0058,-5.223658 -0.011133,-10.446962 -0.034345,-15.670561 -0.014715,-4.008807 -0.015612,-8.017527 -0.01249,-12.026355 -5.144e-4,-1.926169 -0.00577,-3.852342 -0.015812,-5.778485 -0.012303,-2.691215 -0.00561,-5.381735 0.00601,-8.072939 -0.00764,-0.799586 -0.015288,-1.599172 -0.023163,-2.4229884 C -8.243392,3.9373932 -8.243392,3.9373932 -6.6815796,1.3771362 -4.3318561,0.05285777 -2.6966065,-0.00193857 0,0 Z"
       fill="#384b59"
       id="path138191"
       transform="translate(439.89868,585.62769)"
       style="fill:#f9f9f9" />
    <path
       d="m 0,0 c 5.2980792,-0.04633889 10.595433,-0.08603222 15.893555,-0.10986328 1.795923,-0.009952 3.59183,-0.0235191 5.387695,-0.0410156 C 32.066351,-0.25319292 42.367721,-0.0038925 53,2 53.945205,2.177085 54.89041,2.3541699 55.864258,2.5366211 79.768955,7.2995225 101.35995,14.914056 120,31 c 0.92684,0.792773 1.85367,1.585547 2.80859,2.402344 3.68563,3.547628 5.93794,5.966378 6.73828,11.117187 C 129.56081,47.735089 129.40473,50.812151 129,54 124.42163,51.798863 120.11657,49.448534 115.8125,46.75 96.236556,35.231831 73.08993,29.916113 50.883545,26.455078 48.935668,26.147666 46.99045,25.822988 45.048096,25.482422 35.621184,23.888181 26.220715,23.354548 16.6875,22.875 15.060515,22.788353 13.433562,22.701117 11.806641,22.613281 7.8714325,22.401 3.9358801,22.200745 0,22 0,14.74 0,7.48 0,0 Z"
       fill="#e0f3f0"
       transform="translate(377,481)"
       id="path138193"
       style="fill:#f9f9f9" />
    <path
       d="m 0,0 c 0,7.59 0,15.18 0,23 -5.2284375,0.185625 -5.2284375,0.185625 -10.5625,0.375 C -29.72514,24.15476 -48.28532,25.709899 -67,30 c -0.820649,0.179019 -1.641299,0.358037 -2.486816,0.54248 -20.450915,4.47501 -38.482624,12.532184 -56.789304,22.574707 C -128,54 -128,54 -129,54 c -0.47485,-7.294283 -0.41091,-12.039316 4,-18 3.88331,-4.264585 8.11083,-7.300864 12.9375,-10.375 0.75144,-0.479692 1.50289,-0.959385 2.2771,-1.453613 C -98.06001,16.794198 -86.271177,11.807883 -73,8 -71.312185,7.4593148 -69.624638,6.9177939 -67.9375,6.375 -45.640145,-0.18086677 -23.024854,-0.28523563 0,0 Z"
       fill="#dcf2f0"
       transform="translate(654,480)"
       id="path138195"
       style="fill:#f9f9f9" />
    <path
       d="M 0,0 C 1.1240625,-0.0103125 2.248125,-0.020625 3.40625,-0.03125 7.2096057,0.62185149 8.1705298,1.4646766 10.5,4.5 c 0.481018,3.1005249 0.481018,3.1005249 0.454102,6.788086 5.84e-4,0.67358 0.0012,1.347161 0.0018,2.041153 -0.0028,2.218909 -0.03386,4.436463 -0.06525,6.655136 -0.0075,1.541273 -0.01316,3.082555 -0.01715,4.62384 -0.01525,4.051009 -0.05453,8.101441 -0.09882,12.152222 -0.04096,4.135765 -0.0592,8.271623 -0.07935,12.407532 C 10.65245,57.27891 10.584205,65.389383 10.5,73.5 c 0.918135,-0.02095 1.83627,-0.04189 2.782227,-0.06348 3.414327,-0.06827 6.827927,-0.118367 10.242675,-0.15625 1.476354,-0.02009 2.952628,-0.04736 4.428711,-0.08203 C 30.07865,73.14959 32.202632,73.127 34.328125,73.10937 36.2448,73.07795 36.2448,73.07795 38.200195,73.04589 41.5,73.5 41.5,73.5 43.915039,75.331055 46.081787,78.296149 46.033407,80.358599 46,84 c 0.01031,1.124062 0.02063,2.248125 0.03125,3.40625 C 45.5,90.5 45.5,90.5 44.154541,92.662354 c -4.254945,2.94555 -8.606055,2.388223 -13.658447,2.33374 -1.612247,0.0022 -1.612247,0.0022 -3.257065,0.0044 -2.270378,-0.0017 -4.540767,-0.01322 -6.81105,-0.03395 -3.481035,-0.02897 -6.960548,-0.02061 -10.4416509,-0.0076 -2.2050855,-0.0062 -4.4101663,-0.01463 -6.6152343,-0.02539 -1.0437832,0.0029 -2.0875663,0.0059 -3.16297918,0.0089 -0.96787948,-0.01269 -1.93575892,-0.02537 -2.93296812,-0.03844 -0.8517531,-0.0054 -1.7035062,-0.01081 -2.58107,-0.01637 C -7.5,94.5 -7.5,94.5 -9.2731934,93.491211 -11.24699,90.287573 -10.924693,86.888302 -10.904053,83.236572 c -0.0103,-1.26386 -0.0103,-1.26386 -0.0208,-2.553253 -0.01832,-2.789142 -0.01442,-5.577724 -0.0087,-8.366913 -0.0046,-1.936693 -0.0099,-3.873384 -0.01588,-5.810074 -0.0089,-4.061178 -0.0065,-8.12216 0.0034,-12.183334 0.01149,-5.206834 -0.0087,-10.41299 -0.03792,-15.619735 -0.01834,-4.000289 -0.01807,-8.000415 -0.01236,-12.000735 1.54e-4,-1.919762 -0.0059,-3.839536 -0.01829,-5.759258 -0.01486,-2.683917 -0.0043,-5.366571 0.01291,-8.050448 -0.0097,-0.79442 -0.01934,-1.58884 -0.0293,-2.407333 0.04747,-3.5388919 0.239844,-5.5908275 2.3690034,-8.4768373 C -5.6954822,-0.06139491 -3.5898833,-0.03293471 0,0 Z"
       fill="#3a4c5a"
       id="path138197"
       transform="translate(510.5,584.5)"
       style="fill:#f9f9f9" />
    <path
       d="M 0,0 C 0.73734375,0.00773438 1.4746875,0.01546875 2.234375,0.0234375 3.3403906,0.01183594 3.3403906,0.01183594 4.46875,0 c 5.5123054,0.0201179 5.5123054,0.0201179 7.765625,2.2734375 0.278473,2.8600159 0.278473,2.8600159 0.318848,6.5610352 0.01005,0.6732884 0.02009,1.3465773 0.03044,2.0402683 0.03093,2.229244 0.04789,4.458368 0.06477,6.687759 0.0187,1.544149 0.03828,3.088288 0.05868,4.632416 0.05141,4.067148 0.09099,8.134329 0.128143,12.201629 0.03998,4.149153 0.0911,8.298166 0.141297,12.447205 0.09687,8.143134 0.181237,16.286337 0.257812,24.429687 0.948428,0.0093 1.896855,0.01869 2.874023,0.02832 3.526625,0.04407 7.052039,0.105707 10.578125,0.179199 1.524626,0.02819 3.049398,0.04941 4.574219,0.06348 2.195092,0.02146 4.38844,0.06813 6.583008,0.119628 1.319678,0.02095 2.639355,0.04189 3.999023,0.06348 3.877036,0.624032 5.038034,1.477213 7.391602,4.545898 1.202565,2.405131 1.270378,4.128536 1.375,6.8125 0.04898,0.852071 0.09797,1.704141 0.148437,2.582032 -0.797998,3.972125 -2.279535,5.179526 -5.523437,7.605468 -3.773097,0.729592 -7.487836,0.653114 -11.320313,0.59375 -1.095612,4.1e-5 -2.191224,8.1e-5 -3.320037,1.23e-4 -2.311511,-0.0054 -4.623021,-0.02293 -6.934357,-0.05188 -3.544671,-0.04193 -7.087447,-0.04106 -10.632324,-0.03418 -2.246107,-0.01049 -4.4922044,-0.02343 -6.7382815,-0.03906 -1.0625198,-2.01e-4 -2.1250397,-4.02e-4 -3.2197571,-6.1e-4 -0.9846725,-0.01591 -1.9693451,-0.03182 -2.98385618,-0.04822 -0.86650177,-0.0084 -1.73300352,-0.01684 -2.62576292,-0.02551 -2.2253113,-0.39441 -2.2253113,-0.39441 -4.0052338,-1.396469 -1.9793602,-3.241305 -1.6272198,-6.699068 -1.5923919,-10.384903 -0.00365,-0.85554 -0.0073,-1.71108 -0.011063,-2.592545 -0.00811,-2.831251 0.00551,-5.661931 0.020096,-8.493149 5.185e-4,-1.963903 1.4e-6,-3.927806 -0.00151,-5.891708 8.98e-5,-4.116661 0.010528,-8.233126 0.02861,-12.349747 0.022702,-5.285329 0.023229,-10.570372 0.016482,-15.855737 -0.00334,-4.055091 0.00328,-8.110117 0.013129,-12.165196 0.00386,-1.949313 0.005,-3.898634 0.00341,-5.84795 -3.695e-4,-2.719955 0.012216,-5.439538 0.028498,-8.159437 -0.00248,-0.8109614 -0.00495,-1.6219227 -0.00751,-2.4574586 C -7.9825326,1.267941 -6.8581478,0.02502974 0,0 Z"
       fill="#3a4b59"
       transform="translate(234.76562,585.72656)"
       id="path138199"
       style="fill:#f9f9f9" />
    <path
       d="M 0,0 C 0.73734375,0.00773438 1.4746875,0.01546875 2.234375,0.0234375 3.3403906,0.01183594 3.3403906,0.01183594 4.46875,0 c 5.5123054,0.0201179 5.5123054,0.0201179 7.765625,2.2734375 0.240509,2.8979797 0.240509,2.8979797 0.227051,6.652832 2.92e-4,0.683042 5.84e-4,1.3660845 8.85e-4,2.0698245 -0.0014,2.261847 -0.01697,4.523366 -0.03262,6.785156 -0.0037,1.566557 -0.0066,3.133116 -0.0086,4.699677 -0.0076,4.126458 -0.0273,8.252777 -0.04941,12.37918 -0.02045,4.209372 -0.02959,8.418767 -0.03967,12.628174 -0.02146,8.261783 -0.0556,16.523453 -0.09766,24.785156 0.983958,-0.01571 1.967915,-0.03142 2.981689,-0.04761 3.650796,-0.0543 7.301556,-0.08874 10.952637,-0.117187 1.580139,-0.01509 3.160237,-0.03556 4.740235,-0.06152 2.271345,-0.03639 4.542137,-0.05341 6.81372,-0.06665 1.059527,-0.02323 1.059527,-0.02323 2.140457,-0.04692 4.881818,-0.0017 4.881818,-0.0017 7.278244,1.6707 2.870228,4.383236 2.712659,9.629443 2.093018,14.669189 -1.885152,2.576375 -3.193349,3.596675 -6,5 -1.525905,0.104917 -3.056236,0.14869 -4.585693,0.161133 -1.426743,0.01441 -1.426743,0.01441 -2.882309,0.02911 -1.030208,0.0042 -2.060416,0.0085 -3.121842,0.01288 -1.055465,0.0057 -2.11093,0.0114 -3.198379,0.01727 -2.235214,0.0095 -4.470443,0.01599 -6.705673,0.01984 -3.426109,0.0097 -6.85162,0.04074 -10.277588,0.07227 -2.168617,0.0065 -4.3372371,0.01178 -6.5058598,0.01563 -1.0281834,0.01235 -2.0563668,0.02469 -3.1157073,0.03741 -0.9543142,-0.003 -1.90862828,-0.006 -2.89186101,-0.0091 -1.26003089,0.0055 -1.26003089,0.0055 -2.54551699,0.01105 -2.1695709,-0.367493 -2.1695709,-0.367493 -3.9409942,-1.365585 -1.9894507,-3.241716 -1.6357634,-6.698342 -1.6008911,-10.38887 -0.00365,-0.85554 -0.0073,-1.71108 -0.011063,-2.592545 -0.00811,-2.831251 0.00551,-5.661931 0.020096,-8.493149 5.185e-4,-1.963903 1.4e-6,-3.927806 -0.00151,-5.891708 8.98e-5,-4.116661 0.010528,-8.233126 0.02861,-12.349747 0.022702,-5.285329 0.023229,-10.570372 0.016482,-15.855737 -0.00334,-4.055091 0.00328,-8.110117 0.013129,-12.165196 0.00386,-1.949313 0.005,-3.898634 0.00341,-5.84795 -3.695e-4,-2.719955 0.012216,-5.439538 0.028498,-8.159437 -0.00248,-0.8109614 -0.00495,-1.6219227 -0.00751,-2.4574586 C -7.9825326,1.267941 -6.8581478,0.02502974 0,0 Z"
       fill="#394a5b"
       id="path138201"
       transform="translate(576.76562,585.72656)"
       style="fill:#f9f9f9" />
    <path
       d="M 0,0 C 0.73734375,-0.01224609 1.4746875,-0.02449219 2.234375,-0.03710938 4.1577006,-0.04237395 6.0805426,0.06546553 8,0.1875 c 2.571957,2.5719569 2.248544,4.2937606 2.282166,7.8001099 -0.0025,0.8109613 -0.005,1.6219226 -0.0075,2.4574581 0.0077,1.280681 0.0077,1.280681 0.01549,2.587235 0.01394,2.831751 0.01294,5.66326 0.01064,8.495041 0.0039,1.962937 0.0082,3.925874 0.01298,5.888809 0.0075,4.11839 0.0072,8.236694 0.0019,12.355087 -0.0058,5.284191 0.01113,10.568032 0.03434,15.852164 0.01471,4.05513 0.01561,8.110174 0.01249,12.165325 5.14e-4,1.948497 0.0058,3.896999 0.01581,5.84547 0.0123,2.722346 0.0056,5.444004 -0.006,8.166338 0.01147,1.213406 0.01147,1.213406 0.02316,2.451325 -0.0512,5.414257 -0.0512,5.414257 -1.7156216,7.934921 C 5.8805365,93.854383 3.206383,93.58254 0,93.5625 -1.2375,93.5702 -2.475,93.57797 -3.75,93.58594 -7,93.1875 -7,93.1875 -8.6805773,91.896319 c -2.2898147,-2.9656 -1.7072117,-6.623642 -1.6599987,-10.219317 -4.38e-4,-0.868506 -8.76e-4,-1.737012 -0.0013,-2.631836 0.0021,-2.873356 0.02544,-5.74613 0.04894,-8.619385 0.0056,-1.991111 0.0099,-3.982226 0.01286,-5.973343 0.01146,-5.242766 0.04094,-10.485283 0.07411,-15.727951 0.03068,-5.348883 0.04439,-10.697807 0.05951,-16.046753 C -10.114301,22.18088 -10.063092,11.684211 -10,1.1875 -6.8404458,-0.39227708 -3.4653618,0.00302916 0,0 Z"
       fill="#374859"
       transform="translate(308,585.8125)"
       id="path138203"
       style="fill:#f9f9f9" />
    <path
       d="m 0,0 c 1.65,0 3.3,0 5,0 0,31.02 0,62.04 0,94 7.26,0 14.52,0 22,0 4.396137,0.299073 8.648247,0.63075 13,1.1875 1.081926,0.133821 2.163853,0.267642 3.278564,0.405518 C 71.897926,99.354036 108.50339,107.74854 129,130 c -0.33,0.99 -0.66,1.98 -1,3 -0.86238,-0.61746 -1.72477,-1.23492 -2.61328,-1.87109 C 87.749174,104.75691 44.847531,101.54647 0,100 0,67 0,34 0,0 Z"
       fill="#e7f1f2"
       transform="translate(377,363)"
       id="path138205"
       style="stroke-width:0;stroke-miterlimit:4;stroke-dasharray:none;fill:#f9f9f9" />
    <path
       d="m 0,0 c 1.65,0 3.3,0 5,0 0,33 0,66 0,100 -21.285,0.99 -21.285,0.99 -43,2 -16.251483,2.51606 -16.251483,2.51606 -32.125,6.25 -1.102551,0.30301 -2.205103,0.60602 -3.341064,0.91821 -15.902274,4.49622 -32.480146,10.84687 -45.783936,20.89429 -0.9075,0.63937 -1.815,1.27875 -2.75,1.9375 -0.99,-0.33 -1.98,-0.66 -3,-1 3.33677,-4.87749 7.33275,-7.41834 12.3125,-10.375 0.7989,-0.47969 1.59779,-0.95938 2.4209,-1.45361 C -75.654061,98.716022 -39.933276,95 0,95 0,63.65 0,32.3 0,0 Z"
       fill="#ddeced"
       transform="translate(649,363)"
       id="path138207"
       style="fill:#f9f9f9" />
    <path
       d="m 0,0 c 6.0505426,-0.12361242 12.10035,-0.2143458 18.151855,-0.2746582 2.058399,-0.025142 4.116708,-0.0592606 6.174805,-0.10253907 2.959046,-0.0606654 5.916911,-0.0890153 8.876465,-0.11108398 0.919927,-0.0258064 1.839855,-0.0516129 2.787659,-0.0782013 6.38105,-0.0028 6.38105,-0.0028 9.590271,2.90559385 C 47.312787,5.5865565 47.617578,7.3717271 47,11 c -2.526355,3.368473 -5.028566,4.765956 -9,6 -2.936673,0.263942 -5.854331,0.233076 -8.800781,0.195312 -1.254563,-0.0042 -1.254563,-0.0042 -2.53447,-0.0086 -2.659231,-0.01115 -5.31812,-0.03625 -7.977249,-0.06174 -1.807938,-0.01004 -3.615881,-0.01916 -5.423828,-0.02734 C 8.8422113,17.077365 4.4214869,17.038208 0,17 0,11.39 0,5.78 0,0 Z"
       fill="#d9f1ec"
       id="path138209"
       transform="translate(354,641)"
       style="fill:#f9f9f9" />
    <path
       d="m 0,0 c 5.0170572,-0.07442006 10.03379,-0.12872908 15.05127,-0.16479492 1.705135,-0.0150425 3.410231,-0.0354816 5.115234,-0.0615234 2.457616,-0.0365845 4.914719,-0.0534534 7.372558,-0.0666504 0.756489,-0.0154839 1.512977,-0.0309677 2.292389,-0.0469208 C 34.611428,-0.34139323 37.867148,0.34283372 42,3 c 2.330436,3.4956534 2.587632,4.8865729 2,9 -4.917502,4.788094 -8.468318,5.141503 -15.070313,5.097656 -1.194341,-0.0021 -1.194341,-0.0021 -2.412811,-0.0043 -2.54733,-0.0056 -5.094572,-0.01816 -7.641876,-0.03087 -1.725259,-0.005 -3.45052,-0.0096 -5.175781,-0.01367 C 9.4661121,17.037792 5.2330709,17.020524 1,17 -0.53266582,13.934668 -0.10276471,10.732457 -0.0625,7.375 -0.05798828,6.6685938 -0.05347656,5.9621875 -0.04882812,5.234375 -0.03703875,3.4895473 -0.01910324,1.744763 0,0 Z"
       fill="#DAEEE9"
       id="path138211"
       style="fill:#f9f9f9"
       transform="translate(354,605)" />
    <path
       d="m 0,0 c 3.7050916,1.8349025 5.7197281,4.5795922 8,8 0.6032114,4.18331 0.4595078,7.911692 -1.1875,11.8125 -3.3450587,4.03714 -6.02014128,6.308532 -11.25,7.1875 -3.4909265,0.243553 -4.5928522,-0.01489 -7.875,-1.625 -6.406186,-5.661281 -6.406186,-5.661281 -7.070312,-9.707031 C -19.639806,9.9541368 -18.882303,6.4369174 -15,2 -10.327291,-1.1151396 -5.4675145,-0.72226083 0,0 Z"
       fill="#3b4f5c"
       transform="translate(311,465)"
       id="path138213"
       style="fill:#f9f9f9" />
    <path
       d="m 0,0 c 4.5016115,2.2554466 8.1219812,5.249717 10,10 0.628375,4.869908 0.564535,7.706151 -2.1875,11.8125 -3.2834652,4.028453 -5.9974217,5.95649 -11.25,6.625 C -8.6798177,27.793707 -12.647344,25.058478 -16,21 -17.800385,15.598846 -17.858429,10.782892 -15.375,5.625 -10.948976,0.73307871 -6.5555327,-0.92007477 0,0 Z"
       fill="#394c5c"
       transform="translate(727,464)"
       id="path138215"
       style="fill:#f9f9f9" />
    <path
       d="m 0,0 c 1.65,0 3.3,0 5,0 0,33 0,66 0,100 -8.91,0 -17.82,0 -27,0 0,-0.33 0,-0.66 0,-1 5.94,0 11.88,0 18,0 0,-0.99 0,-1.98 0,-3 -6.6,0 -13.2,0 -20,0 0,-0.33 0,-0.66 0,-1 7.92,0 15.84,0 24,0 C 0,63.65 0,32.3 0,0 Z"
       fill="#e9fbf8"
       transform="translate(649,363)"
       id="path138217"
       style="fill:#f9f9f9" />
    <path
       d="M 0,0 C 0.66,0 1.32,0 2,0 2.33,1.32 2.66,2.64 3,4 0.69,4.66 -1.62,5.32 -4,6 -3.67,4.68 -3.34,3.36 -3,2 -2.01,2 -1.02,2 0,2 0,1.34 0,0.68 0,0 Z"
       fill="#deedeb"
       transform="translate(578,466)"
       id="path138235"
       style="fill:#f9f9f9" />
    <path
       d="M 0,0 C 0.99,0.33 1.98,0.66 3,1 3,1.66 3,2.32 3,3 2.01,3.66 1.02,4.32 0,5 -0.99,4.67 -1.98,4.34 -3,4 -2.01,2.68 -1.02,1.36 0,0 Z"
       fill="#dff0f5"
       transform="translate(527,490)"
       id="path138245"
       style="fill:#f9f9f9" />
    <path
       style="fill:#f9f9f9;fill-opacity:0;stroke:#2b424c;stroke-width:0.104154"
       d="m 355.45322,621.93216 c -0.41058,-0.0387 -0.45526,-0.0745 -0.6603,-0.53032 -0.36328,-0.80755 -0.71523,-2.36622 -0.81255,-3.59858 -0.0743,-0.94098 0.0402,-12.654 0.12457,-12.73833 0.0407,-0.0407 21.50389,-0.26013 27.20219,-0.27808 4.91728,-0.0155 5.75999,0.005 6.7037,0.16359 2.26805,0.38094 3.81439,0.87368 5.6906,1.81332 1.59841,0.8005 2.26149,1.2582 2.59451,1.79086 1.20738,1.93119 1.76839,3.34581 1.88849,4.76199 0.0401,0.47327 0.016,1.4283 -0.0552,2.18723 l -0.12647,1.34715 -0.82864,0.79718 c -2.2236,2.13919 -4.81537,3.48394 -7.84713,4.07153 -1.13662,0.22028 -1.27349,0.22217 -17.28953,0.23798 -8.87911,0.009 -16.34201,-0.003 -16.58422,-0.0255 z"
       id="path141554" />
  </g>
  <path
     style="fill:#aa0000;fill-opacity:0;stroke:#2b424c;stroke-width:0.0736479"
     d="m 372.6214,658.11215 c -4.75949,-0.0349 -10.88239,-0.0851 -13.60644,-0.11163 l -4.95282,-0.0482 v -8.46064 -8.46064 l 0.313,-3.9e-4 c 0.17216,-2.2e-4 1.95351,-0.0329 3.95858,-0.0727 2.00506,-0.0398 6.24718,-0.10529 9.42693,-0.14561 8.38451,-0.10631 15.45049,-0.21225 20.03222,-0.30032 4.31677,-0.083 6.57552,-0.0268 7.62255,0.18946 1.13165,0.23376 1.95535,0.72556 3.45476,2.06268 0.71612,0.63861 0.73774,0.66755 1.15472,1.54582 0.51867,1.09246 0.9038,2.18024 1.07527,3.03702 0.16493,0.82416 0.16243,2.67336 -0.005,3.80481 -0.10617,0.71679 -0.14718,0.84032 -0.37688,1.13515 -2.04891,2.62987 -4.17775,4.10786 -7.63736,5.30241 -0.95909,0.33116 -1.19437,0.38327 -2.06214,0.45671 -1.36966,0.11592 -8.2345,0.14056 -18.39724,0.066 z"
     id="path151487" />
  <path
     style="fill:#f9f9f9;fill-opacity:1;stroke:none;stroke-width:0.0701011"
     d="m 21.718494,52.058935 v -1.392696 l 3.337009,-0.04434 c 3.551981,-0.04723 3.606215,-0.04333 3.978353,0.287156 0.235278,0.208921 0.392565,0.652081 0.394207,1.110696 0.0015,0.412836 -0.01026,0.441761 -0.29639,0.729444 -0.163861,0.164764 -0.471429,0.381405 -0.683485,0.481431 l -0.385556,0.181865 -3.172069,0.01957 -3.172069,0.01964 z"
     id="path162913" />
  <path
     style="fill:#3a4c5a;fill-opacity:1;stroke:none;stroke-width:0.099138"
     d="m 45.301903,22.466255 c -3.026897,-1.804282 -5.232495,-2.653173 -8.724124,-3.35774 -1.906797,-0.384768 -6.053386,-0.889687 -7.306444,-0.889687 -0.104496,0 -0.128889,-1.275801 -0.128889,-6.741369 V 4.7360913 l 1.56142,8.29e-5 c 4.017177,2.125e-4 8.455371,0.8161838 11.921316,2.1917564 1.640348,0.6510257 3.757826,1.7549806 3.99519,2.0829089 0.180294,0.2490772 0.187046,0.5099092 0.165611,6.3943855 -0.01228,3.374095 -0.0501,6.522637 -0.08404,6.996762 l -0.06169,0.862042 z"
     id="path185592" />
  <path
     style="fill:#3a4c5a;fill-opacity:1;stroke:none;stroke-width:0.099138"
     d="M 49.71736,17.84706 C 49.67919,14.861775 49.64124,11.817006 49.63301,11.080909 49.61926,9.8504657 49.63631,9.7105737 49.845994,9.3459977 50.113262,8.8810272 50.26223,8.7623156 51.252448,8.2251934 53.565924,6.9702997 56.965087,5.8388128 59.924723,5.3384378 61.948921,4.9962134 64.893278,4.7421671 66.889148,4.7375299 l 0.61961,-0.00145 v 6.7413691 6.741367 l -0.223061,0.0015 c -0.814751,0.0054 -3.266102,0.227156 -4.411176,0.399101 -4.356773,0.654216 -7.953962,1.846581 -11.499048,3.811603 -0.83731,0.464122 -1.537312,0.843855 -1.555554,0.843855 -0.01823,0 -0.0644,-2.442506 -0.102559,-5.427793 z"
     id="path186075" />
  <g
     id="g193170">
    <g
       id="g193249" />
  </g>
  <g
     id="g193293"
     transform="matrix(0.47591999,0,0,0.47591999,-5.060084,-0.31993542)"
     style="fill:#f9f9f9">
    <path
       style="fill:#f9f9f9;fill-opacity:1;stroke:#2b424c;stroke-width:0.104154"
       d="m 107.37984,69.433625 c -0.77183,-0.418582 -2.0595,-1.147878 -2.86148,-1.620654 C 100.7591,65.596859 96.384309,63.86799 91.186668,62.544439 86.244241,61.285876 78.738691,60.023579 74.157519,59.680447 72.594683,59.56339 65.208076,59.159369 64.630783,59.159369 h -0.367877 v -3.811081 -3.811081 l 6.848113,0.04893 c 6.134192,0.04383 7.027273,0.07154 8.566652,0.265866 5.342326,0.674388 11.645562,2.344048 16.007091,4.240107 3.726778,1.620118 6.768628,3.504804 9.944128,6.161228 2.18419,1.827161 3.03034,2.924757 3.32984,4.319323 0.12463,0.580335 0.0503,3.218383 -0.0981,3.483641 -0.0586,0.104675 -0.41933,-0.04702 -1.48078,-0.622673 z"
       id="path186375" />
  </g>
  <path
     style="fill:#3a4c5a;fill-opacity:1;stroke:#2b424c;stroke-width:0.0350505"
     d="m 49.921672,32.83682 c -0.03594,-0.179555 -0.02617,-1.019503 0.01524,-1.317439 0.163674,-1.17677 0.874212,-1.997159 2.812725,-3.247578 1.790201,-1.154754 3.645571,-2.031507 5.579086,-2.636392 0.289165,-0.09046 0.821129,-0.25729 1.182138,-0.370726 2.839419,-0.892201 5.588638,-1.22278 10.174219,-1.223392 0.732556,-9.8e-5 1.367404,0.0093 1.410781,0.02096 l 0.07886,0.02113 v 1.867522 1.867523 l -0.464422,0.02126 c -0.255431,0.01169 -0.874513,0.03752 -1.375732,0.05739 -4.095686,0.162363 -6.936278,0.527758 -10.202786,1.312427 -2.571404,0.617692 -5.259501,1.694151 -8.239112,3.299382 -0.407772,0.219683 -0.787986,0.40874 -0.844919,0.420126 -0.09458,0.01891 -0.105464,0.01096 -0.126095,-0.09219 z"
     id="path186609" />
  <path
     style="fill:#f9f9f9;fill-opacity:1;stroke:#2b424c;stroke-width:0;stroke-miterlimit:4;stroke-dasharray:none"
     d="m 46.218724,32.750224 c -0.245256,-0.129569 -0.892035,-0.489447 -1.437298,-0.799727 -1.850252,-1.052894 -3.386832,-1.694253 -5.515809,-2.302266 -2.468771,-0.705056 -6.43011,-1.408844 -9.082225,-1.613587 -0.688348,-0.05314 -4.198303,-0.249022 -4.462165,-0.249022 h -0.147741 v -1.767633 -1.767634 l 3.184801,0.031 c 1.75164,0.01705 3.430167,0.05578 3.730058,0.08609 2.274839,0.229842 5.744734,1.107775 7.732747,1.956496 2.149297,0.917574 4.303994,2.316779 5.65082,3.669492 0.785068,0.788503 0.951888,1.21256 0.896205,2.278181 -0.01851,0.354416 -0.04938,0.6601 -0.06857,0.679297 -0.01919,0.0192 -0.235566,-0.07111 -0.480821,-0.200677 z"
     id="path192181" />
  <path
     style="fill:#f9f9f9;fill-opacity:1;stroke:#2b424c;stroke-width:0;stroke-miterlimit:4;stroke-dasharray:none"
     d="M 50.729694,26.005054 V 25.85551 l -0.210471,-0.06854 -0.210471,-0.06854 0.06796,-0.07196 c 0.229032,-0.242514 0.683317,-0.559811 1.505459,-1.051496 1.230914,-0.736154 2.157493,-1.212897 3.366673,-1.732212 0.202265,-0.08687 0.37896,-0.157943 0.392653,-0.157943 0.01371,0 -0.02732,0.05805 -0.09109,0.129 -0.06379,0.07095 -0.144299,0.184874 -0.178904,0.253164 -0.05994,0.118287 -0.180612,0.420148 -0.180612,0.451799 0,0.0082 0.129042,0.01005 0.286762,0.0039 0.250396,-0.0095 0.276324,-0.007 0.20447,0.02032 -1.463407,0.556591 -2.541742,1.062466 -3.601682,1.689643 -0.289045,0.171031 -1.035611,0.663089 -1.233023,0.812682 l -0.117728,0.08921 z"
     id="path193864" />
  <path
     style="fill:#f9f9f9;fill-opacity:1;stroke:#2b424c;stroke-width:0;stroke-miterlimit:4;stroke-dasharray:none"
     d="m 56.368156,23.27831 c 0.04089,-0.02526 0.09307,-0.06704 0.115953,-0.09285 0.07522,-0.08483 0.150744,-0.291957 0.166235,-0.455865 l 0.01524,-0.161099 0.148706,-0.0124 0.14871,-0.0124 -0.14871,-0.04537 c -0.08179,-0.02495 -0.210048,-0.05322 -0.285019,-0.06282 -0.118351,-0.01516 -0.129727,-0.02114 -0.0863,-0.04537 0.0912,-0.05089 1.379544,-0.47414 1.870779,-0.61459 2.09242,-0.598252 4.438619,-0.997226 6.989208,-1.188525 0.852572,-0.06394 1.090511,-0.0731 1.090511,-0.04198 0,0.02093 0.429575,0.0283 1.64817,0.0283 h 1.648163 v 0.247845 0.247844 h -1.487068 -1.487067 v 0.08659 0.08659 l 1.87742,0.0063 1.877428,0.0063 -3.14763,0.144185 -3.147617,0.144185 -1.040946,0.161004 c -1.34104,0.20742 -1.963153,0.327282 -3.278115,0.631595 -1.28823,0.298123 -2.360454,0.596646 -3.325082,0.925747 -0.218361,0.0745 -0.264154,0.07919 -0.162955,0.01667 z"
     id="path193942" />
  <path
     style="fill:#f9f9f9;fill-opacity:1;stroke:#2b424c;stroke-width:0;stroke-miterlimit:4;stroke-dasharray:none"
     d="m 66.765225,21.143392 c 0,-0.03195 0.528735,-0.04958 1.487067,-0.04958 h 1.487067 V 20.821189 20.54856 l -1.598597,-7.94e-4 c -0.946488,-4.51e-4 -1.628923,-0.02036 -1.672949,-0.04881 -0.04867,-0.03147 0.614352,-0.04832 1.920796,-0.04882 l 1.995147,-7.94e-4 V 12.592753 4.736085 h 0.396549 0.39655 v 8.228435 8.228435 H 68.97104 c -1.437495,0 -2.205815,-0.01727 -2.205815,-0.04958 z"
     id="path194020" />
  <path
     style="fill:#3a4c5a;fill-opacity:1;stroke:#2b424c;stroke-width:0.0495689"
     d="m 21.860556,47.374181 c -0.12168,-0.227358 -0.167489,-0.794709 -0.136425,-1.689624 0.01742,-0.501847 0.03827,-0.919052 0.04634,-0.927126 0.0081,-0.0081 1.207214,-0.02932 2.664766,-0.04731 2.940401,-0.03618 3.058605,-0.02737 3.710391,0.27766 0.419325,0.196231 0.485653,0.258623 0.656776,0.617834 0.114944,0.241289 0.141689,0.364368 0.141721,0.652196 l 4e-5,0.354777 -0.253268,0.227711 c -0.289705,0.260472 -0.742413,0.48965 -1.124709,0.569374 -0.17312,0.03611 -1.1823,0.05482 -2.959997,0.05482 -2.558466,0 -2.699807,-0.0051 -2.74564,-0.09029 z"
     id="path194098" />
  <path
     style="fill:#3a4c5a;fill-opacity:1;stroke:#2b424c;stroke-width:0.0495689"
     d="m 21.756683,52.055303 v -1.357439 l 1.549026,-0.0348 c 2.367352,-0.05315 5.286926,-0.01747 5.440185,0.06651 0.426807,0.233887 0.644397,0.669175 0.644397,1.289111 0,0.346233 -0.01427,0.405093 -0.136316,0.562375 -0.169645,0.218619 -0.543763,0.49976 -0.915609,0.688061 l -0.283608,0.143618 h -3.149039 -3.149036 z"
     id="path194137" />
  <path
     style="fill:#f9f9f9;fill-opacity:1;stroke:#2b424c;stroke-width:0;stroke-miterlimit:4;stroke-dasharray:none"
     d="m 44.378679,25.199973 c -0.479166,-0.2801 -1.267983,-0.689832 -1.827851,-0.949434 -3.192789,-1.480448 -6.985498,-2.369257 -11.828373,-2.77194 -1.199451,-0.09973 -2.226928,-0.158339 -3.705275,-0.211342 -0.93163,-0.03341 -1.289972,-0.05372 -1.452988,-0.08237 l -0.04028,-0.007 V 17.418149 13.65849 h 0.396552 0.39655 v 3.29633 3.296331 l 0.740436,5.24e-4 c 1.561697,0.001 2.726051,0.02257 3.355193,0.06197 1.238914,0.07758 3.071571,0.320469 4.820574,0.638892 0.34788,0.06334 0.761811,0.149491 0.773482,0.160993 0.52965,0.10607 0.307155,0.06019 0.829111,0.161937 0.127832,0.02793 1.352862,0.345428 1.623409,0.420741 2.284348,0.635905 4.277748,1.493336 5.894672,2.5355 l 0.198272,0.127795 0.0033,0.467648 c 0.0019,0.257206 -9.39e-4,0.467503 -0.0062,0.467327 -0.0052,-1.76e-4 -0.08193,-0.0427 -0.170546,-0.0945 z"
     id="path195916"
     sodipodi:nodetypes="cssssccccccccssccssccscc" />
  <path
     style="fill:#f9f9f9;fill-opacity:1;stroke:#2b424c;stroke-width:0.00185906"
     d="m 28.650295,21.369487 c -0.225764,-0.01421 -1.066813,-0.05533 -1.553246,-0.07593 -0.04908,-0.0021 -0.118515,-0.0051 -0.154303,-0.0065 -0.312048,-0.01327 -0.891153,-0.03534 -1.266021,-0.04826 -0.07362,-0.0025 -0.144937,-0.0051 -0.158484,-0.0058 l -0.02464,-0.0011 v -0.578908 -0.578908 h 0.01116 0.01115 l 1.4e-5,0.554467 1.5e-5,0.554464 0.0051,0.0025 c 0.0028,0.0013 0.01724,0.0039 0.03207,0.0059 0.01483,0.0019 0.03873,0.0052 0.05311,0.0073 0.01438,0.0021 0.04617,0.0059 0.07064,0.0085 0.02447,0.0026 0.05117,0.0056 0.05936,0.0065 0.102228,0.01244 0.541632,0.03475 0.988092,0.05018 0.650156,0.02246 1.280346,0.04843 1.759603,0.07251 0.06032,0.003 0.127671,0.0064 0.149655,0.0075 0.02198,0.001 0.04352,0.0024 0.04786,0.003 l 0.0079,9.38e-4 v 0.01197 0.01197 l -0.007,-2.69e-4 c -0.0038,-1.48e-4 -0.01826,-0.001 -0.03207,-0.0019 z"
     id="path195955" />
  <path
     style="fill:#fffcfc;fill-opacity:1;stroke:#2b424c;stroke-width:0.00390625"
     d=""
     id="path195994" />
  <path
     style="fill:#fffcfc;fill-opacity:1;stroke:#2b424c;stroke-width:0.00390625"
     d=""
     id="path196033" />
  <path
     style="fill:#f9f9f9;fill-opacity:1;stroke:#2b424c;stroke-width:0;stroke-miterlimit:4;stroke-dasharray:none"
     d="m 46.536225,26.572315 c -0.09694,-0.05353 -0.382569,-0.236442 -0.650702,-0.416703 -0.551705,-0.370894 -0.852496,-0.563259 -1.25383,-0.801865 -0.04903,-0.02915 -0.08663,-0.05298 -0.08357,-0.05298 0.0029,0 0.0068,-0.0025 0.0085,-0.0054 0.0074,-0.01367 0.009,-0.388442 0.0038,-0.812864 l -0.0015,-0.122887 0.0627,0.04241 c 0.184039,0.124499 0.337266,0.234138 0.491241,0.351506 0.57355,0.437187 1.237924,1.011969 1.506239,1.303125 0.09285,0.100745 0.109927,0.137818 0.09764,0.211894 -0.0056,0.03381 -0.03393,0.133151 -0.05034,0.176504 -0.03074,0.08131 -0.07199,0.144011 -0.09469,0.143992 -0.0029,-2e-6 -0.01856,-0.0076 -0.03517,-0.0167 z"
     id="path197308" />
  <path
     style="fill:#f9f9f9;fill-opacity:1;stroke:#2b424c;stroke-width:0;stroke-miterlimit:4;stroke-dasharray:none"
     d="M 25.517775,9.1984647 V 4.7367152 h 0.386686 0.386684 v 4.4617495 4.4617503 h -0.386684 -0.386686 z"
     id="path198221" />
  <path
     style="fill:#3a4c5a;fill-opacity:1;stroke:#2b424c;stroke-width:0;stroke-miterlimit:4;stroke-dasharray:none"
     d="m 46.241426,32.776195 c -0.232478,-0.120049 -0.784093,-0.42548 -1.225804,-0.678736 -1.32883,-0.761884 -1.972902,-1.082796 -3.035658,-1.512537 -2.000711,-0.809014 -4.114004,-1.375871 -7.144152,-1.916303 -1.926157,-0.343534 -3.605895,-0.559641 -5.094247,-0.655402 -0.989062,-0.06363 -3.947571,-0.223692 -4.141991,-0.224083 -0.01227,-2.5e-5 -0.0223,-0.796467 -0.0223,-1.769873 v -1.769827 l 0.840297,0.0011 c 1.861131,0.0026 5.504194,0.05728 5.867201,0.088 0.826494,0.06997 2.165231,0.290734 3.27195,0.539566 4.29883,0.96654 7.277745,2.387324 9.952605,4.746867 0.643819,0.567923 0.982632,0.995402 1.165857,1.470952 l 0.09541,0.24761 -4.1e-4,0.684135 c -4.14e-4,0.686326 -0.02273,0.966709 -0.07695,0.966709 -0.01599,0 -0.219309,-0.09822 -0.451791,-0.218269 z"
     id="path198316" />
  <path
     style="fill:#f9f9f9;fill-opacity:1;stroke:#2b424c;stroke-width:0;stroke-miterlimit:4;stroke-dasharray:none"
     d="m 67.175641,21.170048 c -0.151325,-0.0056 -0.301572,-0.01115 -0.333884,-0.0122 -0.04001,-0.0013 -0.05388,-0.0067 -0.04355,-0.01711 0.02687,-0.02688 0.737922,-0.04368 1.86096,-0.04398 l 1.089421,-2.92e-4 V 20.823399 20.55033 l -1.44635,-0.0098 c -1.399246,-0.0095 -1.575891,-0.01302 -1.751243,-0.0346 l -0.0818,-0.01005 0.0818,-0.01269 c 0.04499,-0.007 0.92675,-0.01636 1.959456,-0.02085 l 1.877651,-0.0082 v -4.304167 -4.304166 h 0.394123 0.394123 v 4.669965 4.669966 l -1.862781,-0.0027 c -1.02453,-0.0015 -1.986597,-0.0074 -2.137927,-0.01298 z"
     id="path198639" />
  <path
     style="fill:#f9f9f9;fill-opacity:1;stroke:#2b424c;stroke-width:0;stroke-miterlimit:4;stroke-dasharray:none"
     d="m 56.412483,23.252508 c 0.07112,-0.05093 0.09269,-0.07837 0.143234,-0.182189 0.05891,-0.121034 0.104859,-0.298995 0.1053,-0.407896 1.25e-4,-0.03102 0.0051,-0.06396 0.01114,-0.07322 0.006,-0.0092 0.07341,-0.02171 0.149786,-0.02772 0.07638,-0.006 0.133244,-0.01652 0.126371,-0.02338 -0.0178,-0.01779 -0.266891,-0.08275 -0.399006,-0.104068 -0.0614,-0.01 -0.111622,-0.02308 -0.111622,-0.02929 0,-0.02861 1.402346,-0.488841 2.014183,-0.661034 2.017397,-0.567769 4.270842,-0.947593 6.790333,-1.14453 0.791142,-0.06185 1.075453,-0.07479 1.132869,-0.05162 0.04015,0.01619 0.358849,0.02093 1.681752,0.025 l 1.63226,0.0051 v 0.244561 0.244561 h -1.487261 -1.487248 v 0.08924 0.08924 l 0.524258,0.0022 c 0.288341,0.0011 1.042931,0.0062 1.67687,0.01116 l 1.152621,0.009 -2.067282,0.09449 c -1.136999,0.05197 -2.468835,0.113323 -2.959625,0.13634 l -0.892345,0.04184 -0.773374,0.12052 c -1.56508,0.243899 -2.140382,0.352314 -3.368616,0.634813 -1.268117,0.291673 -2.210059,0.547434 -3.199992,0.868881 -0.250805,0.08145 -0.461038,0.148074 -0.467187,0.148074 -0.0061,0 0.02651,-0.02698 0.07256,-0.05996 z"
     id="path198678" />
  <path
     style="fill:#f9f9f9;fill-opacity:1;stroke:none;stroke-width:0;stroke-miterlimit:4;stroke-dasharray:none;stroke-opacity:1"
     d="m 69.479444,21.250627 c 0.02983,-9.39e-4 0.07711,-9.39e-4 0.105161,9e-6 0.02802,9.39e-4 0.0036,0.0018 -0.05417,0.0018 -0.05785,-4e-6 -0.08078,-7.94e-4 -0.05098,-0.0018 z"
     id="path198717" />
  <path
     style="fill:#f9f9f9;fill-opacity:1;stroke:none;stroke-width:0;stroke-miterlimit:4;stroke-dasharray:none;stroke-opacity:1"
     d="m 67.160771,21.170088 c -0.159508,-0.0056 -0.309755,-0.01107 -0.333884,-0.01216 -0.03012,-0.0013 -0.03908,-0.0067 -0.02852,-0.01731 0.02759,-0.02762 0.688263,-0.04342 1.831084,-0.04379 l 1.119174,-3.65e-4 v -0.27514 -0.275142 l -1.104283,-3.93e-4 C 67.554879,20.5454 66.6666,20.528848 66.536126,20.506518 l -0.06687,-0.01145 0.07436,-0.01243 c 0.04088,-0.0068 0.922662,-0.01607 1.959456,-0.02051 l 1.88509,-0.0081 v -3.984384 -3.984373 h 0.394123 0.394123 v 4.350206 4.350205 l -1.862781,-0.0027 c -1.02453,-0.0015 -1.993284,-0.0073 -2.152798,-0.01289 z"
     id="path199126" />
  <path
     style="fill:#f9f9f9;fill-opacity:1;stroke:none;stroke-width:0;stroke-miterlimit:4;stroke-dasharray:none;stroke-opacity:1"
     d="m 55.23303,23.507194 c 0,-0.02889 0.137755,-0.340686 0.187393,-0.424152 0.02884,-0.04848 0.103191,-0.157339 0.165254,-0.241919 0.08551,-0.116543 0.13301,-0.166411 0.196136,-0.205921 0.159376,-0.09975 0.502453,-0.210051 0.609001,-0.195788 0.02988,0.0039 0.127942,0.02274 0.217919,0.04164 0.16049,0.03373 0.162551,0.03467 0.108449,0.05005 -0.03032,0.0086 -0.06175,0.0223 -0.06982,0.03042 -0.0081,0.0081 -0.0218,0.07231 -0.0305,0.142662 -0.0087,0.07035 -0.02575,0.160703 -0.03788,0.200778 -0.04779,0.1581 -0.17184,0.321228 -0.319038,0.419523 -0.103492,0.06911 -0.371651,0.159558 -0.536134,0.180838 -0.141824,0.01835 -0.490792,0.01967 -0.490792,0.0019 z"
     id="path199165" />
  <path
     style="fill:#f9f9f9;fill-opacity:1;stroke:none;stroke-width:0;stroke-miterlimit:4;stroke-dasharray:none;stroke-opacity:1"
     d="m 55.714455,23.54179 c 0,-0.007 -0.08679,-0.0083 -0.257652,-0.0035 -0.236775,0.0064 -0.257654,0.0056 -0.257654,-0.01059 0,-0.02287 0.113864,-0.308411 0.161123,-0.404037 0.04607,-0.09325 0.104264,-0.179108 0.192076,-0.283443 0.03784,-0.04495 0.07571,-0.09476 0.08417,-0.110657 0.01409,-0.02645 0.0138,-0.02896 -0.0033,-0.02938 -0.01026,-2.57e-4 0.04521,-0.02645 0.123296,-0.05821 0.134119,-0.05455 0.659583,-0.256813 0.667178,-0.256813 0.0019,0 0.0029,0.0081 0.0019,0.01799 -0.0015,0.01495 0.02004,0.02187 0.125128,0.04078 0.130869,0.02355 0.26296,0.05548 0.336133,0.08126 l 0.04207,0.01481 -0.0631,0.0065 c -0.03469,0.0035 -0.09472,0.0094 -0.133372,0.01311 l -0.07027,0.0065 -0.0066,0.06984 c -0.01228,0.128555 -0.03617,0.250792 -0.0642,0.328914 -0.0583,0.162397 -0.09927,0.220294 -0.213446,0.301583 -0.06773,0.04823 -0.06856,0.04937 -0.03788,0.05286 0.0229,0.0026 -0.05508,0.03447 -0.289288,0.118211 -0.176353,0.06306 -0.324187,0.114685 -0.328523,0.11474 -0.0042,5.5e-5 -0.0079,-0.0047 -0.0079,-0.01051 z"
     id="path199618" />
  <path
     style="fill:#f9f9f9;fill-opacity:1;stroke:none;stroke-width:0;stroke-miterlimit:4;stroke-dasharray:none;stroke-opacity:1"
     d="m 55.714455,23.54179 c 0,-0.007 -0.08679,-0.0083 -0.257652,-0.0035 -0.236775,0.0064 -0.257654,0.0056 -0.257654,-0.01059 0,-0.02287 0.113864,-0.308411 0.161123,-0.404037 0.04607,-0.09325 0.104264,-0.179108 0.192076,-0.283443 0.03784,-0.04495 0.07571,-0.09476 0.08417,-0.110657 0.01409,-0.02645 0.0138,-0.02896 -0.0033,-0.02938 -0.01026,-2.57e-4 0.04521,-0.02645 0.123296,-0.05821 0.134119,-0.05455 0.659583,-0.256813 0.667178,-0.256813 0.0019,0 0.0029,0.0081 0.0019,0.01799 -0.0015,0.01495 0.02004,0.02187 0.125128,0.04078 0.130869,0.02355 0.26296,0.05548 0.336133,0.08126 l 0.04207,0.01481 -0.0631,0.0065 c -0.03469,0.0035 -0.09472,0.0094 -0.133372,0.01311 l -0.07027,0.0065 -0.0066,0.06984 c -0.01228,0.128555 -0.03617,0.250792 -0.0642,0.328914 -0.0583,0.162397 -0.09927,0.220294 -0.213446,0.301583 -0.06773,0.04823 -0.06856,0.04937 -0.03788,0.05286 0.0229,0.0026 -0.05508,0.03447 -0.289288,0.118211 -0.176353,0.06306 -0.324187,0.114685 -0.328523,0.11474 -0.0042,5.5e-5 -0.0079,-0.0047 -0.0079,-0.01051 z"
     id="path199657" />
  <path
     style="fill:#f9f9f9;fill-opacity:1;stroke:none;stroke-width:0;stroke-miterlimit:4;stroke-dasharray:none;stroke-opacity:1"
     d="m 55.218062,23.533607 c -0.01609,-0.0032 -0.01485,-0.01183 0.01199,-0.08442 0.114064,-0.308362 0.169934,-0.411667 0.330917,-0.611911 0.04416,-0.05494 0.08298,-0.110109 0.08624,-0.12258 0.0038,-0.01541 0.0267,-0.03168 0.07075,-0.05082 0.124211,-0.05391 0.660559,-0.258982 0.688605,-0.263297 0.01557,-0.0024 0.09924,-0.03072 0.185998,-0.06297 0.35219,-0.130879 1.410602,-0.469735 1.866668,-0.597625 2.038469,-0.571624 4.295209,-0.951926 6.777846,-1.14219 0.839125,-0.0643 1.1234,-0.07706 1.148923,-0.05153 0.0164,0.01641 0.718191,0.02849 1.703665,0.02932 l 0.770327,6.66e-4 v 0.247137 0.247136 h -1.072672 -1.07268 v 0.08939 0.08939 h 1.07268 1.072672 v 0.0359 0.0359 l -0.07624,0.0061 c -0.04188,0.0034 -0.341258,0.01799 -0.665161,0.03245 -0.821401,0.03665 -3.291472,0.149658 -3.659725,0.167429 -0.295159,0.01424 -0.32375,0.01764 -0.88864,0.105408 -1.628724,0.253066 -2.163681,0.350364 -3.178458,0.578099 -1.559522,0.349986 -2.590932,0.62788 -3.755027,1.011725 -0.275563,0.09086 -0.344537,0.105617 -0.265021,0.0567 0.07735,-0.0476 0.132424,-0.107675 0.173311,-0.189081 0.05783,-0.115151 0.09344,-0.238499 0.110071,-0.381282 0.0081,-0.0691 0.017,-0.127995 0.01985,-0.130871 0.0029,-0.0029 0.05887,-0.01 0.124424,-0.01566 0.141349,-0.01238 0.158567,-0.01639 0.132725,-0.0309 -0.03079,-0.01728 -0.336147,-0.09147 -0.402643,-0.09783 -0.04412,-0.0042 -0.02199,0.003 0.07361,0.02417 0.163431,0.03611 0.268076,0.06308 0.288079,0.07426 0.0084,0.0047 -0.02518,0.01121 -0.07888,0.01528 -0.13361,0.01016 -0.150672,0.01465 -0.155764,0.04117 -0.0024,0.01255 -0.0099,0.07009 -0.01685,0.127849 -0.0208,0.175375 -0.08657,0.367769 -0.15227,0.445365 -0.01633,0.0193 -0.06218,0.06099 -0.101855,0.09265 -0.0397,0.03166 -0.06963,0.06165 -0.06653,0.06664 0.0062,0.01005 -0.07626,0.0433 -0.356232,0.143538 l -0.188073,0.06734 -0.26939,0.0027 c -0.148164,0.0016 -0.277442,0.0011 -0.287284,-8.67e-4 z"
     id="path200669" />
  <path
     style="fill:#f9f9f9;fill-opacity:1;stroke:none;stroke-width:0;stroke-miterlimit:4;stroke-dasharray:none;stroke-opacity:1"
     d="m 49.989543,26.436344 c -0.13241,-0.0443 -0.240749,-0.0823 -0.240749,-0.08442 0,-0.0022 0.04904,-0.06906 0.108957,-0.148746 0.26395,-0.350961 0.375102,-0.498335 0.378299,-0.501579 0.0042,-0.0045 9.39e-4,-0.0055 0.268453,0.08254 l 0.222159,0.07309 v 0.147948 c 0,0.08137 0.0015,0.147947 0.0029,0.147947 0.0015,0 0.0019,0.0083 9.38e-4,0.01847 l -0.0019,0.01847 -0.244881,0.163719 c -0.134679,0.09005 -0.246782,0.163583 -0.24911,0.163419 -0.0024,-1.65e-4 -0.112578,-0.03655 -0.24499,-0.08085 z"
     id="path201001" />
  <path
     style="fill:#f9f9f9;fill-opacity:1;stroke:none;stroke-width:0;stroke-miterlimit:4;stroke-dasharray:none;stroke-opacity:1"
     d="m 50.044388,26.452812 c -0.224911,-0.07523 -0.291877,-0.09883 -0.291877,-0.10287 0,-0.0034 0.158814,-0.216259 0.36,-0.482575 l 0.124572,-0.164905 0.01333,0.0022 c 0.0074,0.0011 0.117072,0.03614 0.243862,0.07769 l 0.23052,0.07556 0.0019,0.157854 c 9.39e-4,0.08682 0.0015,0.161715 4.57e-4,0.166433 -9.39e-4,0.0066 -0.03603,0.03172 -0.152447,0.109495 -0.224439,0.149961 -0.335638,0.222136 -0.342225,0.222123 -0.0033,-7e-6 -0.08786,-0.02742 -0.18806,-0.06095 z"
     id="path201040" />
  <path
     style="fill:#f9f9f9;fill-opacity:1;stroke:none;stroke-width:0;stroke-miterlimit:4;stroke-dasharray:none;stroke-opacity:1"
     d="m 50.076922,26.464649 c -0.20842,-0.06951 -0.321046,-0.108511 -0.325139,-0.112599 -0.0029,-0.0027 0.02013,-0.03374 0.27066,-0.36642 0.236128,-0.313549 0.21347,-0.284139 0.219004,-0.284209 0.0083,-1.04e-4 0.03012,0.0068 0.306745,0.09784 0.07003,0.02303 0.138849,0.04561 0.152908,0.05015 l 0.02556,0.0083 2.8e-5,0.131456 c 1.9e-5,0.0723 9.39e-4,0.141078 0.0019,0.152837 9.39e-4,0.01175 0.0015,0.02734 4.76e-4,0.03463 l -9.38e-4,0.01325 -0.212165,0.141367 c -0.241078,0.160634 -0.27759,0.184434 -0.282807,0.18435 -0.0019,-3.3e-5 -0.07232,-0.02294 -0.156158,-0.0509 z"
     id="path201079" />
  <path
     style="fill:#f9f9f9;fill-opacity:1;stroke:none;stroke-width:0;stroke-miterlimit:4;stroke-dasharray:none;stroke-opacity:1"
     d="m 50.296287,25.713948 c -0.0061,-0.0021 -0.01147,-0.0041 -0.01185,-0.0044 -3.9e-4,-3.36e-4 0.01175,-0.01261 0.02694,-0.02726 0.263603,-0.253992 0.56469,-0.482982 0.983222,-0.74779 0.08282,-0.0524 0.18185,-0.113371 0.310563,-0.191205 l 0.03913,-0.02366 0.01409,5.71e-4 0.0141,5.71e-4 -0.03184,0.0194 c -0.450016,0.274119 -0.792397,0.504053 -1.014366,0.681225 -0.104503,0.08342 -0.167671,0.140196 -0.245566,0.220741 -0.02598,0.02687 -0.0531,0.05488 -0.06025,0.06226 l -0.013,0.01342 z"
     id="path201118" />
  <path
     style="fill:#f9f9f9;fill-opacity:1;stroke:none;stroke-width:0;stroke-miterlimit:4;stroke-dasharray:none;stroke-opacity:1"
     d="m 50.730365,26.003935 -1.9e-5,-0.1492 -0.142666,-0.04638 c -0.07846,-0.02551 -0.173021,-0.0563 -0.21012,-0.06841 l -0.06745,-0.02203 0.04445,-0.04685 c 0.06732,-0.07094 0.106767,-0.108785 0.173173,-0.166139 0.223316,-0.192863 0.581198,-0.43844 1.103968,-0.757538 l 0.04521,-0.02761 h 0.406061 0.406058 v 0.148493 0.148494 l -0.0209,0.01166 c -0.105645,0.05889 -0.32176,0.183856 -0.417825,0.241605 -0.262769,0.157966 -0.835553,0.533345 -1.117298,0.732232 -0.04008,0.02829 -0.08751,0.06342 -0.159414,0.118039 l -0.04322,0.03284 -1.5e-5,-0.1492 z"
     id="path201157" />
  <path
     style="fill:#f9f9f9;fill-opacity:1;stroke:none;stroke-width:0;stroke-miterlimit:4;stroke-dasharray:none;stroke-opacity:1"
     d="m 50.068556,26.461905 c -0.209972,-0.07004 -0.31249,-0.105574 -0.316706,-0.109789 -9.39e-4,-10e-4 0.0054,-0.01168 0.01656,-0.02739 0.02332,-0.0327 0.409467,-0.546815 0.458045,-0.609802 0.0083,-0.01073 0.01133,-0.01341 0.01542,-0.01347 0.0064,-1.05e-4 0.0587,0.0161 0.170595,0.05291 0.04857,0.01597 0.13913,0.04577 0.201247,0.0662 l 0.112936,0.03716 5.7e-5,0.123998 c 3.3e-5,0.0682 9.39e-4,0.137382 0.0019,0.15374 9.39e-4,0.01637 0.0015,0.03534 4.76e-4,0.04219 l -9.39e-4,0.01245 -0.226109,0.150397 c -0.246365,0.163868 -0.263718,0.175161 -0.269019,0.175094 -0.0019,-2.4e-5 -0.07593,-0.02418 -0.164378,-0.05368 z"
     id="path201196" />
  <path
     style="fill:#f9f9f9;fill-opacity:1;stroke:none;stroke-width:0;stroke-miterlimit:4;stroke-dasharray:none;stroke-opacity:1"
     d="m 50.73224,26.161063 v -0.0074 l 0.06739,-0.05107 c 0.128589,-0.09744 0.230455,-0.168357 0.498692,-0.347161 0.344577,-0.229686 0.623613,-0.40821 0.808694,-0.517396 0.123044,-0.07258 0.37797,-0.21897 0.38134,-0.21897 3.85e-4,0 4.75e-4,0.0025 4.75e-4,0.0054 0,0.0051 -0.0019,0.0065 -0.03393,0.02447 -0.49578,0.278773 -1.004034,0.601072 -1.447748,0.918058 -0.08628,0.06164 -0.250811,0.182008 -0.272816,0.199589 -0.0019,0.0015 -0.0024,1.32e-4 -0.0024,-0.0055 z"
     id="path201235" />
  <path
     style="fill:#f9f9f9;fill-opacity:1;stroke:none;stroke-width:0;stroke-miterlimit:4;stroke-dasharray:none;stroke-opacity:1"
     d="m 54.805906,23.483016 4.7e-4,-0.425708 0.07529,-0.03338 c 0.386624,-0.171473 0.735711,-0.317504 0.758988,-0.317504 0.005,0 0.0029,0.0051 -0.0086,0.02359 -0.01337,0.02127 -0.03869,0.05339 -0.07294,0.09261 -0.05038,0.0577 -0.07953,0.09491 -0.11939,0.152443 -0.05171,0.07463 -0.07489,0.117941 -0.124372,0.232383 -0.06625,0.153223 -0.131215,0.326366 -0.124848,0.332734 0.0065,0.0065 0.182477,0.0078 0.323873,0.0023 0.08541,-0.0034 0.181759,-0.004 0.193138,-0.0015 0.0076,0.0018 0.0096,-3.55e-4 0.0029,-0.0027 -0.0091,-0.0031 -0.160208,-0.003 -0.289549,1.06e-4 -0.132801,0.0032 -0.197573,0.003 -0.210338,-8.67e-4 -0.01128,-0.0034 -0.01199,-0.0056 -0.0075,-0.02246 0.01357,-0.05063 0.107963,-0.285495 0.153179,-0.381065 0.02946,-0.06223 0.07248,-0.132455 0.121903,-0.198919 0.02351,-0.0316 0.03008,-0.03989 0.07302,-0.09203 0.06656,-0.0808 0.09841,-0.12658 0.09614,-0.138196 -2.94e-4,-0.0016 -0.0033,-0.0038 -0.007,-0.0051 l -0.0065,-0.0023 0.02508,-0.0121 c 0.03465,-0.01669 0.07607,-0.03414 0.159881,-0.06737 0.18142,-0.07192 0.584187,-0.226443 0.60094,-0.230546 0.0048,-0.0011 0.0051,-7.95e-4 0.0051,0.0038 0,0.0046 4.75e-4,0.0049 0.0051,0.0038 0.0029,-6.66e-4 0.01557,-0.0057 0.02837,-0.0112 0.18213,-0.07799 1.296977,-0.444111 1.805151,-0.592809 0.05658,-0.01656 0.162236,-0.04651 0.250971,-0.07113 0.0496,-0.01376 0.09162,-0.02547 0.09342,-0.02601 0.0029,-9.39e-4 0.0033,0.02246 0.0033,0.473203 0,0.260801 -3.23e-4,0.474186 -9.39e-4,0.474186 -0.0024,0 -0.209162,0.05508 -0.325547,0.08672 -0.598717,0.162775 -1.115119,0.318524 -1.635976,0.493418 -0.212746,0.07143 -0.253385,0.0845 -0.289412,0.09309 -0.01138,0.0027 -0.01757,0.0051 -0.01704,0.0064 0.0033,0.0085 -0.139673,0.06295 -0.468791,0.178708 -0.127189,0.04473 -0.152152,0.05278 -0.154987,0.04994 -0.0024,-0.0023 -0.0038,-0.0021 -0.01309,0.0026 -0.0057,0.0029 -0.04051,0.01673 -0.07733,0.03078 -0.250619,0.09571 -0.550377,0.214042 -0.757107,0.298885 l -0.06554,0.0269 z m 1.558362,-0.201032 c 0.08382,-0.05536 0.125652,-0.09574 0.161422,-0.155855 0.05383,-0.09046 0.103502,-0.238335 0.120989,-0.360227 0.0015,-0.01074 0.0062,-0.05549 0.01026,-0.09946 0.0042,-0.04397 0.008,-0.0837 0.0086,-0.08831 9.38e-4,-0.0077 9.38e-4,-0.0081 -0.0019,-0.0055 -0.0024,0.0023 -0.0042,0.01508 -0.0085,0.05763 -0.01056,0.104816 -0.02318,0.182057 -0.04198,0.257155 -0.0098,0.03926 -0.01757,0.06387 -0.03278,0.10431 -0.05325,0.141458 -0.09391,0.195574 -0.209181,0.278485 -0.02261,0.01627 -0.04673,0.0359 -0.04227,0.03443 9.39e-4,-3.38e-4 0.01695,-0.01056 0.03531,-0.02271 z m 0.431301,-0.723348 c 0.146841,-0.01204 0.153319,-0.01296 0.145827,-0.02045 -0.0029,-0.0029 -0.12105,-0.03952 -0.170145,-0.0528 -0.0847,-0.0229 -0.232016,-0.05271 -0.257454,-0.05211 l -0.0063,1.52e-4 0.0058,0.0025 c 0.0033,0.0013 0.02827,0.0068 0.05577,0.01202 0.133257,0.02529 0.247754,0.0537 0.327485,0.08124 0.01357,0.0047 0.02466,0.0091 0.02466,0.0097 0,6.66e-4 -0.04497,0.0056 -0.09993,0.01104 -0.05495,0.0054 -0.110404,0.01084 -0.123215,0.01212 -0.0128,0.0013 -0.02494,0.0032 -0.02694,0.0045 -0.0019,0.0011 -0.0029,0.0022 -0.0019,0.0022 9.39e-4,3.4e-5 0.05791,-0.0046 0.126414,-0.01016 z"
     id="path201274" />
  <path
     style="fill:#f9f9f9;fill-opacity:1;stroke:none;stroke-width:0;stroke-miterlimit:4;stroke-dasharray:none;stroke-opacity:1"
     d="m 54.805906,23.483087 4.7e-4,-0.425932 0.02047,-0.0091 c 0.385532,-0.171946 0.789484,-0.341622 0.813314,-0.341622 0.0033,0 0.0038,7.95e-4 0.0029,0.0041 -0.0042,0.01471 -0.0346,0.05503 -0.08366,0.112042 -0.05487,0.06373 -0.08178,0.09822 -0.121127,0.155198 -0.05044,0.07304 -0.07252,0.114495 -0.122854,0.230523 -0.0643,0.148243 -0.130892,0.325591 -0.124614,0.33187 0.0063,0.0063 0.181773,0.0074 0.325929,0.0021 0.05087,-0.0019 0.112569,-0.003 0.143508,-0.0027 0.03393,4e-4 0.05275,2e-6 0.0502,-0.001 -0.0076,-0.0031 -0.154798,-0.0033 -0.277362,-3.18e-4 -0.179916,0.0045 -0.217714,0.0038 -0.229146,-0.0037 -0.0038,-0.0026 -0.0042,-0.0038 -0.0033,-0.0097 0.0062,-0.03302 0.08326,-0.22954 0.139569,-0.355923 0.04861,-0.109105 0.104883,-0.196828 0.202389,-0.31555 0.04212,-0.05131 0.07066,-0.08767 0.0838,-0.106896 0.01114,-0.01627 0.02185,-0.03843 0.02037,-0.04222 -4.77e-4,-0.0016 -0.0038,-0.0037 -0.007,-0.0047 -0.0058,-0.0018 -0.0055,-0.0021 0.02152,-0.01511 0.01509,-0.0073 0.0406,-0.01881 0.0567,-0.02559 0.113955,-0.04799 0.694672,-0.272113 0.705057,-0.272113 9.39e-4,0 0.0019,0.0022 0.0019,0.0049 0,0.0045 4.76e-4,0.0047 0.0051,0.0035 0.0029,-7.14e-4 0.01438,-0.0053 0.02569,-0.01026 0.142452,-0.06199 0.988186,-0.343164 1.581905,-0.525916 0.161028,-0.04956 0.296356,-0.08905 0.472204,-0.137789 0.05214,-0.01445 0.09628,-0.0267 0.09806,-0.02723 0.0029,-9.39e-4 0.0033,0.0225 0.0033,0.473163 v 0.474113 l -0.0069,0.0018 c -0.101575,0.02617 -0.392073,0.104726 -0.541454,0.146408 -0.532027,0.148455 -0.956309,0.27855 -1.464939,0.449186 -0.156778,0.0526 -0.212517,0.07035 -0.241216,0.07681 -0.0087,0.002 -0.01347,0.0039 -0.01347,0.0056 0,0.0051 -0.04824,0.02611 -0.132814,0.05779 -0.121832,0.04566 -0.474141,0.170314 -0.485326,0.171728 -0.0019,2.58e-4 -0.0052,-1.83e-4 -0.007,-0.001 -0.0024,-9.38e-4 -0.0076,4.73e-4 -0.01581,0.0042 -0.0068,0.0031 -0.07437,0.02953 -0.150029,0.05863 -0.07566,0.0291 -0.153883,0.05931 -0.17382,0.06713 -0.01994,0.0078 -0.0446,0.01744 -0.05484,0.02137 -0.086,0.03315 -0.406639,0.161879 -0.504275,0.202457 l -0.01347,0.0056 z m 1.593822,-0.225426 c 0.06732,-0.04769 0.105907,-0.09149 0.142024,-0.161208 0.0495,-0.09555 0.09013,-0.224453 0.105055,-0.333339 0.0033,-0.02502 0.01952,-0.191136 0.01861,-0.192108 -0.0024,-0.0026 -0.0054,0.0135 -0.0093,0.05197 -0.0179,0.175659 -0.04098,0.282895 -0.08414,0.391139 -0.04807,0.120516 -0.08715,0.172373 -0.183548,0.243545 -0.04426,0.03267 -0.04804,0.0356 -0.05304,0.04098 -0.0042,0.0047 0.03731,-0.02183 0.06433,-0.04098 z m 0.404209,-0.700023 c 0.116611,-0.0095 0.132367,-0.01128 0.136989,-0.01511 0.0056,-0.0047 0.0048,-0.005 -0.100963,-0.03701 -0.09721,-0.0295 -0.222802,-0.05835 -0.302661,-0.06954 -0.01118,-0.0016 -0.02246,-0.0028 -0.02508,-0.0028 -0.01228,1.44e-4 0.0063,0.0047 0.08008,0.01932 0.108676,0.02164 0.168247,0.03557 0.23953,0.05605 0.03421,0.0098 0.08923,0.02857 0.08923,0.0304 0,7.14e-4 -0.05573,0.0068 -0.123854,0.01359 -0.07839,0.0078 -0.124624,0.01311 -0.125952,0.01451 -0.0015,0.0018 2.58e-4,0.002 0.0082,0.001 0.0056,-6.19e-4 0.06168,-0.0054 0.124557,-0.01049 z"
     id="path201313" />
  <path
     style="fill:#f9f9f9;fill-opacity:1;stroke:none;stroke-width:0;stroke-miterlimit:4;stroke-dasharray:none;stroke-opacity:1"
     d="m 54.805906,23.483105 4.7e-4,-0.426174 0.04555,-0.02019 c 0.413112,-0.183094 0.764369,-0.330332 0.788051,-0.330332 0.0055,0 0.005,0.003 -0.0033,0.01693 -0.0128,0.02191 -0.03755,0.05323 -0.09319,0.117988 -0.07786,0.0906 -0.142248,0.184538 -0.181982,0.265537 -0.05444,0.110965 -0.162308,0.380558 -0.170237,0.425455 -9.39e-4,0.0064 -9.39e-4,0.0072 0.0038,0.0089 0.01533,0.0058 0.183144,0.0058 0.344477,-1.28e-4 0.02608,-9.39e-4 0.07459,-0.0019 0.107823,-0.0021 0.04174,-2.48e-4 0.05553,-7.95e-4 0.0446,-0.0018 -0.02712,-0.0024 -0.13537,-0.0019 -0.263056,0.0012 -0.06749,0.0016 -0.143218,0.0026 -0.168304,0.0022 -0.04036,-6.65e-4 -0.04645,-0.0011 -0.05298,-0.0044 -0.0048,-0.0023 -0.0076,-0.0051 -0.008,-0.0075 -0.0019,-0.01337 0.06549,-0.188618 0.128275,-0.333539 0.0559,-0.129029 0.107606,-0.211718 0.21328,-0.341064 0.06684,-0.08183 0.09038,-0.113516 0.100766,-0.135705 0.0033,-0.0066 0.0051,-0.01299 0.0042,-0.01415 -4.76e-4,-0.0011 -0.0038,-0.0032 -0.0072,-0.0046 l -0.0058,-0.0025 0.02727,-0.01307 c 0.05529,-0.02647 0.126252,-0.05504 0.398441,-0.160417 0.204099,-0.07901 0.357968,-0.137232 0.362723,-0.137232 0.0015,0 0.0024,0.0016 0.0024,0.0034 0,0.0019 4.75e-4,0.0039 9.39e-4,0.0046 0.0015,0.0012 0.01256,-0.0029 0.04536,-0.0163 0.192153,-0.07897 1.162049,-0.398537 1.698225,-0.559544 0.105573,-0.0317 0.435081,-0.125536 0.440835,-0.125536 3.96e-4,0 9.39e-4,0.213268 9.39e-4,0.473929 v 0.473928 l -0.0097,0.0027 c -0.0054,0.0016 -0.02147,0.0058 -0.03579,0.0095 -0.667955,0.17445 -1.368923,0.382864 -1.96131,0.583148 -0.127885,0.04324 -0.200377,0.06663 -0.233315,0.0753 -0.01799,0.0047 -0.02637,0.0079 -0.02951,0.01101 -0.01337,0.01333 -0.137513,0.06054 -0.438052,0.166574 -0.142528,0.05028 -0.181468,0.06311 -0.184333,0.06073 -0.0019,-0.0015 -0.0094,8.67e-4 -0.02988,0.0092 -0.01509,0.0061 -0.05632,0.02223 -0.09159,0.03572 -0.255407,0.09767 -0.631826,0.246916 -0.784997,0.311256 l -0.007,0.003 z m 1.568085,-0.208306 c 0.07766,-0.05182 0.116729,-0.09062 0.15305,-0.152002 0.05343,-0.09029 0.104094,-0.243141 0.119838,-0.361542 0.0033,-0.0268 0.01923,-0.18932 0.01838,-0.190347 -0.0019,-0.0025 -0.005,0.01461 -0.0091,0.0542 -0.02056,0.195875 -0.04659,0.306608 -0.10061,0.428523 -0.03298,0.07445 -0.06625,0.120684 -0.120603,0.167621 -0.0092,0.008 -0.03484,0.02793 -0.05702,0.0444 -0.02213,0.01647 -0.04089,0.0309 -0.04159,0.03207 -0.0019,0.0032 0.0029,2.12e-4 0.0377,-0.02291 z m 0.428085,-0.717191 c 0.06187,-0.0051 0.117775,-0.01005 0.124249,-0.011 0.01175,-0.0018 0.0179,-0.0047 0.01605,-0.0077 -0.0019,-0.0028 -0.115626,-0.03816 -0.172808,-0.05363 -0.07914,-0.02141 -0.232624,-0.05257 -0.256553,-0.05208 l -0.0056,1.13e-4 0.0048,0.0019 c 0.0024,0.001 0.03603,0.0081 0.07437,0.01579 0.110657,0.02211 0.176581,0.03753 0.244866,0.0573 0.03965,0.01147 0.08976,0.02863 0.08976,0.03071 0,7.95e-4 -0.0056,0.0019 -0.01256,0.0025 -0.02113,0.0019 -0.19733,0.01973 -0.216115,0.0219 -0.01913,0.0022 -0.0305,0.0061 -0.01299,0.0045 0.0056,-5.24e-4 0.06084,-0.0051 0.122697,-0.01026 z"
     id="path201352" />
  <path
     style="fill:#f9f9f9;fill-opacity:1;stroke:none;stroke-width:0;stroke-miterlimit:4;stroke-dasharray:none;stroke-opacity:1"
     d="m 54.805906,23.48306 4.7e-4,-0.426077 0.05577,-0.02486 c 0.358073,-0.159527 0.754543,-0.325722 0.777034,-0.325722 0.0029,0 0.0048,0.001 0.0048,0.0025 0,0.0049 -0.01976,0.03493 -0.03836,0.05835 -0.01038,0.01304 -0.03493,0.04255 -0.05458,0.06555 -0.08524,0.09976 -0.144718,0.185321 -0.185471,0.266776 -0.06189,0.123692 -0.1831,0.430653 -0.173759,0.439998 0.0038,0.0037 0.04022,0.0051 0.135647,0.0052 0.08684,4.6e-5 0.166687,-0.0016 0.231002,-0.0046 0.01075,-5.25e-4 0.04631,-0.001 0.07901,-0.0012 0.05256,-2.74e-4 0.05711,-5.23e-4 0.03902,-0.0021 -0.01375,-0.0011 -0.06897,-10e-4 -0.169174,7.14e-4 -0.0818,0.0013 -0.180931,0.0025 -0.220299,0.0025 -0.06786,0 -0.07196,-1.93e-4 -0.07901,-0.0037 -0.0069,-0.0034 -0.0075,-0.0042 -0.0072,-0.01116 4.76e-4,-0.01275 0.02132,-0.0708 0.0618,-0.17238 0.06183,-0.155251 0.100445,-0.239742 0.139582,-0.3054 0.03212,-0.05389 0.0755,-0.115138 0.122454,-0.172893 0.09675,-0.119011 0.117638,-0.14767 0.120518,-0.16542 9.39e-4,-0.0061 4.75e-4,-0.0067 -0.0052,-0.0091 l -0.0062,-0.0026 0.02227,-0.01098 c 0.03131,-0.01544 0.08177,-0.03681 0.161699,-0.06846 0.138949,-0.05504 0.410114,-0.159729 0.520536,-0.200962 0.03679,-0.01374 0.07009,-0.02621 0.07393,-0.02769 0.0094,-0.0037 0.01251,-0.0034 0.01251,10e-4 0,0.0054 0.0052,0.0048 0.0238,-0.003 0.02913,-0.01218 0.03792,-0.01561 0.08495,-0.03317 0.245323,-0.0916 0.996673,-0.339279 1.490968,-0.491488 0.146821,-0.04521 0.263602,-0.07966 0.396912,-0.117095 0.130592,-0.03667 0.187112,-0.05235 0.188688,-0.05235 4.77e-4,0 9.39e-4,0.213262 9.39e-4,0.473917 v 0.473917 l -0.0061,0.0019 c -0.0033,0.001 -0.01776,0.0049 -0.03208,0.0086 -0.385543,0.100186 -0.890808,0.243527 -1.275319,0.36181 -0.232343,0.07147 -0.339587,0.10597 -0.657178,0.211393 -0.206502,0.06855 -0.241763,0.07989 -0.278318,0.08957 -0.0089,0.0023 -0.01742,0.0059 -0.02047,0.0085 -0.01371,0.0119 -0.09372,0.04346 -0.277543,0.109412 -0.235612,0.08454 -0.341081,0.120609 -0.345607,0.118187 -0.0019,-10e-4 -0.0095,0.001 -0.02341,0.0066 -0.01124,0.0046 -0.04889,0.0192 -0.08365,0.03258 -0.275701,0.106056 -0.561763,0.219095 -0.738047,0.291642 -0.03274,0.01346 -0.06137,0.02522 -0.06368,0.02611 l -0.0042,0.0016 z m 1.563012,-0.2051 c 0.08586,-0.0565 0.126899,-0.09836 0.166272,-0.16959 0.05082,-0.09194 0.09606,-0.233168 0.111503,-0.348045 0.0038,-0.02703 0.01785,-0.174166 0.01766,-0.182479 l -1.62e-4,-0.0062 -0.0015,0.0053 c -9.38e-4,0.0029 -0.0033,0.02173 -0.0055,0.04183 -0.02033,0.188522 -0.04069,0.28338 -0.08476,0.394786 -0.03331,0.08422 -0.06177,0.132127 -0.105551,0.177591 -0.02341,0.02434 -0.03893,0.03735 -0.08993,0.07554 -0.02275,0.01703 -0.04136,0.03143 -0.04136,0.03197 0,0.0013 -9.6e-5,0.0013 0.03346,-0.02071 z m 0.430374,-0.720326 c 0.108024,-0.0089 0.137045,-0.01185 0.140549,-0.014 0.0048,-0.0029 4.75e-4,-0.0064 -0.01275,-0.0108 -0.111499,-0.03645 -0.214516,-0.06375 -0.316505,-0.08387 -0.03393,-0.0067 -0.09038,-0.01581 -0.09761,-0.01574 -0.01047,8e-5 0.0076,0.0045 0.0722,0.01743 0.14546,0.02926 0.232672,0.05105 0.305302,0.07625 0.02826,0.0098 0.03203,0.01141 0.03041,0.0129 -4.28e-4,3.93e-4 -0.04389,0.005 -0.09652,0.01026 -0.120916,0.01205 -0.147083,0.01499 -0.150457,0.01687 -0.0015,9.39e-4 9.39e-4,0.0011 0.0056,7.14e-4 0.0048,-4.39e-4 0.05847,-0.005 0.119813,-0.01005 z"
     id="path201391" />
  <path
     style="fill:#f9f9f9;fill-opacity:1;stroke:none;stroke-width:0;stroke-miterlimit:4;stroke-dasharray:none;stroke-opacity:1"
     d="m 54.805906,23.483011 4.7e-4,-0.426165 0.06599,-0.02935 c 0.367515,-0.163429 0.744138,-0.321084 0.76704,-0.321084 0.0024,0 0.0042,0.001 0.0042,0.0025 0,0.0013 -0.0038,0.0091 -0.0088,0.01725 -0.0137,0.02282 -0.02951,0.04296 -0.08223,0.104773 -0.08714,0.102197 -0.146556,0.187376 -0.187032,0.268144 -0.05363,0.107013 -0.170537,0.399063 -0.173939,0.434514 -4.77e-4,0.0061 -2.24e-4,0.0065 0.0067,0.0084 0.01056,0.0027 0.257325,0.0025 0.328128,-3.98e-4 0.03117,-0.0013 0.0772,-0.0025 0.102248,-0.0026 0.02584,-1.47e-4 0.04312,-9.39e-4 0.03998,-0.0018 -0.0065,-0.0018 -0.124252,-7.14e-4 -0.271717,0.0023 -0.133352,0.0027 -0.179022,0.002 -0.189331,-0.0031 -0.0069,-0.0034 -0.0075,-0.0041 -0.007,-0.01107 0.0015,-0.02833 0.113536,-0.308734 0.163963,-0.409448 0.04279,-0.08543 0.0929,-0.159323 0.184434,-0.271899 0.06248,-0.07684 0.08583,-0.108576 0.09353,-0.127108 0.0042,-0.01065 0.0038,-0.01382 -0.0029,-0.01668 l -0.0061,-0.0025 0.02099,-0.01057 c 0.02955,-0.01487 0.07426,-0.03379 0.167696,-0.07095 0.19299,-0.07673 0.591906,-0.229528 0.599259,-0.229528 0.0019,0 0.0029,0.0015 0.0029,0.0037 0,0.0023 0.0015,0.0037 0.0033,0.0037 0.0019,0 0.01785,-0.0059 0.03579,-0.0132 0.230603,-0.09337 1.315435,-0.449068 1.801529,-0.5907 0.0907,-0.02642 0.317934,-0.09052 0.340673,-0.0961 l 0.0051,-0.0012 v 0.474118 0.474118 l -0.0061,0.002 c -0.0033,0.001 -0.04284,0.01163 -0.08784,0.02348 -0.464717,0.122443 -0.956893,0.263964 -1.374775,0.395306 -0.169309,0.05321 -0.268862,0.08558 -0.525188,0.170763 -0.110428,0.03669 -0.215834,0.07097 -0.234238,0.07617 -0.02408,0.0068 -0.03607,0.01118 -0.04279,0.0156 -0.0228,0.01507 -0.10147,0.04568 -0.299756,0.116606 -0.222665,0.07965 -0.310772,0.109785 -0.320943,0.109756 -0.0038,-1.8e-5 -0.01357,0.0025 -0.02137,0.0056 -0.0078,0.0031 -0.04345,0.01694 -0.07924,0.03072 -0.182558,0.07032 -0.251596,0.09719 -0.393186,0.152961 -0.08492,0.03345 -0.274919,0.109798 -0.34951,0.140442 -0.02913,0.01196 -0.05697,0.02333 -0.06182,0.02525 l -0.0088,0.0034 z m 0.875621,0.05503 c -0.0015,-5.23e-4 -0.0033,-5.23e-4 -0.0048,0 -0.0015,5.25e-4 -2.34e-4,9.39e-4 0.0024,9.39e-4 0.0024,0 0.0038,-4.22e-4 0.0024,-9.39e-4 z m 0.692035,-0.263329 c 0.0446,-0.0297 0.06329,-0.0445 0.09175,-0.07251 0.03188,-0.03138 0.05575,-0.06561 0.08107,-0.116288 0.05252,-0.105074 0.09117,-0.236964 0.103223,-0.352257 0.0061,-0.05832 0.01489,-0.151456 0.01475,-0.155968 -4.28e-4,-0.01232 -0.0038,0.0098 -0.0091,0.05808 -0.01823,0.168447 -0.04122,0.274098 -0.08179,0.37553 -0.03579,0.08948 -0.06165,0.133085 -0.106764,0.179929 -0.02318,0.02406 -0.04198,0.03993 -0.0884,0.07466 -0.01989,0.01488 -0.03745,0.02815 -0.03902,0.02949 -0.0069,0.0058 0.0079,-0.003 0.03431,-0.02067 z m 0.413641,-0.716053 c 0.118119,-0.0098 0.138112,-0.01179 0.147336,-0.01418 0.01456,-0.0037 0.0098,-0.0062 -0.04508,-0.02336 -0.109457,-0.03416 -0.180468,-0.05241 -0.279869,-0.07193 -0.03975,-0.0078 -0.09101,-0.01617 -0.09752,-0.01592 -0.0077,2.98e-4 0.01323,0.0051 0.08451,0.01959 0.132192,0.02677 0.20783,0.04554 0.280798,0.06969 0.03817,0.01263 0.04541,0.01549 0.04365,0.01721 -4.76e-4,4.64e-4 -0.05191,0.006 -0.114278,0.01229 -0.06236,0.0063 -0.117585,0.01214 -0.122697,0.01299 -0.02061,0.0034 0.0063,0.0018 0.103171,-0.0063 z"
     id="path201430" />
  <path
     style="fill:#f9f9f9;fill-opacity:1;stroke:none;stroke-width:0;stroke-miterlimit:4;stroke-dasharray:none;stroke-opacity:1"
     d="m 67.980619,21.210666 v -0.02152 l 0.02925,10e-4 c 0.01611,5.73e-4 0.73556,0.0016 1.598793,0.0022 l 1.569514,0.0011 V 20.78711 20.380743 h 0.0051 0.0051 v 0.425725 0.425725 h -1.60349 -1.603437 z"
     id="path201469" />
  <path
     style="fill:#f9f9f9;fill-opacity:1;stroke:none;stroke-width:0;stroke-miterlimit:4;stroke-dasharray:none;stroke-opacity:1"
     d="m 67.980619,21.307675 v -0.06077 l 0.314644,10e-4 c 0.173055,5.71e-4 0.518776,0.0019 0.768263,0.0029 0.249486,9.39e-4 0.65104,0.0023 0.892344,0.003 0.241311,6.66e-4 0.440626,0.0018 0.442936,0.0024 0.0022,6.19e-4 -0.532266,0.02566 -1.187936,0.05567 -0.655685,0.03001 -1.200712,0.05501 -1.211191,0.05558 l -0.01907,0.001 z"
     id="path201508" />
  <path
     style="fill:#f9f9f9;fill-opacity:1;stroke:none;stroke-width:0;stroke-miterlimit:4;stroke-dasharray:none;stroke-opacity:1"
     d="m 67.980619,21.375527 v -0.0054 l 0.02,-0.0011 c 0.01098,-6.66e-4 0.568782,-0.02625 1.239524,-0.05689 0.670757,-0.03063 1.221643,-0.05594 1.224199,-0.05625 0.01263,-0.0016 -0.410979,-0.0034 -1.29205,-0.0061 -0.534253,-0.0016 -1.020926,-0.0033 -1.081512,-0.0039 l -0.110144,-0.001 v -0.0054 -0.0054 l 1.57509,3.45e-4 c 0.866294,1.89e-4 1.57049,6.18e-4 1.564864,10e-4 -0.0058,3.51e-4 -0.189674,0.009 -0.408993,0.01916 -0.376884,0.01752 -0.758346,0.03527 -1.536518,0.07153 -0.18609,0.0087 -0.509429,0.02371 -0.718523,0.03344 -0.2091,0.0097 -0.396831,0.01851 -0.417168,0.01955 -0.02037,0.001 -0.04188,0.0019 -0.04789,0.0019 -0.01076,0 -0.0109,-6e-5 -0.0109,-0.0054 z"
     id="path201547" />
  <path
     style="fill:#f9f9f9;fill-opacity:1;stroke:none;stroke-width:0;stroke-miterlimit:4;stroke-dasharray:none;stroke-opacity:1"
     d="m 67.982808,21.378632 c -0.0036,-0.0034 -0.0022,-0.0068 0.0022,-0.0079 0.0022,-4.76e-4 0.03553,-0.0022 0.0739,-0.0038 0.03835,-0.0016 0.09565,-0.0041 0.127346,-0.0057 0.03171,-0.0016 0.239996,-0.01109 0.462898,-0.0213 1.856953,-0.085 1.813462,-0.08297 1.814885,-0.08439 4.77e-4,-6.19e-4 -0.01474,-10e-4 -0.03409,-9.39e-4 -0.01935,1.02e-4 -0.03307,7.94e-4 -0.03047,0.0016 0.0029,7.95e-4 -0.0085,0.0019 -0.026,0.0026 -0.01683,7.14e-4 -0.07585,0.0033 -0.131059,0.0059 -0.05524,0.0026 -0.246792,0.01136 -0.425726,0.01957 -0.178934,0.0082 -0.388078,0.01783 -0.464769,0.02136 -0.13202,0.0061 -0.442699,0.02034 -0.711093,0.03261 -0.06695,0.003 -0.176146,0.0081 -0.242603,0.01108 -0.06644,0.003 -0.176053,0.0081 -0.243543,0.01113 -0.06745,0.0031 -0.134194,0.0061 -0.148254,0.0068 l -0.02557,0.0012 v -0.06067 -0.06068 l 0.431764,7.95e-4 0.431772,7.94e-4 -0.403418,-0.0016 c -0.221883,-9.38e-4 -0.416172,-0.0022 -0.431764,-0.0028 -0.0281,-0.0011 -0.02838,-0.0012 -0.02838,-0.0056 v -0.0044 l 1.546275,0.001 c 0.850448,5.71e-4 1.546432,0.0011 1.54662,0.0013 1.8e-4,1.33e-4 -0.09394,0.0047 -0.209144,0.01005 -0.39075,0.01824 -2.44293,0.113728 -2.643003,0.122977 -0.109407,0.0051 -0.207346,0.0096 -0.217637,0.01016 -0.01307,7.13e-4 -0.01935,3.33e-4 -0.02087,-0.0011 z m 2.130149,-0.126076 c -0.126271,-6.66e-4 -0.459648,-0.0017 -0.740832,-0.0022 -0.281185,-4.76e-4 -0.451423,-5.7e-4 -0.378321,-2.2e-4 0.370723,0.0019 0.934572,0.0037 1.129387,0.0036 l 0.21937,-3.1e-5 -0.229604,-0.0012 z"
     id="path201586" />
  <path
     style="fill:#f9f9f9;fill-opacity:1;stroke:none;stroke-width:0;stroke-miterlimit:4;stroke-dasharray:none;stroke-opacity:1"
     d="m 67.980619,21.082818 v -0.01238 h 0.850248 c 0.467636,0 0.855388,-5.23e-4 0.861671,-0.0011 l 0.01141,-0.0011 v -0.247919 -0.24792 h -0.86168 -0.861672 v -0.01208 -0.01209 l 0.660429,1e-6 c 0.363241,0 0.758946,5.71e-4 0.879345,0.0012 l 0.218901,0.0012 v 0.271116 0.271115 h -0.837212 c -0.460464,0 -0.856161,5.71e-4 -0.87933,0.0012 l -0.0421,0.0012 z"
     id="path201625" />
  <path
     style="fill:#f9f9f9;fill-opacity:1;stroke:none;stroke-width:0;stroke-miterlimit:4;stroke-dasharray:none;stroke-opacity:1"
     d="m 69.690957,20.819464 v -0.247255 h 0.0065 0.0065 v 0.247255 0.247255 h -0.0065 -0.0065 z"
     id="path201664" />
  <path
     style="fill:#f9f9f9;fill-opacity:1;stroke:none;stroke-width:0;stroke-miterlimit:4;stroke-dasharray:none;stroke-opacity:1"
     d="m 67.980619,20.430233 v -0.02162 h 1.191657 1.191662 v -0.385755 -0.385755 h 0.0093 0.0093 v 0.406205 0.406205 l -1.193982,2.1e-5 c -0.656696,10e-6 -1.197123,5.23e-4 -1.200958,0.0011 l -0.0073,0.0011 z"
     id="path201703" />
  <path
     id="path201742"
     style="fill:#f9f9f9;fill-opacity:1;stroke:none;stroke-width:0;stroke-miterlimit:4;stroke-dasharray:none;stroke-opacity:1"
     d="m 70.388104,16.976782 -0.0022,1.738224 c -7.22e-4,0.956022 -0.0029,1.555012 -0.0036,1.331088 -0.0015,-0.262791 -0.0051,-0.407135 -0.0093,-0.407135 -0.0051,0 -0.0075,0.136073 -0.0075,0.386686 v 0.386684 h -1.1898 -1.1898 v 0.01766 c 0,0.01656 -0.0036,0.01779 -0.06139,0.0223 -0.03373,0.0026 -0.198549,0.0047 -0.366231,0.0047 -0.350429,6.2e-5 -0.832792,0.01092 -0.973217,0.0223 -0.348602,0.02825 0.154646,0.05539 1.226047,0.06599 0.310831,0.0031 0.477314,0.0067 0.36995,0.0075 -0.124349,7.95e-4 -0.195197,0.0036 -0.195197,0.0084 0,0.0049 0.29063,0.0075 0.857028,0.0075 h 0.857028 v 0.252833 0.252832 l -0.42387,-0.0019 -0.423863,-0.0019 0.418288,-0.0019 0.418288,-0.0019 v -0.244499 -0.243537 l -1.437055,-0.0056 c -0.790376,-0.003 -1.467192,-0.0067 -1.503981,-0.0084 -0.03676,-0.0016 -0.129319,-0.0051 -0.205425,-0.0075 -0.107284,-0.0032 -0.14364,-0.0063 -0.16267,-0.01581 -0.02152,-0.01076 -0.04463,-0.01168 -0.188691,-0.0075 -0.273333,0.0081 -1.023664,0.06225 -1.651781,0.11991 -0.34294,0.03148 -1.022197,0.104241 -1.109851,0.11898 l -0.02419,0.0047 v 0.442457 c 0,0.418072 7.22e-4,0.442403 0.013,0.438739 0.03047,-0.0091 0.711799,-0.110682 0.786374,-0.117121 0.04499,-0.0039 0.528541,-0.02726 1.074543,-0.05205 0.546003,-0.02479 1.375884,-0.06205 1.844191,-0.08365 0.480326,-0.02216 0.855057,-0.03707 0.859817,-0.03346 0.0065,0.0052 2.406472,-0.102155 2.847156,-0.127347 0.07455,-0.0042 -0.671595,-0.0056 -1.998498,-0.0037 l -1.071748,0.0019 c 0.0015,0.0077 -0.0065,0.01593 -0.02137,0.01395 -0.02124,-0.0028 -0.0421,-0.005 -0.06319,-0.0084 -0.01409,-0.0023 -0.02535,-0.0035 -0.0372,-0.0056 l -0.923956,9.39e-4 v -0.08848 -0.08924 h 0.635803 c 0.630848,0 0.635802,1.15e-4 0.635802,0.01487 -1.4e-5,0.01449 -0.0051,0.01469 -0.191493,0.01487 -0.105313,1.42e-4 -0.223292,0.0019 -0.262126,0.0037 -0.03886,0.0018 -0.164063,0.0052 -0.278858,0.0075 -0.215362,0.0041 -0.277652,0.0074 -0.39691,0.01952 -0.08085,0.0082 -0.105385,0.01697 -0.06695,0.02416 0.02066,0.0038 0.07049,0.007 0.132922,0.01026 -0.0022,-0.007 1.45e-4,-0.01734 -7.22e-4,-0.02509 0.01942,-7.94e-4 0.03908,-0.0023 0.05857,-0.0028 0.0065,-1.83e-4 0.01307,-1.05e-4 0.0195,0 0.08142,0.0013 0.151858,0.0047 0.22402,0.01026 4.2e-4,-0.0042 0.0022,-0.0084 0.0058,-0.01208 v -9.39e-4 c -7.23e-4,-0.0034 -4.77e-4,-0.0072 7.22e-4,-0.01026 7.22e-4,-0.0017 0.0015,-0.0019 0.0029,-0.0019 0.0022,1.03e-4 0.0058,0.0019 0.0093,0.0037 l 7.22e-4,-9.38e-4 c 0.0089,-0.0035 0.01856,0.0032 0.02788,0.0056 0.0065,0.0016 0.01445,0.0039 0.02232,0.0065 7.23e-4,1.67e-4 0.0022,7.95e-4 0.0029,9.39e-4 0.01156,0.0021 0.02369,0.0038 0.03531,0.0056 0.08931,0.01375 0.225618,0.03201 0.312319,0.03997 0.01662,0.0016 0.03257,0.0025 0.04832,0.0037 0.03113,4.67e-4 0.04543,0.0015 0.07808,0.0019 0.210632,0.0028 0.345338,0.0058 0.299312,0.0065 l -0.08365,9.39e-4 v 0.01859 0.01859 h 1.599717 1.599724 l -0.0051,-0.02788 c -0.0022,-0.01534 -0.0051,-0.972384 -0.0051,-2.126768 v -2.098845 h -0.394116 z m -1.329229,3.571259 c 0.08896,-0.0011 0.234515,-0.0011 0.323475,0 0.08895,0.0011 0.01618,0.0019 -0.161737,0.0019 -0.177909,1e-6 -0.250693,-6.66e-4 -0.161738,-0.0019 z m -0.613494,0.542846 c 0.238242,-10e-4 0.628089,-10e-4 0.866323,0 0.238242,0.001 0.04333,0.0019 -0.433157,0.0019 -0.476469,0 -0.6714,-7.95e-4 -0.433166,-0.0019 z m -1.298556,0.07437 c -1.53e-4,0.0016 -7.23e-4,0.0032 -0.0022,0.0047 0.03445,0.001 0.06522,0.0018 0.103171,0.0028 -0.03416,-0.003 -0.06738,-0.0055 -0.101316,-0.0075 z m 1.034568,0.0223 c 0.01127,-0.0018 0.02968,-0.0018 0.04088,0 0.01127,0.0018 0.0022,0.0037 -0.02044,0.0037 -0.02239,0 -0.03171,-0.0021 -0.02044,-0.0037 z m 2.223444,0.06693 c 0.0073,-0.0019 0.01726,-0.001 0.02232,9.39e-4 0.0051,0.0021 -7.22e-4,0.003 -0.013,0.0028 -0.01249,-1.42e-4 -0.01654,-0.0018 -0.0093,-0.0037 z" />
  <path
     style="fill:#f9f9f9;stroke:#ffffff;stroke-width:0.47592px;stroke-linecap:butt;stroke-linejoin:miter;stroke-opacity:1"
     d="m 68.303561,20.998223 c -0.48577,0.08986 -0.981615,0.121017 -1.472399,0.171698 -0.239729,0.02476 -0.475544,0.0633 -0.714739,0.0633"
     id="path202029" />
  <path
     style="fill:#f9f9f9;stroke:#ffffff;stroke-width:0.47592px;stroke-linecap:butt;stroke-linejoin:miter;stroke-opacity:1"
     d="m 68.35447,20.951032 c -0.485771,0.08986 -0.981617,0.121016 -1.472399,0.171698 -0.239737,0.02476 -0.475552,0.0633 -0.714746,0.0633"
     id="path202029-3" />
</svg>
